<svg width="273" height="260" fill="none" xmlns="http://www.w3.org/2000/svg"><g clip-path="url(#a)" fill-rule="evenodd" clip-rule="evenodd" fill="#3558A2"><path d="M89.705 232.909c.422 6.21 1.01 9.283 2.09 13.025L63.69 244.11c-1.02 2.856-5.161 13.345-19.912 13.345-14.618 0-20.496-12.058-21.972-24.546h67.9Zm25.658-9.318c0-17.219 9.525-31.737 21.242-31.737 14.973 0 21.222 13.516 21.222 31.737 0 19.598-9.274 31.166-21.226 31.166-12.937 0-21.238-13.132-21.238-31.166Zm136.274-11.968h-40.831c0-2.813 3.856-19.764 20.36-19.764 15.795 0 20.471 16.435 20.471 19.764Zm21.362 20.301v12.382l-20.987-1.453s-4.505 13.703-19.929 13.703c-13.791 0-21.763-14.087-22.237-24.632h63.153ZM43.312 192.613c-16.495 0-20.44 17.152-20.44 19.735h40.744c0-2.046-3.8-19.735-20.304-19.735Zm134.487-85.928-4.548 3.133 4.164 3.171 2.324-1.556h2.172v-3.529h-2.274l-1.838-1.219Z"/><path d="M164.47 103.676c-.162.601-.26 1.927-.354 3.214-.218 3.052-.44 5.302-1.216 6.427-.768 1.109-1.544 1.667-2.32 1.667a1.692 1.692 0 0 1-.568-.102c-.042-.013-.06-.056-.098-.073v18.49h21.994v-6.078h-1.604l-2.952 1.982-5.592-4.25v-2.919l6.014-4.143 2.432 1.602h1.706v-5.962h-1.608l-2.952 1.99-5.592-4.25v-2.932l6.014-4.143 2.432 1.598h1.706v-4.935h-13.168c-3.08 1.236-3.976 1.739-4.274 2.817Z"/><path d="M172.651 93.694c-.384-1.522-4.334-7.178-5.806-9.186a17.625 17.625 0 0 0-5.063 3.406l.094.15c.708 1.252 2.854 5.071 4.163 5.851l1.28.755-1.143.972c-1.847 1.547-6.569 6.5-7.683 8.584-.554 1.036-.324 3.636 1.015 4.872l.329.315v.473c0 1.245.448 2.779.776 3.018.004-.034.269-.166.725-.818.495-.738.7-3.517.841-5.354.102-1.517.204-2.834.418-3.644.631-2.28 2.32-2.941 6.846-4.727l.456-.179c3.567-1.402 3.375-2.131 2.858-4.083l-.106-.405Zm-41.155-11.598c-.981-1.517-3.924-6.052-4.777-7.335-.73-1.083-1.353-1.45-1.916-1.45a2.06 2.06 0 0 0-1.224.52c-.307.23-.943.695-1.706 1.24-1.468 1.075-3.383 2.464-4.053 3.019-.486.409-1.373 1.138-1.39 1.525-.004.064.064.175.175.299 1.036 1.108 6.211 7.195 8.104 9.424l6.787-7.242Z"/><path d="M157.948 135.554v-24.675h.026c-.021-.174-.056-.396-.064-.528-1.757-1.969-2.073-5.362-1.109-7.161 1.164-2.174 5.063-6.295 7.234-8.341-1.215-1.262-2.499-3.363-3.651-5.409a21.673 21.673 0 0 0-2.235 3.227c-3.814 6.691-7.704 16.776-4.59 26.745 3.882 12.446 3.029 19.939 1.843 30.314a277.36 277.36 0 0 0-1.126 11.257c-.589 7.8.486 15.565 1.002 19.159a32.372 32.372 0 0 1 2.687 4.211v-48.799h-.017Z"/><path d="M143.294 160.953c-3.34-1.663-5.758-6.726-8.382-17.488-.435-1.795-.785-3.572-1.126-5.294-1.164-5.925-2.175-11.04-6.211-14.138l1.152-1.688c4.637 3.58 5.767 9.322 6.966 15.395.341 1.692.682 3.436 1.109 5.2 2.423 9.957 4.607 14.782 7.315 16.12l-.823 1.893Zm-13.863-54.344c.682 1.052 3.732 2.727 6.01 3.516 2.086.725 6.829 1.168 8.203.989l.235 2.063a7.94 7.94 0 0 1-.999.051c-2.132 0-6.035-.431-8.04-1.125-1.412-.491-5.738-2.332-7.013-4.322l1.604-1.177v.005Zm22.902 54.203c.316-4.305.751-8.043 1.13-11.342 1.199-10.477 1.988-17.399-1.753-29.401-3.352-10.728.743-21.41 4.769-28.48 3.541-6.211 7.909-8.227 10.012-9.195l.396-.183a90.298 90.298 0 0 1-1.936-2.544c-1.719-2.302-5.298-7.089-6.403-7.216a370.022 370.022 0 0 0-3.967-.414c-.226 7.071-3.754 14.351-13.108 14.351a11.227 11.227 0 0 1-5.149-1.21l-7.977 8.575c.918 1.232 2.603 3.419 5.234 3.419 1.109 0 3.908-.43 5.814-4.416l1.724-.017c1.808 3.568 3.105 4.492 6.334 4.492 1.95 0 3.861-2.11 4.33-2.992.414-.792.866-3.525.281-6.116l1.899-.486c.652 2.894.255 6.21-.478 7.625-.683 1.266-3.131 4.05-6.032 4.05-3.429 0-5.353-1.023-7.196-4.045-2.346 3.559-5.375 3.985-6.676 3.985-3.122 0-5.101-2.106-6.27-3.58.593 8.311-1.476 13.519-3.502 18.528-.567 1.41-1.152 2.851-1.672 4.364.226 5.78 1.356 21.781 3.928 28.771 2.654 7.203 7.986 16.312 13.134 22.517 4.483.938 9.44 3.044 13.727 7.477-.512-4.178-1.062-10.328-.597-16.517h.004Zm25.466-40.432-4.547 3.124 4.163 3.167 2.325-1.556h2.171v-3.516h-2.274l-1.838-1.219Z"/><path d="m152.643 71.832-3.554-.366-11.287 12.126c.883.37 2.125.72 3.669.72 9.824 0 11.069-8.95 11.172-12.48Zm-41.313 74.565a79.547 79.547 0 0 0-1.182 9.791l.598-.793c1.356-1.782 2.759-3.627 2.823-5.285.052-1.467-1.04-2.622-2.239-3.709"/><path d="M130.119 53.16c.917-1.16 2.29-2.443 4.828-1.936l-.358 2.046c-1.429-.281-2.21.256-2.986 1.24-.909 1.13-2.866 2.83-4.504 2.038-1.4-.682-1.621-.793-2.637.92l-1.646-1.108c1.783-3.017 3.306-2.574 5.089-1.705.315.15 1.429-.515 2.214-1.491v-.005Zm5.259 1.734-.478 2.016c-.895-.23-1.663.64-2.678 1.91-.32.396-.619.767-.905 1.057-1.041 1.031-2.393 1.09-4.44 1.172l-.879.043c-1.501.072-1.821.652-2.274 1.461a5.292 5.292 0 0 1-.592.934l-1.459-1.377c.14-.179.256-.392.375-.61.516-.937 1.297-2.365 3.86-2.493l.888-.038c1.859-.077 2.704-.128 3.186-.61.239-.243.486-.558.755-.895 1.067-1.321 2.551-3.133 4.641-2.57Zm-1.663 6.862c-.299.567-.619 1.151-.99 1.607-.939 1.155-2.517 1.816-4.334 1.816-.2 0-.401-.008-.606-.026l.15-2.071c1.075.072 2.568-.145 3.314-1.074.277-.341.52-.81.781-1.287.665-1.253 1.505-2.81 3.071-3.12l.362 2.046c-.682.136-1.22 1.138-1.748 2.105v.004Zm2.96.49c0 2.204 0 8.056-7.482 10.085l-.491-2.016c6.015-1.637 6.015-5.976 6.015-8.068h1.958Zm4.449-9.24c.985-.17 2.303-.277 2.943.221a1.197 1.197 0 0 1 .457.81.899.899 0 0 1-.726 1.015h-.115a.835.835 0 0 1-.678-.362 6.339 6.339 0 0 0-1.608.098c-.444.089-.887-.252-.968-.742-.073-.495.234-.96.695-1.04Zm5.161 1.432a.795.795 0 0 1 1.105.354c.128.255 1.331 4.177-.234 5.23a.797.797 0 0 1-.859.02.82.82 0 0 1-.297-.306.934.934 0 0 1 .196-1.193c.213-.482-.077-2.396-.295-2.911-.187-.435-.029-.98.384-1.194Zm.197 7.881-1.924.192c-.03.008-.06.008-.086.008a.868.868 0 0 1-.84-.814c-.043-.498.299-.938.768-.98l1.919-.2c.448-.052.879.315.93.81.034.494-.303.933-.767.98v.004Zm-38.127-13.43c-1.254-1.399-2.764-2.699-5.362-2.699-2.576 0-4.052 1.036-5.741 2.814l-1.365-1.475c1.932-2.05 3.882-3.419 7.106-3.419 3.336 0 5.294 1.693 6.774 3.346l-1.407 1.432h-.005ZM.005 0v200.43c5.775-16.282 19.788-30.676 41.999-30.676 30.849 0 42.942 23.29 47.813 44.669 1.625-11.614 5.81-22.445 12.473-30.603V95.27a4.011 4.011 0 0 1-1.037-.698c-2.7-2.515-2.444-8.81-2.26-13.41.038-.886.068-1.679.068-2.301 0-1.219.085-2.911.183-4.735.166-3.24.35-6.91.094-8.78-.324-2.243 0-5.03 2.538-7.17v-5.37h-9.683V50.72h21.256v2.08h-9.624v4.11a14.414 14.414 0 0 1 1.958-.806l.58 1.982c-.985.328-1.834.724-2.538 1.176v2.523h-1.949v-.562c-.623 1.065-.828 2.335-.619 3.814.299 2.076.103 5.861-.072 9.198-.085 1.782-.171 3.44-.171 4.625 0 .652-.042 1.47-.068 2.387-.154 3.55-.384 9.377 1.344 11.5V70.656h.499c-.005-.848.128-1.603.439-2.054 1.758-2.536 2.935-4.237 2.41-6.688l1.894-.465c.73 3.389-.896 5.725-2.61 8.201-.35.716-.043 3.487.571 4.395.904 1.342 2.291 5.907 2.7 9.3 1.719-1.492 4.053-3.21 6.296-3.951.128-1.27 1.25-2.195 2.069-2.882.759-.622 2.713-2.045 4.223-3.14l1.672-1.228c2.078-1.556 4.198-1.032 5.844 1.419.811 1.206 3.464 5.294 4.607 7.05l11.867-12.663V66.38c-3.668-.367-7.345-3.367-8.071-5.379l1.694-.703c.456 1.253 3.873 4.21 7.081 4.21 1.207 0 3.532-2.787 4.253-5.634.349-1.317.012-2.216-.325-2.74-.375-.593-.976-1.02-1.518-1.075l.188-1.935c.392.043.759.248 1.126.43.388-.941.541-1.892.204-2.616-.405-.878-1.369-1.39-2.721-1.445-4.948-.269-9.367 2.127-10.127 3.128l-1.514-1.304c1.305-1.747 6.552-4.134 11.726-3.904.841.034 1.591.204 2.244.498-.286-2.276-1.877-4.607-3.122-5.072l-.453-.179-.153-.494c-.64-2.148-2.986-4.868-6.326-5.14.58.78 1.071 1.636 1.173 2.22l.273 1.586-1.463-.384a17.387 17.387 0 0 0-2.24-.469c.598.512 1.05 1.16 1.365 2.149l.602 1.918-1.813-.584c-.508-.17-1.45-.18-2.431.085.431.43.761.951.964 1.526.665 1.833.017 3.815-.653 5.149l-1.719-.972c.661-1.351.866-2.566.554-3.427-.234-.644-.767-1.121-1.629-1.45l-1.851-.72 1.655-1.138c1.002-.682 2.218-1.07 3.344-1.197a16.33 16.33 0 0 0-1.48-.789l-2.359-1.163 1.8-.972c1.212-.657 2.777-.644 4.087-.456a5.828 5.828 0 0 0-.896-.95l-1.916-1.416 2.283-.46c5.336-1.087 9.171 2.702 10.378 5.967 2.273 1.236 4.415 5.234 3.95 8.525.078.13.148.265.209.405.682 1.457.52 3.247-.341 4.918.029.047.076.068.111.111.776 1.219.985 2.766.575 4.348-.686 2.71-2.734 5.754-4.769 6.721v.853l.871.925-22.949 24.482-.691-.81-2.534-2.983c-3.647 2.762-11.018 5.882-16.504 6.93a4.866 4.866 0 0 1-.674.086v86.038a39.353 39.353 0 0 1 10.779-8.205c-3.451-2.54-7.025-7.258-7.422-11.026-.102-.964.085-1.893.461-2.801.064-4.053.563-9.884 1.587-14.739-.854-.89-1.468-1.858-1.212-3.047.109-.488.326-.946.636-1.339.085-4.978.998-9.573 2.704-13.677-1.808-2.434-3.101-5.673-1.676-10.907 1.39-5.09 4.035-9.714 8.104-14.143 2.368-2.579 29.83-32.082 29.83-32.082l.316-.35.46.052s8.472.865 9.939 1.031c1.783.2 4.334 3.436 7.73 7.988.972 1.3 1.812 2.43 2.358 3.043a1.437 1.437 0 0 1 .384 1.257c-.081.35-.289.656-.584.861 2.167 2.805 5.69 8.81 5.895 9.612l.107.383c.533 2.038.708 3.704-1.421 5.23h10.673v34.597h.008v85.242c1.062-19.372 14.576-49.08 46.598-49.08 21.405 0 35.43 11.55 42.511 28.229V0H0h.004Z"/><path d="M110.001 160.429h-.154a3.59 3.59 0 0 0-.32 1.721c.371 3.479 4.415 8.325 7.636 10.221l.657-.285c-.35-2.984-.879-7.455-1.553-12.659-.973-7.544-.687-14.884-.009-21.201a19.448 19.448 0 0 1-2.858 1.714c-1.42.724-2.883 1.474-3.071 2.331-.094.448.964 1.385 1.732 2.072 1.583 1.406 3.549 3.154 3.451 5.839-.085 2.361-1.698 4.475-3.259 6.526-.853 1.121-1.728 2.271-2.252 3.362v.359Zm14.247-12.336c-2.018-5.489-3.174-16.183-3.72-23.596-1.505 6.628-4.159 20.395-2.324 34.653a1195.98 1195.98 0 0 1 1.505 12.262 38.784 38.784 0 0 1 9.773-2.101 35.822 35.822 0 0 1 6.782.085c-4.807-6.248-9.542-14.585-12.016-21.303Zm-20.006-72.216v17.62c.103-.008.213-.03.32-.046 5.076-.98 12.072-3.904 15.527-6.445a363.923 363.923 0 0 0-4.863-5.626l-.051-.047c-1.962.61-4.581 2.408-7.2 4.932l-1.8 1.73.17-2.574c.162-2.46-1.211-7.536-2.103-9.548m8.318 62.191c1.856-.954 3.788-1.943 4.04-3.618.298-1.901-.811-3.197-2.654-5.154l-.737-.797a34.59 34.59 0 0 0-2.133 10.358c.469-.269.977-.529 1.484-.789Zm4.812-7.766a149.195 149.195 0 0 1 1.817-8.665c.738-3.082 1.8-5.711 2.828-8.252 1.928-4.761 3.72-9.317 3.404-16.482l-5.835 6.291c-3.827 4.177-6.322 8.512-7.615 13.264-1.65 6.049.896 8.755 3.353 11.368.742.784 1.451 1.598 2.048 2.472"/></g><defs><clipPath id="a"><path fill="#fff" d="M0 0h273v260H0z"/></clipPath></defs></svg>