<svg xmlns="http://www.w3.org/2000/svg" width="75" height="75" fill="none" viewBox="0 0 75 75"><path fill="#fbfbfb" d="M0 0h75v75H0z"/><path fill="#315efd" d="M47.197 32.943c.416 0 .819.063 1.197.18l3.449-3.448-1.608-1.608-4.875 4.876z"/><path fill="#000" fill-opacity=".4" d="M47.197 32.943c.416 0 .819.063 1.197.18l3.449-3.448-1.608-1.608-4.875 4.876z"/><path fill="#315efd" d="m54.164 31.997-.892-.892-3.124 3.123a4.03 4.03 0 0 1 1.091 2.758v.795l2.925-2.925c.79-.79.79-2.07 0-2.859M48.806 26.638l-5.783-5.782c-.79-.79-2.07-.79-2.859 0L28.077 32.943h14.424z"/><path fill="#282b39" d="M47.197 34.965H22.278a2.02 2.02 0 0 0-2.021 2.021v15.757c0 1.116.905 2.021 2.021 2.021h24.919a2.02 2.02 0 0 0 2.021-2.021V36.986a2.02 2.02 0 0 0-2.021-2.021"/><path fill="#315efd" d="M47.197 34.965H22.278a2.02 2.02 0 0 0-2.021 2.021v15.757c0 1.116.905 2.021 2.021 2.021h24.919a2.02 2.02 0 0 0 2.021-2.021V36.986a2.02 2.02 0 0 0-2.021-2.021" opacity=".3"/><path fill="#fff" d="M47.197 34.965H22.278a2.02 2.02 0 0 0-2.021 2.021v15.757c0 1.116.905 2.021 2.021 2.021h24.919a2.02 2.02 0 0 0 2.021-2.021V36.986a2.02 2.02 0 0 0-2.021-2.021" opacity=".87"/><path fill="url(#a)" d="M47.197 34.965H22.278a2.02 2.02 0 0 0-2.021 2.021v15.757c0 1.116.905 2.021 2.021 2.021h24.919a2.02 2.02 0 0 0 2.021-2.021V36.986a2.02 2.02 0 0 0-2.021-2.021"/><path fill="url(#b)" d="M47.197 34.965H22.278a2.02 2.02 0 0 0-2.021 2.021v15.757c0 1.116.905 2.021 2.021 2.021h24.919a2.02 2.02 0 0 0 2.021-2.021V36.986a2.02 2.02 0 0 0-2.021-2.021"/><path fill="#315efd" d="M25.26 48.438h-1.769v-1.416h1.77zm2.735 0h-1.77v-1.416h1.77zm2.734 0H28.96v-1.416h1.77zm2.735 0h-1.77v-1.416h1.77z" opacity=".2"/><path fill="#282b39" d="M25.26 48.438h-1.769v-1.416h1.77zm2.735 0h-1.77v-1.416h1.77zm2.734 0H28.96v-1.416h1.77zm2.735 0h-1.77v-1.416h1.77z" opacity=".2"/><path fill="#315efd" fill-rule="evenodd" d="M28.532 41.26c-1.58 0-2.861 1.251-2.861 2.795 0 .774.322 1.474.843 1.98.033.033.09.025.113-.015.244-.43.671-.767 1.193-.931a1.24 1.24 0 0 1-.564-1.035c0-.688.571-1.246 1.276-1.246s1.276.558 1.276 1.246c0 .431-.224.81-.564 1.035.521.164.949.5 1.193.93.022.04.08.049.113.016.52-.506.843-1.206.843-1.98 0-1.544-1.281-2.795-2.861-2.795M36.698 40.405c0-.276.224-.499.499-.499h3.49c.276 0 .499.224.499.499v3.49a.5.5 0 0 1-.499.499h-3.49a.5.5 0 0 1-.499-.499zm1.496 1.496c0-.276.223-.499.499-.499h.498c.276 0 .499.223.499.499v.498a.5.5 0 0 1-.499.499h-.498a.5.5 0 0 1-.499-.499zM36.698 45.89c0-.275.224-.498.499-.498h3.49c.276 0 .499.223.499.498v3.49a.5.5 0 0 1-.499.5h-3.49a.5.5 0 0 1-.499-.5zm1.995.998a.5.5 0 0 0-.499.498v.499c0 .275.223.498.499.498h.498a.5.5 0 0 0 .499-.498v-.499a.5.5 0 0 0-.499-.498zM42.682 39.906a.5.5 0 0 0-.498.499v3.49c0 .276.223.499.498.499h3.49a.5.5 0 0 0 .5-.499v-3.49a.5.5 0 0 0-.5-.499zm.997 1.995c0-.276.224-.499.5-.499h.498c.275 0 .498.223.498.499v.498a.5.5 0 0 1-.498.499h-.499a.5.5 0 0 1-.498-.499z" clip-rule="evenodd"/><path fill="#315efd" d="M42.682 45.392a.5.5 0 0 0-.498.498v.499c0 .275.223.498.498.498h.499v.998c0 .275.223.498.498.498h.5a.5.5 0 0 0 .498-.498v-.997a.5.5 0 0 0-.499-.5h-.498v-.498a.5.5 0 0 0-.5-.498zM42.682 48.383a.5.5 0 0 0-.498.498v.5c0 .275.223.498.498.498h.499a.5.5 0 0 0 .498-.499v-.499a.5.5 0 0 0-.498-.498zM44.677 45.89c0-.275.223-.498.498-.498h.499c.275 0 .499.223.499.498v.499a.5.5 0 0 1-.499.498h-.499a.5.5 0 0 1-.498-.498zM45.175 48.383a.5.5 0 0 0-.498.498v.5c0 .275.223.498.498.498h.499a.5.5 0 0 0 .499-.499v-.499a.5.5 0 0 0-.499-.498z"/><g fill="#000" opacity=".6"><path fill-rule="evenodd" d="M36.698 40.405c0-.276.224-.499.499-.499h3.49c.276 0 .499.224.499.499v3.49a.5.5 0 0 1-.499.499h-3.49a.5.5 0 0 1-.499-.499zm1.496 1.496c0-.276.223-.499.499-.499h.498c.276 0 .499.223.499.499v.498a.5.5 0 0 1-.499.499h-.498a.5.5 0 0 1-.499-.499zM36.698 45.89c0-.275.224-.498.499-.498h3.49c.276 0 .499.223.499.498v3.49a.5.5 0 0 1-.499.5h-3.49a.5.5 0 0 1-.499-.5zm1.995.998a.5.5 0 0 0-.499.498v.499c0 .275.223.498.499.498h.498a.5.5 0 0 0 .499-.498v-.499a.5.5 0 0 0-.499-.498zM42.682 39.906a.5.5 0 0 0-.498.499v3.49c0 .276.223.499.498.499h3.49a.5.5 0 0 0 .5-.499v-3.49a.5.5 0 0 0-.5-.499zm.997 1.995c0-.276.224-.499.5-.499h.498c.275 0 .498.223.498.499v.498a.5.5 0 0 1-.498.499h-.499a.5.5 0 0 1-.498-.499z" clip-rule="evenodd"/><path d="M42.682 45.392a.5.5 0 0 0-.498.498v.499c0 .275.223.498.498.498h.499v.998c0 .275.223.498.498.498h.5a.5.5 0 0 0 .498-.498v-.997a.5.5 0 0 0-.499-.5h-.498v-.498a.5.5 0 0 0-.5-.498zM42.682 48.383a.5.5 0 0 0-.498.498v.5c0 .275.223.498.498.498h.499a.5.5 0 0 0 .498-.499v-.499a.5.5 0 0 0-.498-.498zM44.677 45.89c0-.275.223-.498.498-.498h.499c.275 0 .499.223.499.498v.499a.5.5 0 0 1-.499.498h-.499a.5.5 0 0 1-.498-.498zM45.175 48.383a.5.5 0 0 0-.498.498v.5c0 .275.223.498.498.498h.499a.5.5 0 0 0 .499-.499v-.499a.5.5 0 0 0-.499-.498z"/></g><defs><linearGradient id="a" x1="20.541" x2="44.023" y1="35.248" y2="59.916" gradientUnits="userSpaceOnUse"><stop stop-color="#fff" stop-opacity="0"/><stop offset="1" stop-opacity=".15"/></linearGradient><linearGradient id="b" x1="34.737" x2="34.737" y1="34.965" y2="54.764" gradientUnits="userSpaceOnUse"><stop stop-color="#fff" stop-opacity=".35"/><stop offset=".611" stop-color="#fff" stop-opacity="0"/></linearGradient></defs></svg>