<svg width="30" height="30" fill="none" xmlns="http://www.w3.org/2000/svg"><g clip-path="url(#a)"><path fill-rule="evenodd" clip-rule="evenodd" d="M24.843 14.615c-.664-2.282-2.73-3.883-5.114-3.883-1.008 0-1.99.289-2.839.833a5.42 5.42 0 0 0-1.928 2.16l.365.498c.357-.23.751-.394 1.157-.466.793-.132 1.874-.255 3.349-.257 1.475.002 2.555.125 3.35.257.607.108 1.188.421 1.66.858Z" fill="#134478"/><path d="M19.729 11.905c-1.788 0-3.243-1.48-3.243-3.3 0-1.82 1.455-3.3 3.243-3.3 1.787 0 3.242 1.48 3.242 3.3 0 1.82-1.455 3.3-3.242 3.3Z" fill="#2987FD"/><path fill-rule="evenodd" clip-rule="evenodd" d="M16.196 13.824c-1.19.34-2.225 1.449-2.439 2.66-.08.478-.156 1.06-.204 1.77a20.313 20.313 0 0 0-.03.545c-.01.208-.016.426-.02.654H6.532a1.545 1.545 0 0 1-1.508-1.815c.579-3.26 3.36-5.626 6.614-5.626 1.744 0 3.352.68 4.558 1.812Z" fill="#134478"/><path d="M11.639 13.184c-2.216 0-4.018-1.836-4.018-4.092C7.621 6.836 9.423 5 11.64 5c2.215 0 4.017 1.836 4.017 4.092 0 2.256-1.802 4.092-4.017 4.092Z" fill="#2987FD"/><path d="M20.574 23.313c0-.731.285-1.42.803-1.937a2.721 2.721 0 0 1 1.937-.802c.6 0 1.172.192 1.643.547.026-.382.043-.81.043-1.288a16.463 16.463 0 0 0-.21-2.732c-.188-1.067-1.157-2.036-2.224-2.224a16.46 16.46 0 0 0-2.732-.21 16.488 16.488 0 0 0-2.733.21c-1.066.188-2.035 1.157-2.224 2.224a16.509 16.509 0 0 0-.21 2.732 16.51 16.51 0 0 0 .21 2.732c.188 1.067 1.158 2.036 2.225 2.225.647.108 1.528.209 2.732.21.478 0 .906-.017 1.288-.043a2.719 2.719 0 0 1-.548-1.644Z" fill="#607D8B"/><path d="M19.093 16.353c0 .732-.285 1.42-.802 1.937a2.721 2.721 0 0 1-1.937.803 2.72 2.72 0 0 1-1.644-.548c-.026.382-.042.81-.043 1.288.001 1.204.102 2.085.21 2.732.188 1.067 1.158 2.036 2.225 2.225.647.108 1.528.209 2.732.21a16.488 16.488 0 0 0 2.732-.21c1.067-.189 2.036-1.158 2.224-2.225.108-.647.209-1.528.21-2.732a16.488 16.488 0 0 0-.21-2.732c-.188-1.067-1.157-2.036-2.224-2.224a16.508 16.508 0 0 0-2.732-.21c-.479 0-.906.017-1.288.043a2.72 2.72 0 0 1 .547 1.643Z" fill="#607D8B"/><path d="M17.169 17.835h5.324c.344 0 .623.29.623.646 0 .357-.279.646-.623.646h-5.324a.635.635 0 0 1-.624-.646c0-.357.28-.646.623-.646Zm0 3.99a.635.635 0 0 1-.624-.646c0-.357.28-.646.623-.646h3.126c.344 0 .623.289.623.646 0 .356-.279.646-.623.646h-3.125Z" fill="#fff"/></g><defs><clipPath id="a"><path fill="#fff" d="M5 5h20v20H5z"/></clipPath></defs></svg>