<svg width="76" height="76" viewBox="0 0 200 200" fill="none" xmlns="http://www.w3.org/2000/svg"><path fill="#FBFBFB" d="M0 0h200v200H0z"/><g clip-path="url(#prefix__clip0_2012_73041)"><path d="M139.102 95.4h-73.6a11.387 11.387 0 01-6.9-2.359V136.8a9.21 9.21 0 009.2 9.2h71.3a2.299 2.299 0 002.299-2.3v-16.1h-16.099a2.3 2.3 0 01-2.301-2.3v-13.8a2.3 2.3 0 012.298-2.3h16.102V97.7a2.298 2.298 0 00-2.296-2.3h-.003z" fill="#459AD4"/><path opacity=".5" d="M139.102 95.4h-73.6a11.387 11.387 0 01-6.9-2.359V136.8a9.21 9.21 0 009.2 9.2h71.3a2.299 2.299 0 002.299-2.3v-16.1h-16.099a2.3 2.3 0 01-2.301-2.3v-13.8a2.3 2.3 0 012.298-2.3h16.102V97.7a2.298 2.298 0 00-2.296-2.3h-.003z" fill="url(#prefix__paint0_linear_2012_73041)"/><path d="M127.602 113.8h13.8v9.199h-13.8V113.8z" fill="#459AD4"/><path d="M127.602 113.8h13.8v9.199h-13.8V113.8z" fill="#000" fill-opacity=".4"/><path d="M65.501 90.8h66.7V79.3a2.3 2.3 0 00-2.299-2.3h-23v2.3a6.9 6.9 0 01-13.8 0V77h-27.6a6.9 6.9 0 100 13.8z" fill="#459AD4"/><path d="M65.501 90.8h66.7V79.3a2.3 2.3 0 00-2.299-2.3h-23v2.3a6.9 6.9 0 01-13.8 0V77h-27.6a6.9 6.9 0 100 13.8z" fill="#000" fill-opacity=".4"/><path d="M89.942 67.297l7.762-6.213V79.3a2.3 2.3 0 104.601 0V61.084l7.762 6.211a2.3 2.3 0 102.875-3.593l-11.5-9.2a2.31 2.31 0 00-2.875 0l-11.5 9.2a2.3 2.3 0 102.875 3.593v.002z" fill="#459AD4"/></g><defs><linearGradient id="prefix__paint0_linear_2012_73041" x1="100.001" y1="93.041" x2="100.001" y2="146" gradientUnits="userSpaceOnUse"><stop stop-color="#fff" stop-opacity=".35"/><stop offset=".611" stop-color="#fff" stop-opacity="0"/></linearGradient><clipPath id="prefix__clip0_2012_73041"><path fill="#fff" transform="translate(54 54)" d="M0 0h92v92H0z"/></clipPath></defs></svg>