<svg width="3000" height="648" fill="none" xmlns="http://www.w3.org/2000/svg"><path d="M1525.42 378.472c-306.99-39.495-647.646-55.262-1001.986-12.141 52.677 23.808 104.798 51.084 164.08 88.923 155.885 8.829 282.247 26.094 453.016 59.755 123.41-59.518 252.88-100.353 384.89-136.537z" fill="#A5C135"/><path d="M1147.93 320.133c-159.706-51.24-318.455-88.843-485.4-107.29-90.236 9.066-206.334 37.682-337.869 80.96 70.661 21.049 125.806 41.545 164.001 57.548 188.828-28.931 427.787-38.943 659.268-31.218z" fill="#1A8761"/><path d="M640.887 453.434c-54.827-32.715-98.035-55.34-159.704-81.434-128.273 18.447-245.803 45.644-368.346 78.044a72734.017 72734.017 0 0020.212 36.657c229.012-29.956 324.5-37.366 507.838-33.267z" fill="#E6B041"/><path d="M290.046 305.234c-94.215 31.769-171.719 61.804-280.655 107.132 9.15 10.327 18.54 20.97 33.818 38.234 143.073-40.204 266.731-70.161 403.677-92.549-61.749-23.334-90.316-32.952-156.84-52.817z" fill="#960045"/><path d="M1046.87 523.442c-271.745-53.37-541.499-60.465-816.664-32.006 3.74 7.095 5.65 10.642 9.39 17.658 194.875 5.124 396.912 15.767 563.539 128.26 76.868-46.038 158.988-84.272 243.735-113.912z" fill="#4AAEE7"/><path d="M1429.54 156.247c-5.65-5.597-12.18-10.012-19.42-13.087-4.53-1.891-9.15-3.468-13.92-4.572 2.94-1.34 5.8-2.917 8.67-4.73 5.41-3.468 10.18-7.883 14.16-12.928 3.98-5.045 7.24-10.879 9.63-17.186 2.39-6.306 3.58-13.48 3.58-21.127 0-23.65-8.03-41.465-23.87-52.738-15.6-11.116-38.12-16.792-67-16.792-4.14 0-8.83.158-14.08.395-5.26.236-10.51.63-15.52 1.103-5.09.473-9.87.946-14.88 1.498-4.22.473-7.48.788-9.79 1.025l-2.15.236v262.433l2.07.315c3.42.473 7.48 1.025 12.18 1.577 4.69.63 9.62 1.103 14.64 1.418 4.93.395 9.86.631 14.72.946 4.85.237 9.31.395 13.21.395 15.12 0 29.28-1.577 42.09-4.573 12.89-3.074 24.27-7.804 33.74-14.189 9.55-6.386 17.19-14.506 22.52-24.123 5.41-9.618 8.12-21.285 8.12-34.528 0-11.51-1.67-21.522-5.1-29.799-3.42-8.356-7.95-15.372-13.6-20.969zM1314.71 127V41.31c3.11-.395 6.85-.789 11.38-1.183 5.73-.473 11.7-.71 17.75-.71 19.81 0 34.45 4.178 43.52 12.456 9.15 8.356 13.53 18.447 13.53 30.744 0 13.323-4.22 23.808-12.89 32.085-8.51 8.12-22.44 12.298-41.3 12.298h-31.99zm96.68 55.734c3.43 6.464 5.18 14.584 5.18 24.202 0 9.538-1.99 17.579-5.97 23.886-3.98 6.306-9.39 11.509-16.08 15.372-6.68 3.863-14.56 6.701-23.31 8.356-14.88 2.759-30.87 2.838-45.12 1.971-4.61-.315-8.35-.631-11.38-.946V155.143h34.62c9.47 0 18.38.946 26.65 2.838 8.12 1.813 15.28 4.888 21.33 8.987 5.97 4.02 10.66 9.302 14.08 15.766zM1621.39 111.864c-6.61-7.568-14.88-13.48-24.59-17.658-9.71-4.178-20.85-6.307-33.26-6.307-14.8 0-27.69 2.602-38.36 7.805-10.66 5.202-19.57 12.455-26.41 21.521-6.77 9.065-11.94 19.708-15.28 31.69-3.34 11.983-4.94 24.832-4.94 38.391 0 14.033 1.83 27.119 5.34 38.944 3.58 11.903 9.23 22.309 16.79 30.902 7.64 8.592 17.42 15.451 29.2 20.181 11.7 4.809 25.86 7.173 42.09 7.173 11.22 0 21.73-.867 31.28-2.522 9.55-1.656 18.06-4.178 25.22-7.332l1.51-.709-.16-1.655c-.23-3.233-.71-6.701-1.51-10.722-.79-4.099-1.75-7.41-3.1-10.248l-.96-1.971-2.07.71c-7.32 2.601-14.96 4.651-22.67 6.228-7.72 1.497-16.16 2.286-25.07 2.286-21.96 0-38.59-5.597-49.41-16.555-10.51-10.642-16-27.355-16.32-49.822h131.7l.24-2.128c.23-2.444.39-5.361.55-8.751.16-3.39.16-6.149.16-8.356 0-12.14-1.67-23.571-5.01-33.977-3.34-10.484-8.36-19.629-14.96-27.118zm-111.72 55.734c2.15-16.87 7.56-30.113 16.15-39.494 8.91-9.697 21.65-14.663 37.72-14.663 8.75 0 16.31 1.576 22.44 4.73 6.21 3.153 11.3 7.41 15.2 12.455 3.9 5.124 6.84 11.194 8.67 18.053 1.67 6.227 2.63 12.534 2.79 18.919h-102.97zM1770.91 92.393l-1.75-.237c-1.83-.236-3.42-.394-4.86-.394h-3.82c-14.72 0-26.73 3.232-35.8 9.539-6.61 4.651-12.18 10.09-16.64 16.318-.08-2.523-.15-5.203-.23-7.962-.24-6.07-.64-11.115-1.12-15.451l-.24-1.892-1.91-.237c-1.99-.236-3.82-.394-5.57-.552-3.26-.236-7-.315-11.06 0-1.83.158-3.74.316-5.73.552l-2.07.237v187.305l1.99.315c1.6.237 3.74.473 6.45.552 2.7.158 4.69.158 5.89.158 1.51 0 3.5-.079 6.12-.158 2.63-.158 4.78-.315 6.29-.552l1.99-.315v-96.018c0-23.255 4.77-39.968 14.16-49.743 9.39-9.775 22.13-14.741 37.8-14.741h3.42c1.04 0 2.39.079 4.22.315l2.23.315.4-2.207c.71-3.784 1.11-7.647 1.11-11.588 0-3.627-.4-7.647-1.11-11.904l-.16-1.655zM1963.79 92.156h-1.83c-4.45 0-9.07.315-13.76.946-4.46.552-9.07 1.34-13.53 2.207-4.46.868-8.51 1.892-12.25 3.154-3.11 1.025-5.73 1.97-7.96 2.838-5.73-3.863-12.5-7.016-19.9-9.46-7.87-2.602-17.1-3.863-27.21-3.863-11.86 0-22.44 1.734-31.51 5.203-9.07 3.469-16.87 8.198-23.08 14.111-6.28 5.991-11.06 13.086-14.16 21.206-3.1 8.041-4.7 16.712-4.7 25.778 0 12.613 2.63 23.571 7.88 32.794 4.62 8.12 10.74 14.82 18.14 20.102-6.36 4.651-11.69 9.854-15.67 15.451-4.78 6.622-7.16 14.9-7.16 24.754 0 6.937 1.75 12.849 5.17 17.737 2.55 3.547 5.57 6.701 8.99 9.302-7.24 4.257-13.37 10.169-18.14 17.658-5.57 8.751-8.36 17.974-8.36 27.513 0 9.223 1.91 17.185 5.73 23.649 3.82 6.465 9.31 11.668 16.31 15.609 6.85 3.784 15.04 6.622 24.27 8.356 9.16 1.735 19.34 2.602 30.32 2.602 14.17 0 27.53-1.577 39.55-4.572 12.18-3.075 22.84-7.411 31.67-12.85 8.99-5.597 16.07-12.298 21.01-20.102 5.09-7.883 7.64-16.87 7.64-26.646 0-14.268-4.86-25.935-14.41-34.607-9.62-8.75-24.98-13.244-47.1-13.717l-47.19-.709c-6.29 0-11.46-.552-15.36-1.498-3.74-.946-6.68-2.286-8.75-3.863-1.91-1.497-3.18-3.153-3.74-4.808a19.66 19.66 0 01-.96-6.071c0-4.493 1.28-8.592 3.74-12.14 2.47-3.468 6.77-7.252 12.74-11.115 7.71 2.444 16.71 3.705 26.89 3.705 10.19 0 19.74-1.498 28.57-4.414 8.83-2.996 16.63-7.332 23.23-12.85 6.69-5.597 11.94-12.613 15.68-20.733 3.74-8.12 5.65-17.658 5.65-28.301 0-6.858-.96-13.48-2.87-19.55-1.43-4.73-3.42-9.302-5.88-13.638h32.06l.48-1.734c1.04-3.784 1.51-8.12 1.51-12.771 0-4.415-.47-8.593-1.51-12.456l-.24-2.207zm-150.63 224.356c0-10.09 3.26-18.21 9.63-24.359 6.21-5.912 14.4-8.908 24.51-8.908l46.15.71c13.77.236 23.71 2.207 29.6 5.754 5.57 3.39 8.28 9.066 8.28 17.422 0 9.697-5.81 17.974-17.75 25.069-12.17 7.252-29.44 10.958-51.32 10.958-6.93 0-13.53-.395-19.58-1.262-6.05-.788-11.38-2.286-15.83-4.257-4.38-2.049-7.64-4.73-10.11-8.198-2.39-3.311-3.58-7.647-3.58-12.929zm97.88-162.315c0 11.825-3.58 21.836-10.67 29.877-7 7.962-18.14 11.983-33.02 11.983-14.88 0-25.94-4.021-32.78-11.904-7.01-8.041-10.51-18.052-10.51-29.877s3.5-21.837 10.51-29.878c6.92-7.883 17.9-11.903 32.78-11.903 14.88 0 26.02 4.02 33.02 11.982 7.09 7.805 10.67 17.895 10.67 29.72zM2201.8 111.864c-6.61-7.568-14.88-13.48-24.59-17.658-9.71-4.178-20.85-6.307-33.26-6.307-14.8 0-27.69 2.602-38.36 7.805-10.66 5.202-19.57 12.455-26.41 21.521-6.77 9.065-11.94 19.708-15.28 31.69-3.34 11.904-4.94 24.832-4.94 38.391 0 14.033 1.83 27.119 5.34 38.944 3.66 11.982 9.31 22.309 16.79 30.902 7.55 8.592 17.42 15.451 29.2 20.181 11.7 4.809 25.86 7.173 42.09 7.173 11.22 0 21.73-.867 31.28-2.522 9.62-1.734 18.06-4.178 25.22-7.332l1.51-.709-.16-1.655c-.24-3.311-.79-6.938-1.51-10.722-.79-4.02-1.83-7.489-3.1-10.248l-.88-1.971-2.07.71c-7.32 2.601-14.96 4.651-22.67 6.228-7.72 1.497-16.16 2.286-25.07 2.286-21.96 0-38.59-5.597-49.42-16.555-10.5-10.642-15.99-27.355-16.31-49.822h131.78l.23-2.128c.24-2.444.4-5.361.56-8.751.16-3.39.16-6.149.16-8.356 0-12.14-1.67-23.571-5.01-33.977-3.5-10.484-8.52-19.629-15.12-27.118zm-111.64 55.734c2.15-16.87 7.56-30.113 16.15-39.494 8.91-9.697 21.64-14.663 37.72-14.663 8.75 0 16.31 1.576 22.44 4.73 6.2 3.232 11.3 7.41 15.12 12.455 3.9 5.124 6.84 11.194 8.67 18.053 1.67 6.227 2.63 12.613 2.79 18.919h-102.89zM2349.33 87.9c-8.2 0-15.92 1.182-22.92 3.547-7 2.365-13.21 5.439-18.54 9.065-5.33 3.627-10.03 7.805-14.09 12.456-1.91 2.207-3.74 4.414-5.33 6.701-.08-2.838-.16-5.755-.24-8.987-.23-6.622-.63-11.983-1.11-16.319l-.24-1.892-1.91-.236c-1.99-.237-3.82-.394-5.57-.552-3.26-.236-7-.315-11.06 0-1.83.158-3.74.315-5.73.552l-2.07.236v187.306l1.99.315c1.59.236 3.74.473 6.45.552 2.7.157 4.69.157 5.89.157 1.51 0 3.5-.078 6.12-.157 2.63-.158 4.78-.316 6.29-.552l1.99-.315v-92.549c0-11.589 1.51-22.152 4.61-31.218 3.03-8.987 7.24-16.633 12.42-22.782 5.17-6.07 11.46-10.722 18.54-13.954 7.16-3.232 14.88-4.808 22.92-4.808 12.09 0 20.92 4.02 26.89 12.297 6.05 8.435 9.15 22.704 9.15 42.412v110.523l1.99.315c1.59.237 3.74.473 6.45.552 2.7.158 4.69.158 5.89.158 1.51 0 3.5-.079 6.12-.158 2.63-.158 4.78-.315 6.29-.552l1.99-.315V162.08c0-23.176-5.01-41.465-15.04-54.394-9.95-13.165-26.18-19.787-48.14-19.787zM2710.59 49.271c-11.22-11.588-25.54-20.575-42.57-26.803-17.03-6.148-37.24-9.302-60.08-9.302-4.61 0-9.71.158-15.36.394-5.65.237-11.14.552-16.71.868-5.57.394-10.9.788-15.83 1.261-5.02.473-9.23.946-12.57 1.498l-2.07.315v262.353l1.99.316c3.18.473 7.08 1.025 11.85 1.576 4.78.631 9.95 1.104 15.36 1.419 5.49.394 11.06.71 16.95.946 5.81.237 11.3.395 16.39.395 90.16 0 135.83-45.881 135.83-136.38 0-20.733-2.7-39.653-8.11-56.207-5.49-16.792-13.93-31.14-25.07-42.649zm2.23 97.673c0 20.97-2.55 38.628-7.48 52.581-4.93 13.796-12.02 25.069-21.09 33.346-9.07 8.357-20.29 14.269-33.26 17.817-13.21 3.547-28.17 5.281-44.56 5.281-6.29 0-12.41-.236-18.14-.709-4.94-.394-9.39-.789-13.21-1.183V43.044c3.66-.552 8.03-.867 13.45-1.104 6.36-.236 12.33-.394 17.82-.394 33.34 0 59.68 8.593 78.38 25.463 18.62 16.79 28.09 43.751 28.09 79.935zM2841.81 87.9c-9.71 0-19.34.63-28.65 1.97-9.23 1.34-17.19 2.996-23.55 4.888l-1.67.551v1.735c0 3.705.39 7.725 1.27 11.982.87 4.178 1.99 7.568 3.34 10.012l.96 1.655 1.83-.551c6.12-1.892 13.21-3.469 21.08-4.809 7.8-1.262 16.63-1.971 26.1-1.971 14.01 0 24.67 3.469 31.67 10.248 7.01 6.859 10.59 17.895 10.59 32.952v8.514c-3.66-.394-7.96-.867-12.97-1.34-6.45-.631-14.09-.867-22.76-.867-11.3 0-21.8 1.34-31.27 4.02-9.55 2.68-17.91 6.78-24.75 12.061-6.92 5.361-12.41 12.062-16.23 19.866-3.9 7.804-5.89 16.791-5.89 26.724 0 20.654 6.84 35.79 20.45 45.013 13.29 9.066 31.59 13.717 54.43 13.717 10.98 0 22.67-.867 34.85-2.523 12.09-1.655 22.52-3.389 30.95-5.045l1.91-.394V153.33c0-22.388-5.97-39.101-17.82-49.664-11.78-10.485-29.84-15.767-53.87-15.767zm-11.94 169.725c-5.49-.789-10.58-2.365-15.2-4.809-4.45-2.286-8.11-5.755-10.9-10.091-2.78-4.414-4.14-10.405-4.14-17.816 0-11.746 4.54-20.496 13.85-26.803 9.47-6.385 23.16-9.617 40.74-9.617 5.41 0 11.22.315 17.35.867 5.17.473 9.55.946 13.29 1.34v64.564c-5.57 1.025-11.3 1.813-17.11 2.444-11.3 1.34-24.91 1.813-37.88-.079zM2988.54 11.353c-1.51-.236-3.66-.394-6.44-.552-2.71-.079-4.7-.157-5.89-.157-1.44 0-3.5.079-6.13.157-2.63.158-4.78.316-6.29.552l-1.99.316v268.029l1.99.315c1.59.237 3.66.473 6.29.552 2.63.158 4.61.158 6.13.158 1.27 0 3.18-.079 5.89-.158 2.7-.158 4.93-.315 6.44-.552l1.99-.315V11.668l-1.99-.315zM566.086 95.704c.955-.158 1.83-.237 2.864-.316.955-.079 1.99-.079 2.945-.079.954 0 1.989 0 2.944.08.955.078 1.91.157 2.705.315v36.026a31.57 31.57 0 01-5.252 1.576c-1.909.473-3.899.789-5.968 1.025-2.068.237-4.058.394-6.127.552a75.994 75.994 0 01-5.809.237c-6.047 0-11.538-.868-16.392-2.602-4.854-1.734-8.992-4.178-12.334-7.41-3.342-3.232-5.888-7.174-7.718-11.825-1.751-4.651-2.706-9.933-2.706-15.766 0-5.834.955-11.194 2.706-15.924 1.83-4.73 4.456-8.83 7.798-12.14 3.342-3.39 7.4-5.913 12.095-7.726 4.695-1.813 9.867-2.76 15.597-2.76 4.297 0 8.116.237 11.299.79 3.183.472 6.048 1.182 8.673 2.128a18.232 18.232 0 01-.954 4.335c-.478 1.34-1.114 2.76-1.751 4.257a74.2 74.2 0 00-6.923-1.655c-2.467-.473-5.57-.71-9.31-.71-4.058 0-7.719.631-10.981 1.971-3.342 1.261-6.127 3.232-8.435 5.676-2.308 2.523-4.138 5.597-5.411 9.223-1.273 3.627-1.91 7.884-1.91 12.535 0 4.887.637 9.065 1.99 12.534 1.352 3.547 3.183 6.464 5.649 8.829a22.852 22.852 0 008.594 5.203c3.342 1.104 7.003 1.656 10.981 1.656 2.467 0 4.536-.079 6.366-.395a45.715 45.715 0 004.695-.867V95.704h.08zM615.66 60.071h45.039c.238 1.34.318 2.838.318 4.494 0 .788 0 1.576-.08 2.365 0 .788-.159 1.576-.318 2.286h-33.421v21.127h26.657c.16.71.239 1.419.319 2.207.079.789.079 1.577.079 2.286 0 .789 0 1.577-.079 2.365-.08.789-.159 1.577-.319 2.287h-26.657v25.226h34.296c.239 1.34.319 2.838.319 4.493 0 .789 0 1.577-.08 2.365 0 .788-.159 1.577-.318 2.286h-45.914V60.071h.159zM698.337 60.071c.875-.157 1.989-.236 3.103-.315 1.194-.079 2.308-.079 3.342-.079 1.035 0 2.228 0 3.501.08 1.274.078 2.308.157 3.104.314l21.166 46.196 21.326-46.196c.716-.157 1.671-.236 2.865-.315 1.114-.079 2.228-.079 3.342-.079.955 0 2.069 0 3.342.08 1.193.078 2.228.157 3.103.314l3.899 73.787c-.955.158-1.83.237-2.785.316-.955.078-1.91.078-2.944.078-1.035 0-1.989 0-2.944-.078-.955-.079-1.83-.158-2.706-.316l-2.626-57.39-20.052 42.097c-1.512.236-3.104.315-4.695.315-1.432 0-2.865-.079-4.297-.315l-19.416-42.412-2.626 57.705c-.875.158-1.671.237-2.626.316-.875.078-1.75.078-2.626.078-.955 0-1.909 0-2.864-.078-.876-.079-1.751-.158-2.626-.316l3.74-73.787zM808.467 60.071h45.038c.239 1.34.319 2.838.319 4.494 0 .788 0 1.576-.08 2.365 0 .788-.159 1.576-.318 2.286h-33.421v21.127h26.657c.159.71.239 1.419.318 2.207.08.789.08 1.577.08 2.286 0 .789 0 1.577-.08 2.365-.079.789-.159 1.577-.318 2.287h-26.657v25.226h34.296c.239 1.34.318 2.838.318 4.493 0 .789 0 1.577-.079 2.365 0 .788-.159 1.577-.319 2.286h-45.913V60.071h.159zM888.915 60.071h45.039c.238 1.34.318 2.838.318 4.494 0 .788 0 1.576-.08 2.365 0 .788-.159 1.576-.318 2.286h-33.421v21.127h26.657c.159.71.239 1.419.319 2.207.079.789.079 1.577.079 2.286 0 .789 0 1.577-.079 2.365-.08.789-.16 1.577-.319 2.287h-26.657v25.226h34.296c.239 1.34.319 2.838.319 4.493 0 .789 0 1.577-.08 2.365 0 .788-.159 1.577-.318 2.286h-45.914V60.071h.159zM969.364 60.071c.796-.157 1.75-.236 2.705-.315.955-.079 1.83-.079 2.706-.079.796 0 1.75 0 2.705.08.955.078 1.83.157 2.706.314l35.644 55.419V60.071c.96-.157 1.83-.236 2.87-.315.95-.079 1.99-.079 2.94-.079.88 0 1.67 0 2.63.08.87.078 1.75.157 2.63.314v73.787c-.88.158-1.76.237-2.71.316-.95.078-1.83.078-2.71.078-.87 0-1.75 0-2.7-.078-.96-.079-1.83-.158-2.71-.316l-35.805-55.103v55.103c-.795.158-1.75.237-2.705.316-.955.078-1.91.078-2.785.078-.955 0-1.99 0-2.944-.078-.955-.079-1.831-.158-2.547-.316V60.071h.08zM1080.37 69.216h-21.33c-.16-.71-.24-1.419-.31-2.286-.08-.789-.08-1.577-.08-2.365 0-.788 0-1.498.08-2.286.07-.789.15-1.498.31-2.208h54.27c.16.71.24 1.42.32 2.129.08.788.08 1.498.08 2.286s0 1.577-.08 2.444-.16 1.655-.32 2.286h-21.32v64.642c-1.75.237-3.66.316-5.73.316-2.15 0-4.14-.079-5.97-.316V69.216h.08zM1145.54 60.071h45.04c.24 1.34.32 2.838.32 4.494 0 .788 0 1.576-.08 2.365 0 .788-.16 1.576-.32 2.286h-33.42v21.127h26.66c.15.71.23 1.419.31 2.207.08.789.08 1.577.08 2.286 0 .789 0 1.577-.08 2.365-.08.789-.16 1.577-.31 2.287h-26.66v25.226h34.29c.24 1.34.32 2.838.32 4.493 0 .789 0 1.577-.08 2.365 0 .788-.16 1.577-.32 2.286h-45.91V60.071h.16z" fill="#1D1D1B"/></svg>