<svg width="171" height="50" fill="none" xmlns="http://www.w3.org/2000/svg"><path fill="#fff" d="M.832.5h169v49h-169z"/><path stroke="#000" d="M.832.5h169v49h-169z"/><path d="M85.508 27.299c-2.942 0-5.34 2.235-5.34 5.316 0 3.061 2.398 5.316 5.34 5.316 2.942 0 5.34-2.255 5.34-5.316 0-3.081-2.398-5.316-5.34-5.316zm0 8.539c-1.612 0-3.003-1.33-3.003-3.223 0-1.914 1.391-3.222 3.003-3.222 1.613 0 3.002 1.308 3.002 3.222 0 1.893-1.39 3.223-3.002 3.223zm-11.65-8.54c-2.942 0-5.34 2.236-5.34 5.317 0 3.061 2.398 5.316 5.34 5.316 2.942 0 5.34-2.255 5.34-5.316 0-3.081-2.398-5.316-5.34-5.316zm0 8.54c-1.613 0-3.002-1.33-3.002-3.223 0-1.914 1.39-3.222 3.002-3.222 1.612 0 3.002 1.308 3.002 3.222.001 1.893-1.39 3.223-3.002 3.223zM60 28.93v2.255h5.402c-.162 1.269-.584 2.195-1.23 2.84-.785.785-2.015 1.651-4.171 1.651-3.325 0-5.925-2.678-5.925-6 0-3.323 2.6-6.002 5.925-6.002 1.793 0 3.103.705 4.07 1.611l1.592-1.591c-1.35-1.289-3.143-2.276-5.662-2.276-4.555 0-8.384 3.705-8.384 8.256s3.83 8.256 8.384 8.256c2.458 0 4.313-.805 5.764-2.316 1.49-1.49 1.955-3.585 1.955-5.276 0-.524-.04-1.008-.122-1.41h-7.597v.002zm56.675 1.751c-.443-1.188-1.794-3.383-4.554-3.383-2.741 0-5.018 2.155-5.018 5.316 0 2.98 2.257 5.316 5.28 5.316 2.438 0 3.849-1.49 4.433-2.356l-1.813-1.209c-.604.886-1.431 1.47-2.62 1.47s-2.035-.544-2.579-1.611l7.114-2.94-.243-.603zm-7.255 1.773c-.06-2.054 1.592-3.101 2.781-3.101.927 0 1.712.462 1.975 1.127l-4.756 1.974zm-5.784 5.155h2.338V21.983h-2.338v15.626zm-3.829-9.123h-.08c-.524-.623-1.531-1.188-2.8-1.188-2.661 0-5.1 2.336-5.1 5.336 0 2.98 2.439 5.296 5.1 5.296 1.269 0 2.276-.564 2.8-1.209h.08v.765c0 2.034-1.088 3.122-2.842 3.122-1.43 0-2.318-1.028-2.68-1.893l-2.036.846c.585 1.41 2.137 3.142 4.716 3.142 2.74 0 5.059-1.612 5.059-5.538V27.62h-2.217v.866zm-2.68 7.352c-1.612 0-2.961-1.35-2.961-3.203 0-1.872 1.35-3.242 2.962-3.242 1.592 0 2.84 1.368 2.84 3.242 0 1.853-1.248 3.203-2.84 3.203zm30.498-13.855h-5.592v15.626h2.332v-5.92h3.259c2.587 0 5.13-1.871 5.13-4.853 0-2.98-2.542-4.853-5.129-4.853zm.06 7.53h-3.32v-5.355h3.32c1.745 0 2.736 1.443 2.736 2.678 0 1.21-.991 2.678-2.736 2.678zm14.425-2.243c-1.69 0-3.44.744-4.164 2.393l2.073.865c.443-.865 1.267-1.147 2.133-1.147 1.207 0 2.434.724 2.454 2.01v.162c-.423-.242-1.329-.604-2.434-.604-2.233 0-4.507 1.226-4.507 3.519 0 2.09 1.831 3.437 3.882 3.437 1.57 0 2.435-.704 2.978-1.527h.08v1.206h2.252v-5.991c0-2.775-2.071-4.323-4.747-4.323zm-.282 8.564c-.765 0-1.832-.383-1.832-1.326 0-1.207 1.329-1.67 2.475-1.67 1.025 0 1.508.222 2.132.523a2.826 2.826 0 01-2.775 2.473zm13.238-8.223l-2.676 6.775h-.08l-2.776-6.775h-2.514l4.164 9.47-2.374 5.267h2.434l6.418-14.737h-2.596zm-21.024 9.998h2.334V21.983h-2.334v15.626z" fill="#222"/><path fill-rule="evenodd" clip-rule="evenodd" d="M55.041 16.469c.994 0 1.947-.392 2.65-1.088h-.013a3.825 3.825 0 000-5.295A3.752 3.752 0 0055.035 9c-.992 0-1.943.39-2.643 1.086a3.837 3.837 0 000 5.295 3.764 3.764 0 002.649 1.088zm0-.871a2.77 2.77 0 01-1.963-.813 3.007 3.007 0 010-4.102 2.771 2.771 0 011.962-.813c.738 0 1.445.293 1.963.813a3.043 3.043 0 010 4.102 2.77 2.77 0 01-1.963.813z" fill="#222"/><path d="M57.69 15.381l.083.083.202-.2h-.285v.117zm-.012 0l-.084-.08-.19.197h.274v-.117zm0-5.295l.085-.08-.002-.003-.083.083zm-5.286 0l-.083-.083-.002.003.085.08zm0 5.295l-.085.081.002.002.083-.083zm.685-.596l-.085.08.002.003.084-.083zm0-4.102l-.083-.083-.002.003.086.08zm3.926 0l.087-.08-.004-.003-.083.083zm0 4.102l.083.083.004-.004-.087-.079zm.605.513a3.647 3.647 0 01-2.567 1.053v.235a3.881 3.881 0 002.732-1.121l-.165-.167zm.07.2h.012v-.234h-.012v.234zm-.084-5.33a3.708 3.708 0 010 5.132l.169.162a3.942 3.942 0 000-5.457l-.17.162zm-2.559-1.05c.961 0 1.882.378 2.56 1.051l.166-.166a3.869 3.869 0 00-2.726-1.12v.234zm-2.56 1.051a3.634 3.634 0 012.56-1.052v-.234a3.869 3.869 0 00-2.726 1.12l.165.166zm.002 5.131a3.72 3.72 0 010-5.133l-.17-.161a3.954 3.954 0 000 5.456l.17-.162zm2.564 1.051c-.963 0-1.886-.379-2.567-1.053l-.165.166a3.881 3.881 0 002.732 1.122v-.235zm-2.047-1.483c.54.542 1.278.847 2.046.847v-.234c-.706 0-1.383-.28-1.88-.779l-.166.166zm-.002-4.265a3.125 3.125 0 000 4.262l.171-.16a2.89 2.89 0 010-3.943l-.171-.159zm2.048-.85c-.768 0-1.505.305-2.046.847l.166.165a2.654 2.654 0 011.88-.778v-.234zm2.046.847a2.888 2.888 0 00-2.046-.847v.234c.707 0 1.384.28 1.88.778l.166-.165zm.004 4.264a3.16 3.16 0 000-4.26l-.174.158a2.926 2.926 0 010 3.944l.174.158zm-2.05.851c.769 0 1.506-.305 2.046-.847l-.166-.166a2.654 2.654 0 01-1.88.779v.234z" fill="#222"/><path d="M60.05 16.311V9.156h1.133l3.468 5.569V9.156h.927v7.155h-.927l-3.613-5.832v5.832h-.987zM69.743 16.311h-.927v-6.273h-2.023v-.882h4.961v.882h-2.01v6.273z" fill="#222" stroke="#222" stroke-width=".234"/><path fill-rule="evenodd" clip-rule="evenodd" d="M72.934 9.155v7.156h2.203a3.633 3.633 0 002.662-.99 3.464 3.464 0 00.999-2.588c.043-.962-.32-1.9-1-2.588a3.633 3.633 0 00-2.66-.99h-2.204zm2.204 6.273H73.86v-5.39h1.313a2.53 2.53 0 011.993.72c.525.52.791 1.243.728 1.975.03.74-.25 1.46-.77 1.992a2.786 2.786 0 01-1.987.703z" fill="#222"/><path d="M72.934 16.31h-.118v.118h.118v-.117zm0-7.154v-.118h-.118v.117h.118zm2.203 7.155l.005-.117h-.005v.117zm2.662-.99l.08.085.003-.003-.084-.082zm.999-2.588l-.118-.005v.01l.118-.005zm-1-2.588l.084-.082-.003-.003-.08.085zm-2.66-.99v.118h.004l-.005-.117zm-1.277 6.273h-.117v.117h.117v-.117zm1.277 0l.005-.117h-.005v.117zm-1.277-5.39V9.92h-.117v.117h.117zm1.313 0v.117h.01l-.01-.117zm1.993.72l.083-.082-.083.083zm.728 1.975l-.116-.01-.001.007v.008l.117-.005zm-.77 1.992l.078.087.005-.005-.083-.082zM73.05 16.31V9.156h-.235v7.155h.235zm2.086-.117h-2.203v.234h2.203v-.234zm2.58-.958c-.69.654-1.62 1-2.575.958l-.01.234a3.75 3.75 0 002.747-1.022l-.161-.17zm.964-2.498a3.346 3.346 0 01-.966 2.5l.167.165a3.58 3.58 0 001.033-2.675l-.234.01zm-.966-2.51a3.346 3.346 0 01.966 2.5l.234.01a3.58 3.58 0 00-1.033-2.675l-.167.165zm-2.573-.955a3.515 3.515 0 012.576.957l.161-.17a3.75 3.75 0 00-2.747-1.022l.01.235zm-2.208 0h2.203v-.235h-2.203v.235zm.927 6.272h1.277v-.234H73.86v.234zm-.117-5.507v5.39h.234v-5.39h-.234zm1.43-.117H73.86v.234h1.313v-.234zm2.076.755a2.648 2.648 0 00-2.086-.755l.02.234c.705-.06 1.4.192 1.9.687l.166-.166zm.762 2.067a2.596 2.596 0 00-.762-2.067l-.165.166c.5.495.754 1.184.694 1.88l.233.021zm-.804 2.064a2.81 2.81 0 00.805-2.079l-.235.01a2.576 2.576 0 01-.737 1.905l.167.164zm-2.076.738a2.903 2.903 0 002.07-.733l-.155-.175a2.67 2.67 0 01-1.904.674l-.01.234z" fill="#222"/><path d="M84.328 10.038h-3.3v2.266h2.975v.859H81.03v2.266h3.3v.882h-4.227V9.156h4.226v.882zM91.144 9.156l-2.686 3.076 2.854 4.079h-1.204l-2.409-3.34-1.12 1.277v2.063h-.927V9.156h.928v3.685l3.36-3.685h1.204zM94.672 16.311V9.156h.94v3.065h3.612V9.156h.927v7.155h-.927v-3.232H95.61v3.232h-.94zM106.015 10.038h-3.287v2.266h2.974v.859h-2.974v2.266h3.287v.882h-4.214V9.156h4.214v.882zM109.942 16.311h-.939v-6.273h-2.011v-.882h4.961v.882h-2.011v6.273z" fill="#222" stroke="#222" stroke-width=".234"/><path fill-rule="evenodd" clip-rule="evenodd" d="M118.707 16.469c.994 0 1.947-.392 2.649-1.088h-.012a3.825 3.825 0 000-5.295A3.75 3.75 0 00118.701 9a3.75 3.75 0 00-2.643 1.086 3.802 3.802 0 000 5.295 3.762 3.762 0 002.649 1.088zm0-.871a2.77 2.77 0 01-1.963-.813 3.006 3.006 0 010-4.102 2.77 2.77 0 011.963-.813 2.77 2.77 0 011.962.813 3.041 3.041 0 010 4.102 2.77 2.77 0 01-1.962.813z" fill="#222"/><path d="M121.356 15.381l.083.083.202-.2h-.285v.117zm-.012 0l-.084-.08-.19.197h.274v-.117zm0-5.295l.085-.08-.002-.003-.083.083zm-5.286 0l-.083-.083-.001.002.084.081zm0 5.295l-.084.082.001.002.083-.084zm.686-.596l-.086.08.003.003.083-.083zm0-4.102l-.083-.083-.003.003.086.08zm3.925 0l.087-.08-.004-.003-.083.083zm0 4.102l.083.083.004-.004-.087-.079zm.605.513a3.648 3.648 0 01-2.567 1.053v.235a3.882 3.882 0 002.732-1.121l-.165-.167zm.07.2h.012v-.234h-.012v.234zm-.084-5.33a3.71 3.71 0 010 5.132l.169.162a3.943 3.943 0 000-5.457l-.169.162zm-2.559-1.05c.961 0 1.882.378 2.561 1.051l.165-.166a3.87 3.87 0 00-2.726-1.12v.234zm-2.561 1.051a3.636 3.636 0 012.561-1.052v-.234a3.87 3.87 0 00-2.726 1.12l.165.166zm.002 5.13a3.685 3.685 0 010-5.131l-.168-.163a3.917 3.917 0 000 5.458l.168-.163zm2.565 1.052c-.963 0-1.886-.379-2.567-1.053l-.165.166a3.884 3.884 0 002.732 1.122v-.235zm-2.046-1.483c.54.542 1.277.847 2.046.847v-.234c-.707 0-1.384-.28-1.88-.779l-.166.166zm-.003-4.265a3.125 3.125 0 000 4.262l.172-.16a2.89 2.89 0 010-3.943l-.172-.159zm2.049-.85c-.769 0-1.506.305-2.046.847l.166.165a2.654 2.654 0 011.88-.778v-.234zm2.045.847a2.887 2.887 0 00-2.045-.847v.234c.706 0 1.383.28 1.879.778l.166-.165zm.004 4.264a3.16 3.16 0 000-4.26l-.173.158a2.927 2.927 0 010 3.944l.173.158zm-2.049.851c.768 0 1.505-.305 2.045-.847l-.166-.166a2.653 2.653 0 01-1.879.779v.234z" fill="#222"/><path fill-rule="evenodd" clip-rule="evenodd" d="M123.715 16.311h.927l-.06-2.897h1.541c.59.01 1.16-.209 1.59-.609a2.08 2.08 0 00.664-1.52 2.08 2.08 0 00-.664-1.52c-.43-.4-1-.619-1.59-.609h-2.408v7.155zm2.481-3.78h-1.553v-2.493h1.553c.355-.016.698.123.939.381a1.185 1.185 0 010 1.73 1.209 1.209 0 01-.939.381z" fill="#222"/><path d="M124.642 16.311v.118h.12l-.003-.12-.117.002zm-.927 0h-.117v.118h.117v-.118zm.867-2.897v-.118h-.12l.003.12.117-.002zm1.541 0l.002-.118h-.002v.118zm1.59-.609l.08.086-.08-.086zm0-3.04l.08-.086-.08.085zm-1.59-.609v.117h.002l-.002-.117zm-2.408 0V9.04h-.117v.117h.117zm.928 3.374h-.118v.118h.118v-.118zm1.553 0l.005-.117h-.005v.117zm-1.553-2.492V9.92h-.118v.117h.118zm1.553 0v.117h.005l-.005-.117zm.939.381l-.086.08.006.006.08-.086zm0 1.73l-.08-.086-.005.006.085.08zm-2.493 4.045h-.927v.235h.927v-.235zm-.177-2.778l.06 2.898.234-.005-.06-2.898-.234.005zm1.658-.12h-1.541v.235h1.541v-.235zm1.51-.576c-.407.379-.948.586-1.508.576l-.004.235c.62.01 1.22-.22 1.672-.64l-.16-.171zm.626-1.435a1.96 1.96 0 01-.626 1.434l.16.172c.447-.416.701-.998.701-1.606h-.235zm-.626-1.435c.4.372.626.892.626 1.435h.235c0-.609-.254-1.19-.701-1.606l-.16.171zm-1.508-.577c.56-.01 1.101.198 1.508.577l.16-.171a2.395 2.395 0 00-1.672-.64l.004.234zm-2.41 0h2.408V9.04h-2.408v.234zm.117 7.038V9.156h-.234v7.155h.234zm.811-3.663h1.553v-.235h-1.553v.235zm-.118-2.61v2.492h.235v-2.492h-.235zm1.671-.117h-1.553v.234h1.553v-.234zm1.025.418a1.328 1.328 0 00-1.03-.418l.01.234c.321-.015.631.112.849.345l.171-.16zm.406.945c0-.36-.149-.703-.411-.95l-.161.17c.216.204.338.486.338.78h.234zm-.411.95c.262-.247.411-.59.411-.95h-.234c0 .294-.122.576-.338.78l.161.17zm-1.025.413c.388.018.765-.135 1.03-.418l-.171-.16c-.218.232-.528.359-.849.344l-.01.234z" fill="#222"/><path d="M13.325 9.503c-.364.385-.579.982-.579 1.756v27.645c0 .775.215 1.371.58 1.756l.092.09 15.497-15.486v-.365L13.418 9.41l-.093.092z" fill="url(#prefix__paint0_linear_78_7353)"/><path d="M34.083 30.429l-5.165-5.164V24.9l5.166-5.162.116.066 6.12 3.475c1.75.992 1.75 2.616 0 3.61l-6.12 3.475-.117.065z" fill="url(#prefix__paint1_linear_78_7353)"/><path d="M34.197 30.361l-5.282-5.28-15.59 15.58c.576.61 1.527.684 2.599.075l18.273-10.375z" fill="url(#prefix__paint2_linear_78_7353)"/><path d="M34.196 19.802L15.924 9.427c-1.072-.61-2.023-.533-2.6.076l15.59 15.579 5.282-5.28z" fill="url(#prefix__paint3_linear_78_7353)"/><path opacity=".2" d="M34.081 30.245L15.925 40.554c-1.016.576-1.924.539-2.507.014l-.094.093.093.09c.583.526 1.49.564 2.507-.013l18.272-10.375-.115-.118z" fill="#222"/><path opacity=".12" d="M13.325 40.478c-.364-.385-.579-.983-.579-1.757v.183c0 .774.215 1.371.579 1.756l.094-.094-.094-.088zM40.319 26.704l-6.237 3.541.116.116 6.12-3.475c.875-.496 1.312-1.15 1.312-1.803-.074.59-.52 1.17-1.311 1.62z" fill="#222"/><path opacity=".25" d="M15.925 9.609l24.393 13.85c.793.45 1.237 1.03 1.31 1.622 0-.653-.436-1.308-1.31-1.805L15.925 9.426c-1.75-.992-3.179-.168-3.179 1.833v.184c0-2.002 1.431-2.827 3.179-1.834z" fill="#fff"/><defs><linearGradient id="prefix__paint0_linear_78_7353" x1="27.541" y1="10.967" x2="6.563" y2="31.96" gradientUnits="userSpaceOnUse"><stop stop-color="#00A0FF"/><stop offset=".007" stop-color="#00A1FF"/><stop offset=".26" stop-color="#00BEFF"/><stop offset=".512" stop-color="#00D2FF"/><stop offset=".76" stop-color="#00DFFF"/><stop offset="1" stop-color="#00E3FF"/></linearGradient><linearGradient id="prefix__paint1_linear_78_7353" x1="42.597" y1="25.082" x2="12.329" y2="25.082" gradientUnits="userSpaceOnUse"><stop stop-color="#FFE000"/><stop offset=".409" stop-color="#FFBD00"/><stop offset=".775" stop-color="orange"/><stop offset="1" stop-color="#FF9C00"/></linearGradient><linearGradient id="prefix__paint2_linear_78_7353" x1="31.327" y1="27.95" x2="2.879" y2="56.418" gradientUnits="userSpaceOnUse"><stop stop-color="#FF3A44"/><stop offset="1" stop-color="#C31162"/></linearGradient><linearGradient id="prefix__paint3_linear_78_7353" x1="9.398" y1=".301" x2="22.101" y2="13.013" gradientUnits="userSpaceOnUse"><stop stop-color="#32A071"/><stop offset=".069" stop-color="#2DA771"/><stop offset=".476" stop-color="#15CF74"/><stop offset=".801" stop-color="#06E775"/><stop offset="1" stop-color="#00F076"/></linearGradient></defs></svg>