<svg width="171" height="50" fill="none" xmlns="http://www.w3.org/2000/svg"><path fill="#fff" d="M.832.5h169v49h-169z"/><path stroke="#222" d="M.832.5h169v49h-169z"/><path d="M40.659 25.274c.03-2.133 1.234-4.103 3.192-5.22-1.24-1.645-3.244-2.65-5.406-2.713-2.274-.222-4.48 1.263-5.638 1.263-1.182 0-2.966-1.241-4.888-1.205-2.528.076-4.828 1.378-6.058 3.43-2.62 4.21-.666 10.397 1.844 13.8 1.255 1.667 2.722 3.528 4.642 3.462 1.879-.072 2.58-1.112 4.848-1.112 2.247 0 2.905 1.112 4.864 1.07 2.016-.03 3.286-1.674 4.497-3.356a13.405 13.405 0 002.057-3.888c-2.394-.94-3.951-3.118-3.954-5.531zM36.96 15.103c1.099-1.225 1.64-2.8 1.51-4.389-1.68.164-3.231.91-4.345 2.087-1.1 1.162-1.657 2.682-1.55 4.226 1.703.017 3.318-.693 4.385-1.924z" fill="#222"/><path fill-rule="evenodd" clip-rule="evenodd" d="M57.033 34.041h6.165l1.48 4.058h2.655l-5.84-15.014h-2.712l-5.84 15.014h2.612l1.48-4.058zm5.526-1.872h-4.887l2.41-6.586h.068l2.409 6.586zM75.023 38.214c2.96 0 4.92-2.186 4.92-5.588 0-3.392-1.972-5.588-4.965-5.588-1.54-.046-2.982.697-3.755 1.935h-.044v-1.82h-2.343V41.72h2.42v-5.422h.056c.74 1.246 2.18 1.99 3.71 1.916zm-.683-9.26c1.882 0 3.116 1.456 3.116 3.673 0 2.236-1.234 3.682-3.116 3.682-1.85 0-3.094-1.477-3.094-3.682 0-2.186 1.244-3.674 3.094-3.674zM88.003 38.214c2.96 0 4.922-2.186 4.922-5.588 0-3.392-1.974-5.588-4.966-5.588-1.54-.046-2.983.697-3.755 1.935h-.045v-1.82h-2.343V41.72h2.42v-5.422h.057c.74 1.246 2.18 1.99 3.71 1.916zm-.682-9.26c1.882 0 3.116 1.456 3.116 3.673 0 2.236-1.234 3.682-3.116 3.682-1.85 0-3.093-1.477-3.093-3.682 0-2.186 1.244-3.674 3.093-3.674z" fill="#222"/><path d="M101.501 33.917c.18 1.489 1.738 2.466 3.867 2.466 2.04 0 3.508-.977 3.508-2.32 0-1.165-.885-1.863-2.982-2.341l-2.096-.47c-2.97-.665-4.348-1.954-4.348-4.047 0-2.59 2.432-4.37 5.884-4.37 3.419 0 5.761 1.78 5.84 4.37h-2.443c-.146-1.498-1.481-2.403-3.431-2.403-1.949 0-3.284.916-3.284 2.247 0 1.062.853 1.686 2.937 2.165l1.782.406c3.319.728 4.696 1.966 4.696 4.162 0 2.809-2.409 4.568-6.243 4.568-3.586 0-6.008-1.718-6.165-4.434h2.478zM116.658 24.563v2.59h2.243v1.78h-2.243v6.034c0 .938.449 1.375 1.435 1.375.266-.005.532-.022.796-.053v1.77a7.145 7.145 0 01-1.344.103c-2.388 0-3.319-.832-3.319-2.955v-6.275h-1.714v-1.779h1.714v-2.59h2.432z" fill="#222"/><path fill-rule="evenodd" clip-rule="evenodd" d="M125.788 27.019c-3.408 0-5.593 2.164-5.593 5.608 0 3.454 2.164 5.608 5.593 5.608 3.43 0 5.594-2.154 5.594-5.608 0-3.444-2.175-5.608-5.594-5.608zm0 1.851c1.961 0 3.128 1.395 3.128 3.757 0 2.372-1.167 3.756-3.128 3.756S122.66 35 122.66 32.627c0-2.352 1.167-3.757 3.128-3.757z" fill="#222"/><path d="M133.379 27.154h2.308v1.863h.056c.322-1.2 1.506-2.025 2.837-1.978a4 4 0 01.829.084v2.102a3.623 3.623 0 00-1.087-.136 2.538 2.538 0 00-1.886.72 2.168 2.168 0 00-.637 1.798V38.1h-2.42V27.154z" fill="#222"/><path fill-rule="evenodd" clip-rule="evenodd" d="M145.493 38.236c2.667 0 4.752-1.364 5.078-3.351h-2.299c-.441 1.015-1.548 1.642-2.723 1.54a3.196 3.196 0 01-2.34-.886 2.73 2.73 0 01-.832-2.215v-.136h8.329v-.77c0-3.319-2.052-5.4-5.315-5.4-3.317 0-5.457 2.227-5.457 5.661 0 3.423 2.129 5.556 5.559 5.556zm2.791-6.62h-5.895a2.674 2.674 0 01.878-1.97 3.108 3.108 0 012.125-.808 2.95 2.95 0 012.1.803c.549.527.836 1.244.792 1.976zM60.112 12.771c-.708-.694-1.715-1.057-2.742-.988h-2.807v7.214h2.807c2.315 0 3.657-1.325 3.657-3.63.13-.949-.206-1.901-.915-2.596zm-2.877 5.205h-1.466v-5.174h1.466a2.55 2.55 0 011.936.729c.496.499.726 1.178.627 1.85.107.676-.12 1.36-.617 1.864a2.543 2.543 0 01-1.946.731zM63.693 13.835c-.898.516-1.401 1.46-1.301 2.437-.102.977.401 1.923 1.3 2.44a2.962 2.962 0 002.932 0c.898-.517 1.402-1.463 1.3-2.44.1-.976-.404-1.92-1.301-2.437a2.962 2.962 0 00-2.93 0zm1.467.566c1.002 0 1.573.69 1.573 1.87 0 1.185-.57 1.875-1.573 1.875-1.006 0-1.572-.685-1.572-1.875 0-1.18.566-1.87 1.572-1.87z" fill="#222"/><path d="M75.275 18.996h-1.2l-1.213-4.01h-.091l-1.207 4.01h-1.19l-1.616-5.444h1.174l1.05 4.154h.087l1.206-4.154h1.11l1.206 4.154h.092l1.045-4.154h1.157l-1.61 5.444zM78.242 13.552h1.114v.865h.087c.3-.637 1.004-1.026 1.75-.97a1.988 1.988 0 011.54.56c.394.393.575.933.49 1.465v3.525h-1.157v-3.255c0-.875-.41-1.31-1.266-1.31a1.4 1.4 0 00-1.042.391c-.269.265-.4.626-.358.989v3.185h-1.158v-5.445zM85.069 11.427h1.156v7.57H85.07v-7.57z" fill="#222"/><path fill-rule="evenodd" clip-rule="evenodd" d="M89.138 13.835c-.897.516-1.401 1.46-1.3 2.437-.103.977.4 1.923 1.299 2.441a2.963 2.963 0 002.933 0c.898-.518 1.402-1.464 1.3-2.441.1-.976-.404-1.92-1.301-2.437a2.962 2.962 0 00-2.93 0zm1.467.567c1.002 0 1.574.69 1.574 1.87 0 1.185-.572 1.875-1.574 1.875-1.006 0-1.572-.685-1.572-1.875 0-1.18.566-1.87 1.572-1.87zM96.767 15.831c-1.395.08-2.181.646-2.181 1.626.002.464.216.907.588 1.217.372.31.869.46 1.367.412.71.03 1.383-.296 1.761-.855h.092v.765h1.114v-3.72c0-1.15-.829-1.83-2.3-1.83-1.33 0-2.277.6-2.396 1.536h1.12c.13-.385.577-.605 1.223-.605.791 0 1.2.324 1.2.9v.47l-1.588.084zm1.589.706v.455c-.025.347-.201.67-.487.894a1.455 1.455 0 01-1.032.296c-.63 0-1.087-.285-1.087-.775 0-.48.366-.735 1.174-.785l1.432-.085zM103.466 13.462c-1.482 0-2.435 1.09-2.435 2.81 0 1.724.943 2.814 2.435 2.814.756.026 1.466-.34 1.841-.95h.092v.86h1.109v-7.57h-1.157v2.99h-.087c-.349-.614-1.05-.986-1.798-.954zm.328 4.66c-.981 0-1.567-.695-1.567-1.85 0-1.145.592-1.845 1.567-1.845.969 0 1.578.715 1.578 1.85 0 1.14-.603 1.845-1.578 1.845zM111.865 11.27a.691.691 0 00-.43.671c.002.18.083.352.224.476a.745.745 0 00.525.18.75.75 0 00.696-.44.663.663 0 00-.183-.764.795.795 0 00-.832-.123zm.894 2.282h-1.152v5.444h1.152v-5.444z" fill="#222"/><path d="M114.629 13.552h1.114v.865h.087c.3-.637 1.003-1.026 1.75-.97a1.987 1.987 0 011.539.56c.395.393.576.933.491 1.465v3.525h-1.158v-3.255c0-.875-.409-1.31-1.265-1.31a1.401 1.401 0 00-1.042.391c-.269.265-.4.626-.359.989v3.185h-1.157v-5.445z" fill="#222"/><path fill-rule="evenodd" clip-rule="evenodd" d="M126.727 13.462c-1.481 0-2.434 1.09-2.434 2.81 0 1.724.942 2.814 2.434 2.814.757.026 1.466-.34 1.842-.95h.092v.86h1.109v-7.57h-1.158v2.99h-.086c-.35-.614-1.05-.986-1.799-.954zm.328 4.66c-.98 0-1.567-.695-1.567-1.85 0-1.145.593-1.845 1.567-1.845.97 0 1.579.715 1.579 1.85 0 1.14-.603 1.845-1.579 1.845zM134.086 19.102c1.146.115 2.217-.549 2.541-1.576h-1.114c-.278.463-.829.724-1.395.66a1.61 1.61 0 01-1.153-.459 1.377 1.377 0 01-.409-1.1v-.06h4.141v-.375c0-1.71-.984-2.745-2.616-2.745a2.8 2.8 0 00-2.051.85 2.389 2.389 0 00-.653 1.994c-.107.72.132 1.447.653 1.988a2.765 2.765 0 002.056.823zm1.432-3.33h-2.962a1.343 1.343 0 01.439-1.003 1.561 1.561 0 011.079-.408c.399-.009.784.14 1.059.408.275.269.415.633.385 1.002z" fill="#222"/></svg>