<svg width="32" height="32" fill="none" xmlns="http://www.w3.org/2000/svg"><g clip-path="url(#a)"><path d="M8 16a8 8 0 1 0 16 0 8 8 0 0 0-16 0Z" fill="#134478"/><g opacity=".2" stroke="#151B26" stroke-width="1.5" stroke-linecap="round" stroke-linejoin="round"><path d="M14.4 14.133a2.134 2.134 0 1 1 2.844 2.012 1.066 1.066 0 0 0-.71 1.006v.715"/><path d="M16.535 20a.267.267 0 1 0 0 .533.267.267 0 0 0 0-.533Z" fill="#151B26"/></g><path d="M13.866 13.867a2.134 2.134 0 0 1 4.09-.848c.156.36.21.754.156 1.141a2.132 2.132 0 0 1-1.402 1.718 1.067 1.067 0 0 0-.711 1.007v.715" stroke="#fff" stroke-width="1.5" stroke-linecap="round" stroke-linejoin="round"/><path d="M16.001 19.733a.266.266 0 1 0 0 .533.266.266 0 0 0 0-.533Z" fill="#fff" stroke="#fff" stroke-width="1.5" stroke-linecap="round" stroke-linejoin="round"/></g><defs><clipPath id="a"><path fill="#fff" d="M8 8h16v16H8z"/></clipPath></defs></svg>