<svg width="32" height="32" fill="none" xmlns="http://www.w3.org/2000/svg"><g clip-path="url(#a)"><path d="M9.488 8C8.651 8 8 8.659 8 9.506v8.376c0 .847.651 1.506 1.488 1.506h8.28c.837 0 1.488-.659 1.488-1.506v-2.259h-1.489v2.26H9.488V9.505h8.28v1.506h1.488V9.506c0-.847-.651-1.506-1.489-1.506H9.488Z" fill="#fff"/><path d="M14.232 12.612c-.837 0-1.488.659-1.488 1.506v2.259h1.488v-2.26h8.28v8.377h-8.28v-1.506h-1.488v1.506c0 .847.65 1.506 1.488 1.506h8.28c.836 0 1.488-.659 1.488-1.506v-8.376c0-.847-.652-1.506-1.489-1.506h-8.279Z" fill="#fff"/></g><defs><clipPath id="a"><path fill="#fff" d="M8 8h16v16H8z"/></clipPath></defs></svg>