<svg width="32" height="32" fill="none" xmlns="http://www.w3.org/2000/svg"><g clip-path="url(#a)"><path d="M22.873 14.39a6.968 6.968 0 0 0-.875-2.112l.598-.996-1.878-1.878-.996.598a6.966 6.966 0 0 0-2.112-.875L17.328 8h-2.656l-.282 1.127a6.966 6.966 0 0 0-2.112.875l-.996-.598-1.878 1.878.598.996c-.406.653-.7 1.361-.875 2.112L8 14.672v2.656l1.127.282c.175.751.469 1.46.875 2.112l-.598.996 1.878 1.878.996-.598c.653.406 1.361.7 2.112.875L14.672 24h2.656l.282-1.127a6.968 6.968 0 0 0 2.112-.875l.996.598 1.878-1.878-.598-.996c.406-.653.7-1.361.875-2.112L24 17.328v-2.656l-1.127-.282ZM16 21.187A5.193 5.193 0 0 1 10.812 16 5.193 5.193 0 0 1 16 10.812 5.193 5.193 0 0 1 21.188 16 5.193 5.193 0 0 1 16 21.188Z" fill="#fff"/><path d="M19.281 14.298 16 17.032l-3.281-2.734v4.077h6.562v-4.077Z" fill="#fff"/><path d="M18.551 13.688h-5.098l2.55 2.123 2.548-2.123Z" fill="#fff"/></g><defs><clipPath id="a"><path fill="#fff" d="M8 8h16v16H8z"/></clipPath></defs></svg>