<svg width="32" height="32" fill="none" xmlns="http://www.w3.org/2000/svg"><g clip-path="url(#a)"><path d="M8.004 14.97a.469.469 0 0 0 .465.527h1.907a.469.469 0 0 0 .462-.39 5.204 5.204 0 0 1 4.268-4.269.469.469 0 0 0 .391-.462V8.469c0-.282-.247-.5-.526-.465a8.053 8.053 0 0 0-4.678 2.29 8.053 8.053 0 0 0-2.29 4.677ZM18.987 20.209a5.165 5.165 0 0 1-3.017.97 5.19 5.19 0 0 1-5.132-4.345.469.469 0 0 0-.462-.392H8.469c-.282 0-.5.247-.465.527C8.502 20.977 11.927 24 15.97 24a7.951 7.951 0 0 0 4.926-1.69.469.469 0 0 0 .044-.702l-1.35-1.35a.469.469 0 0 0-.603-.05Z" fill="#fff"/><path d="M16.834 10.838a5.19 5.19 0 0 1 4.346 5.132 5.166 5.166 0 0 1-.971 3.017.469.469 0 0 0 .05.604l1.349 1.349c.2.199.528.178.701-.044A7.95 7.95 0 0 0 24 15.97c0-4.044-3.023-7.468-7.031-7.966a.469.469 0 0 0-.527.465v1.907c0 .229.166.424.392.462ZM16.282 12.749h-.625a.469.469 0 0 0-.47.468v5.47h1.564v-5.47a.469.469 0 0 0-.469-.468Z" fill="#fff"/><path d="M17.688 18.686h1.094c.26 0 .47-.21.47-.469v-3.75a.469.469 0 0 0-.47-.468h-1.094v4.687ZM14.25 15.249h-1.092a.469.469 0 0 0-.47.468v2.5c0 .26.21.47.47.47h1.092v-3.438Z" fill="#fff"/></g><defs><clipPath id="a"><path fill="#fff" d="M8 8h16v16H8z"/></clipPath></defs></svg>