<svg width="32" height="32" fill="none" xmlns="http://www.w3.org/2000/svg"><path d="M11.61 17.157a2.617 2.617 0 0 1-1.887 0 .538.538 0 0 0-.47.048A2.664 2.664 0 0 0 8 19.467V21.6c0 .293.24.533.533.533H11.2v-2.666c0-.827.219-1.632.613-2.336a.375.375 0 0 0-.202.026Zm11.137.048a.538.538 0 0 0-.47-.048 2.617 2.617 0 0 1-1.888 0c-.064-.026-.133-.037-.202-.026.394.704.613 1.51.613 2.336v2.666h2.667c.293 0 .533-.24.533-.533v-2.133c0-.923-.47-1.765-1.253-2.262ZM19.733 19.467c0-1.19-.57-2.31-1.53-3.008a.537.537 0 0 0-.55-.049 3.526 3.526 0 0 1-1.12.347v2.71c0 .293-.24.533-.533.533a.535.535 0 0 1-.533-.533v-2.71a3.526 3.526 0 0 1-1.12-.347.537.537 0 0 0-.55.049 3.723 3.723 0 0 0-1.53 3.008v2.666h7.466v-2.666ZM10.666 16.8a2.136 2.136 0 0 1-2.133-2.133c0-1.177.957-2.134 2.133-2.134 1.177 0 2.134.957 2.134 2.134a2.136 2.136 0 0 1-2.134 2.133Zm10.667 0a2.136 2.136 0 0 0 2.134-2.133 2.136 2.136 0 0 0-2.134-2.134 2.136 2.136 0 0 0-2.133 2.134c0 1.176.957 2.133 2.133 2.133ZM16 15.733a2.67 2.67 0 0 1-2.667-2.666A2.67 2.67 0 0 1 16 10.4a2.67 2.67 0 0 1 2.666 2.667A2.67 2.67 0 0 1 16 15.733Z" fill="#fff"/></svg>