<svg width="32" height="32" fill="none" xmlns="http://www.w3.org/2000/svg"><g clip-path="url(#a)"><path d="M17.407 19.563c0 .776-.631 1.407-1.407 1.407a1.409 1.409 0 0 1-1.407-1.407v-.027l-5.7-1.418v4.484c0 .258.21.468.47.468h13.274c.26 0 .47-.21.47-.468v-4.484l-5.7 1.419v.026Z" fill="#fff"/><path d="M23.531 11.062h-4.295V9.358a.469.469 0 0 0-.469-.47h-5.534a.469.469 0 0 0-.47.47v1.704H8.47A.469.469 0 0 0 8 11.53v5.032c0 .215.147.402.356.454l6.237 1.553v-1.009c0-.259.21-.469.469-.469h1.876c.26 0 .47.21.47.47v1.008l6.236-1.552a.469.469 0 0 0 .356-.455V11.53a.469.469 0 0 0-.469-.47Zm-9.83-1.236H18.3v1.236H13.7V9.826Z" fill="#fff"/><path d="M16.47 19.563V18.03h-.94v1.533a.47.47 0 0 0 .94 0Z" fill="#fff"/></g><defs><clipPath id="a"><path fill="#fff" d="M8 8h16v16H8z"/></clipPath></defs></svg>