<svg width="32" height="32" fill="none" xmlns="http://www.w3.org/2000/svg"><g clip-path="url(#a)" fill-rule="evenodd" clip-rule="evenodd"><path d="M22.16 11.703H8.88c-.24 0-.56.16-.72.32 0 .16-.08.24-.16.399V23.042c0 .559.4.958.88.958h13.28c.48 0 .88-.4.88-.958v-2.635h-5.36c-.88 0-1.52-.719-1.52-1.597v-1.996c0-.4.16-.799.4-1.118.4-.32.8-.48 1.2-.48h5.36v-2.554c0-.48-.4-.959-.96-.959Z" fill="#134478"/><path d="m11.761 11.065 6.4-1.837-.32-.719c-.24-.479-.72-.638-1.2-.399l-5.76 2.955h.88Zm8.322-1.757h-.24l-1.52.4-4.56 1.357h7.44l-.32-1.038c0-.4-.4-.72-.8-.72Zm3.597 6.787c-.08-.08-.16-.16-.32-.16-.08 0-.16-.08-.32-.08h-5.36c-.48 0-.88.4-.88.959v2.076c0 .479.4.958.88.958h5.36c.08 0 .16 0 .32-.08.08-.08.24-.08.32-.16.16-.16.32-.399.32-.718v-2.076c0-.32-.08-.56-.32-.719Zm-4.078 1.916c0 .24-.16.48-.48.48h-.32c-.24 0-.48-.24-.48-.48v-.32c0-.159.08-.239.16-.398.08-.08.16-.08.24-.08h.48c.24 0 .48.24.48.479v.32h-.08Z" fill="#2987FD"/></g><defs><clipPath id="a"><path fill="#fff" d="M8 8h16v16H8z"/></clipPath></defs></svg>