<svg width="32" height="32" fill="none" xmlns="http://www.w3.org/2000/svg"><path d="m20.994 9.812-11.903 2.32a1.106 1.106 0 0 1-.882 1.291l1.5 7.735c.289-.057.588.002.832.164s.412.414.467.7l11.904-2.32a1.104 1.104 0 0 1 .88-1.288l-1.5-7.735a1.113 1.113 0 0 1-.832-.166 1.09 1.09 0 0 1-.466-.701Z" fill="#2987FD"/><path d="M22.065 12.324H9.938c0 .607-.497 1.1-1.11 1.1v7.88c.294-.002.577.114.785.32.208.205.325.485.325.776h12.127c0-.606.496-1.097 1.108-1.097v-7.88c-.294 0-.577-.116-.784-.322a1.091 1.091 0 0 1-.324-.777Z" fill="#134478"/><path d="M10.405 17.785c0-.112.09-.204.2-.204h.55v-.373h-.55c-.11 0-.2-.092-.2-.203v-.455c0-.112.09-.204.2-.204h.698l.024-.073c.19-.61.513-1.128 1.012-1.525.395-.315.856-.485 1.346-.567.699-.116 1.374-.014 2.03.242.042.015.085.039.123.058.157.097.2.213.129.383-.072.18-.148.363-.229.538-.07.155-.166.203-.323.164-.223-.053-.437-.12-.66-.164-.466-.097-.932-.102-1.389.082-.39.16-.627.46-.793.838v.015h1.359c.11 0 .2.091.2.203v.455c0 .112-.09.204-.2.204h-1.554v.373h1.554c.11 0 .2.092.2.203v.455c0 .112-.09.204-.2.204h-1.421c.17.499.451.886.974 1.05.418.136.842.127 1.265.04.218-.049.432-.117.65-.165.172-.039.267.01.338.17.081.179.157.363.229.547.066.165.023.3-.148.378a3.646 3.646 0 0 1-.542.198 3.564 3.564 0 0 1-2.11-.024c-.847-.281-1.412-.867-1.745-1.695-.067-.16-.11-.33-.157-.494H10.6c-.11 0-.2-.092-.2-.204v-.45h.005ZM17.196 14.707h3.946v1.019h-3.946zM17.196 16.854h3.946v1.019h-3.946zM17.196 18.998h2.791v1.019h-2.791z" fill="#fff"/></svg>