<svg width="32" height="32" fill="none" xmlns="http://www.w3.org/2000/svg"><g clip-path="url(#a)"><path d="M15.467 13.067a4.455 4.455 0 0 0 .496 2.053 3.646 3.646 0 0 1-1.563.347 3.733 3.733 0 1 1 2.923-6.054 4.516 4.516 0 0 0-1.856 3.654Z" fill="#134478"/><path d="M10.027 16.533H8.533a.533.533 0 0 0-.533.534v6.4c0 .294.239.533.533.533h1.494a.533.533 0 0 0 .533-.533v-6.4a.533.533 0 0 0-.533-.534ZM20 17c2.21 0 4-1.79 4-4s-1.79-4-4-4-4 1.79-4 4a4.005 4.005 0 0 0 4 4Z" fill="#2987FD"/><path d="M17.652 13.21c0-.075.062-.138.138-.138h.38v-.253h-.38a.139.139 0 0 1-.138-.138v-.308c0-.076.062-.138.138-.138h.483l.016-.05c.131-.413.355-.765.7-1.034.272-.213.59-.328.929-.384.483-.079.949-.01 1.402.164.03.01.06.026.085.04.109.065.139.144.09.259-.05.121-.103.246-.158.364-.05.106-.115.138-.224.112-.154-.036-.302-.082-.456-.112-.322-.065-.644-.069-.96.056-.268.109-.433.312-.548.568v.01h.94c.075 0 .138.063.138.138v.309a.139.139 0 0 1-.138.138h-1.074v.253h1.074c.075 0 .138.062.138.138v.308a.139.139 0 0 1-.138.138h-.982c.118.338.312.601.673.713.289.092.581.085.873.026.152-.033.3-.079.45-.111.119-.027.184.006.234.114.055.122.108.247.157.372.046.111.017.203-.102.256a2.544 2.544 0 0 1-.374.134 2.506 2.506 0 0 1-1.458-.016c-.585-.19-.976-.588-1.205-1.15-.046-.108-.076-.223-.109-.335h-.46a.139.139 0 0 1-.137-.137v-.306h.003Z" fill="#fff"/><path d="m20.192 21.062-1.77 1.77a2.166 2.166 0 0 1-1.53.635h-5.228a.472.472 0 0 1-.47-.47v-5.46a.472.472 0 0 1 .47-.47h3.577a.943.943 0 0 1 .94.941.847.847 0 0 1-.847.847h-.752a.472.472 0 0 0-.333.803.47.47 0 0 0 .333.138h1.647l2.064-1.27a1.592 1.592 0 0 1 2.123.452 1.636 1.636 0 0 1-.224 2.084Z" fill="#134478"/></g><defs><clipPath id="a"><path fill="#fff" d="M8 8h16v16H8z"/></clipPath></defs></svg>