<svg width="32" height="32" fill="none" xmlns="http://www.w3.org/2000/svg"><g clip-path="url(#a)"><path d="M20.747 8h-8.392v12.779h4.857l-.55-1.81c-.12-.395-.049-.81.196-1.14a1.293 1.293 0 0 1 1.41-.466l4.16 1.265V9.68c0-.927-.754-1.68-1.68-1.68Z" fill="#134478"/><path d="M18.646 14.525h-2.322a.483.483 0 0 1 0-.967h2.322a.483.483 0 0 1 0 .967Zm1.235-2.012H15.09a.483.483 0 0 1 0-.966h4.792a.483.483 0 0 1 0 .966Z" fill="#fff"/><path d="m18.07 23.598-.172-.564h-7.256c-1.455 0-1.458-2.255 0-2.255h.907V8h-.907c-1.154 0-2.094.94-2.094 2.094v11.784l-.003.025A2.1 2.1 0 0 0 10.642 24h7.634a1.3 1.3 0 0 1-.206-.402Z" fill="#134478"/><path d="m17.432 18.734 1.408 4.63a.482.482 0 0 0 .918.013l.66-1.956a.483.483 0 0 1 .302-.303l1.957-.66a.482.482 0 0 0-.014-.917l-4.63-1.409a.483.483 0 0 0-.601.602Z" fill="#2987FD"/></g><defs><clipPath id="a"><path fill="#fff" d="M8 8h16v16H8z"/></clipPath></defs></svg>