<svg width="32" height="32" fill="none" xmlns="http://www.w3.org/2000/svg"><g clip-path="url(#a)"><path d="m22.62 19.712-1.24 2.992a1.659 1.659 0 0 1-1.52 1.02c-.215 0-.428-.044-.627-.127l-9.124-3.78a1.65 1.65 0 0 1-.959-1.085l-.805-2.943 2.405 3.096a2.173 2.173 0 0 0 1.732.844h9.874c.088 0 .176-.006.263-.017Z" fill="#2987FD"/><path d="M22.356 8.222h-9.875a1.633 1.633 0 0 0-1.298.635l-2.721 3.499a2.192 2.192 0 0 0 0 2.691l2.721 3.5a1.633 1.633 0 0 0 1.298.634h9.875A1.644 1.644 0 0 0 24 17.537V9.866a1.644 1.644 0 0 0-1.644-1.644Zm-9.863 7.397a1.917 1.917 0 1 1 0-3.835 1.917 1.917 0 0 1 0 3.835Zm7.89 0h-3.287a.548.548 0 0 1 0-1.096h3.288a.548.548 0 0 1 0 1.096Zm0-2.74h-3.287a.548.548 0 0 1 0-1.096h3.288a.548.548 0 1 1 0 1.096Z" fill="#2987FD"/><path d="M22.356 8.222h-9.875a1.633 1.633 0 0 0-1.298.635l-2.721 3.499a2.192 2.192 0 0 0 0 2.691l2.721 3.5a1.633 1.633 0 0 0 1.298.634h9.875A1.644 1.644 0 0 0 24 17.537V9.866a1.644 1.644 0 0 0-1.644-1.644Z" fill="#134478"/><path d="M12.493 15.62a1.918 1.918 0 1 1 0-3.837 1.918 1.918 0 0 1 0 3.836Zm7.89 0h-3.287a.548.548 0 0 1 0-1.097h3.287a.548.548 0 1 1 0 1.096Zm0-2.74h-3.287a.548.548 0 1 1 0-1.097h3.287a.548.548 0 1 1 0 1.096Z" fill="#fff"/><path d="M12.493 14.524a.822.822 0 1 0 0-1.644.822.822 0 0 0 0 1.644Z" fill="#2987FD"/></g><defs><clipPath id="a"><path fill="#fff" d="M8 8h16v16H8z"/></clipPath></defs></svg>