<svg width="32" height="32" fill="none" xmlns="http://www.w3.org/2000/svg"><g clip-path="url(#a)"><path d="M14.1 14.933a3 3 0 1 0 0-5.999 3 3 0 0 0 0 6Z" fill="#134478"/><path fill-rule="evenodd" clip-rule="evenodd" d="M15.217 15.562a5.217 5.217 0 0 1 2.669 1.465 5.18 5.18 0 0 1 1.235 2.078c.162.504.244 1.032.242 1.562a.5.5 0 0 1-.5.5h-3.668a13.392 13.392 0 0 0-.102-2.105c-.018-.137-.036-.262-.056-.377-.146-.826-.896-1.576-1.722-1.722-.182-.03-.388-.06-.621-.086a13.845 13.845 0 0 0-2.055-.067 5.216 5.216 0 0 1 4.578-1.248Z" fill="#2987FD"/><path d="M20.167 15.2a2.4 2.4 0 1 0 0-4.8 2.4 2.4 0 0 0 0 4.8Z" fill="#134478"/><path d="M20.183 15.502a3.742 3.742 0 0 0-1.903.528c.109.097.218.193.32.298.682.7 1.188 1.55 1.477 2.483.099.307.172.621.218.94h3.138a.5.5 0 0 0 .5-.5 3.754 3.754 0 0 0-3.75-3.75Z" fill="#2987FD"/><path d="M11.659 22.955c0-.453.176-.879.497-1.2.32-.32.746-.496 1.2-.496.371 0 .725.119 1.017.339.017-.237.027-.502.027-.798 0-.745-.063-1.291-.13-1.692-.117-.66-.717-1.261-1.378-1.378-.4-.067-.947-.13-1.692-.13a10.2 10.2 0 0 0-1.692.13c-.661.117-1.261.717-1.378 1.378-.067.4-.13.947-.13 1.692s.063 1.291.13 1.692c.117.661.717 1.261 1.378 1.378.4.067.947.13 1.692.13.296 0 .561-.01.798-.027a1.684 1.684 0 0 1-.34-1.018Z" fill="#134478"/><path d="M10.741 18.645c0 .453-.176.879-.497 1.2-.32.32-.746.496-1.2.496-.371 0-.725-.119-1.017-.339-.017.237-.027.502-.027.798 0 .745.063 1.291.13 1.692.117.66.717 1.261 1.378 1.378.4.067.947.13 1.692.13a10.2 10.2 0 0 0 1.692-.13c.661-.117 1.261-.717 1.378-1.378.067-.4.13-.947.13-1.692s-.063-1.291-.13-1.692c-.117-.661-.717-1.261-1.378-1.378a10.21 10.21 0 0 0-1.692-.13c-.296 0-.561.01-.798.027.22.292.34.645.34 1.018Z" fill="#134478"/><path d="M9.549 19.562h3.298c.213 0 .386.18.386.4 0 .221-.173.4-.386.4H9.549a.393.393 0 0 1-.386-.4c0-.22.173-.4.386-.4Zm0 2.471a.393.393 0 0 1-.386-.4c0-.22.173-.4.386-.4h1.936c.213 0 .386.18.386.4 0 .221-.173.4-.386.4H9.549Z" fill="#fff"/></g><defs><clipPath id="a"><path fill="#fff" d="M8 8h16v16H8z"/></clipPath></defs></svg>