<svg width="32" height="32" fill="none" xmlns="http://www.w3.org/2000/svg"><g clip-path="url(#a)"><path d="M8 12.87v9.565C8 23.298 8.702 24 9.565 24h12.87c.863 0 1.565-.702 1.565-1.565V12.87H8Z" fill="#134478"/><path d="M22.435 8H9.565C8.702 8 8 8.702 8 9.565v2.261h16v-2.26C24 8.701 23.298 8 22.435 8Z" fill="#2987FD"/><path d="M10.609 10.435a.522.522 0 1 1 0-1.044.522.522 0 0 1 0 1.044Zm2.087 0a.522.522 0 1 1 0-1.044.522.522 0 0 1 0 1.044Zm2.087 0a.522.522 0 1 1 0-1.044.522.522 0 0 1 0 1.044Zm6.608 0H16.87a.522.522 0 0 1 0-1.044h4.521a.522.522 0 0 1 0 1.044ZM19.663 17.032l-1.044 3.13a.514.514 0 0 1-.488.353H13.957a.518.518 0 0 1-.488-.352l-1.274-3.822h-1.368a.515.515 0 0 1 0-1.03h1.74c.22 0 .417.142.487.352l.23.692h5.89a.514.514 0 0 1 .489.677ZM14.635 22.375a.672.672 0 1 1 0-1.344.672.672 0 0 1 0 1.344ZM17.448 22.375a.672.672 0 1 1 0-1.344.672.672 0 0 1 0 1.344Z" fill="#fff"/></g><defs><clipPath id="a"><path fill="#fff" d="M8 8h16v16H8z"/></clipPath></defs></svg>