<svg xmlns="http://www.w3.org/2000/svg" width="78" height="82" fill="none" viewBox="0 0 78 82"><path fill="#315efd" fill-rule="evenodd" d="M39.047 6.188a.891.891 0 1 1 0-1.784c10.705 0 20.405 4.346 27.428 11.37s11.37 16.722 11.37 27.428-4.347 20.405-11.37 27.428S49.752 82 39.047 82a.891.891 0 1 1 0-1.784c10.212 0 19.475-4.138 26.175-10.839 6.7-6.7 10.839-15.944 10.839-26.175s-4.138-19.475-10.839-26.176c-6.7-6.7-15.963-10.838-26.175-10.838M36.37 80.12a.906.906 0 0 1 .836.95c-.02.493-.456.854-.95.835l-.227-.02-.266-.037-1.139-.095-.17-.019a.88.88 0 0 1-.779-.987.88.88 0 0 1 .987-.778l.171.019 1.367.114zM17.865 10.687a.89.89 0 0 1 1.233.266.89.89 0 0 1-.265 1.234l-.038.019-1.253.835-.095.076a.89.89 0 0 1-1.253-.209.89.89 0 0 1 .209-1.252l.095-.076.341-.285.342-.228.665-.38zm-5.695 4.518c.36-.342.911-.342 1.253.019.341.36.341.911-.02 1.253L12.379 17.5l-.095.114-.038.038c-.342.36-.911.38-1.253.038s-.38-.912-.038-1.253l1.291-1.29zm-4.764 5.524a.903.903 0 0 1 1.253-.21.903.903 0 0 1 .208 1.254l-.019.019-.91 1.366a.89.89 0 0 1-1.235.266.89.89 0 0 1-.265-1.234l.531-.93.228-.342.095-.114zm-3.645 6.32a.88.88 0 0 1 1.177-.436.88.88 0 0 1 .437 1.177l-.057.114-.627 1.461v.02a.89.89 0 0 1-1.157.493.89.89 0 0 1-.494-1.158v-.02l.626-1.46zM1.37 33.92a.88.88 0 0 1 1.082-.646.91.91 0 0 1 .664 1.082v.038l-.437 1.747a.885.885 0 0 1-1.044.702.9.9 0 0 1-.702-1.044l.437-1.746zM.306 41.133a.892.892 0 1 1 1.784.076v1.727a.891.891 0 1 1-1.784 0zm.284 7.289c-.076-.494.266-.93.76-1.006.493-.076.93.265 1.006.759l.019.19.114.683.151.835a.898.898 0 0 1-1.765.323l-.038-.209L.61 48.63zm1.652 7.08a.907.907 0 0 1 .57-1.14.907.907 0 0 1 1.138.57l.02.038.53 1.462.058.17a.913.913 0 0 1-.513 1.159.913.913 0 0 1-1.158-.513l-.076-.17-.152-.419-.114-.246-.303-.835zm2.96 6.681a.886.886 0 0 1 .343-1.215.88.88 0 0 1 1.214.342l.095.17.797 1.33.038.056a.895.895 0 1 1-1.518.95l-.038-.057-.797-1.33zm4.139 5.98a.88.88 0 0 1 .114-1.254.88.88 0 0 1 1.252.114l.02.02.398.512.266.304.455.455c.342.36.323.93-.038 1.253a.876.876 0 0 1-1.252-.038l-.02-.019-1.214-1.367zm5.2 5.105a.9.9 0 0 1-.132-1.252.9.9 0 0 1 1.253-.133l.057.057 1.196.93.132.095c.399.284.475.854.19 1.252-.285.399-.854.475-1.253.19l-.152-.114-1.195-.93zm6.056 4.062c-.437-.227-.589-.778-.36-1.214.227-.437.778-.589 1.214-.361l.133.076 1.404.702c.437.209.627.74.418 1.196s-.74.626-1.196.418l-.095-.038-1.252-.57-.19-.114zm6.7 2.848a.89.89 0 0 1-.588-1.12.89.89 0 0 1 1.12-.589l.076.02 1.461.398.133.038c.475.133.76.607.646 1.082a.905.905 0 0 1-1.082.645l-.133-.038-.911-.228-.21-.057-.417-.151z" clip-rule="evenodd"/><path fill="#315efd" fill-rule="evenodd" d="M39.92 2.259v6.074c0 .607-.247 1.158-.626 1.556-.38.399-.93.665-1.519.703a2.2 2.2 0 0 1-.93-.152 2.2 2.2 0 0 1-.797-.513L33.011 6.89a2.28 2.28 0 0 1-.664-1.594c0-.57.227-1.158.664-1.595L36.048.664A2.23 2.23 0 0 1 37.642 0c.304 0 .589.057.874.17.284.115.531.286.759.494.398.399.645.93.645 1.595" clip-rule="evenodd"/><g fill="#fff" fill-rule="evenodd" clip-rule="evenodd" opacity=".9"><path d="M39.047 6.188a.891.891 0 1 1 0-1.784c10.705 0 20.405 4.346 27.428 11.37s11.37 16.722 11.37 27.428-4.347 20.405-11.37 27.428S49.752 82 39.047 82a.891.891 0 1 1 0-1.784c10.212 0 19.475-4.138 26.175-10.839 6.7-6.7 10.839-15.944 10.839-26.175s-4.138-19.475-10.839-26.176c-6.7-6.7-15.963-10.838-26.175-10.838M36.37 80.12a.906.906 0 0 1 .836.95c-.02.493-.456.854-.95.835l-.227-.02-.266-.037-1.139-.095-.17-.019a.88.88 0 0 1-.779-.987.88.88 0 0 1 .987-.778l.171.019 1.367.114zM17.865 10.687a.89.89 0 0 1 1.233.266.89.89 0 0 1-.265 1.234l-.038.019-1.253.835-.095.076a.89.89 0 0 1-1.253-.209.89.89 0 0 1 .209-1.252l.095-.076.341-.285.342-.228.665-.38zm-5.695 4.518c.36-.342.911-.342 1.253.019.341.36.341.911-.02 1.253L12.379 17.5l-.095.114-.038.038c-.342.36-.911.38-1.253.038s-.38-.912-.038-1.253l1.291-1.29zm-4.764 5.524a.903.903 0 0 1 1.253-.21.903.903 0 0 1 .208 1.254l-.019.019-.91 1.366a.89.89 0 0 1-1.235.266.89.89 0 0 1-.265-1.234l.531-.93.228-.342.095-.114zm-3.645 6.32a.88.88 0 0 1 1.177-.436.88.88 0 0 1 .437 1.177l-.057.114-.627 1.461v.02a.89.89 0 0 1-1.157.493.89.89 0 0 1-.494-1.158v-.02l.626-1.46zM1.37 33.92a.88.88 0 0 1 1.082-.646.91.91 0 0 1 .664 1.082v.038l-.437 1.747a.885.885 0 0 1-1.044.702.9.9 0 0 1-.702-1.044l.437-1.746zM.306 41.133a.892.892 0 1 1 1.784.076v1.727a.891.891 0 1 1-1.784 0zm.284 7.289c-.076-.494.266-.93.76-1.006.493-.076.93.265 1.006.759l.019.19.114.683.151.835a.898.898 0 0 1-1.765.323l-.038-.209L.61 48.63zm1.652 7.08a.907.907 0 0 1 .57-1.14.907.907 0 0 1 1.138.57l.02.038.53 1.462.058.17a.913.913 0 0 1-.513 1.159.913.913 0 0 1-1.158-.513l-.076-.17-.152-.419-.114-.246-.303-.835zm2.96 6.681a.886.886 0 0 1 .343-1.215.88.88 0 0 1 1.214.342l.095.17.797 1.33.038.056a.895.895 0 1 1-1.518.95l-.038-.057-.797-1.33zm4.139 5.98a.88.88 0 0 1 .114-1.254.88.88 0 0 1 1.252.114l.02.02.398.512.266.304.455.455c.342.36.323.93-.038 1.253a.876.876 0 0 1-1.252-.038l-.02-.019-1.214-1.367zm5.2 5.105a.9.9 0 0 1-.132-1.252.9.9 0 0 1 1.253-.133l.057.057 1.196.93.132.095c.399.284.475.854.19 1.252-.285.399-.854.475-1.253.19l-.152-.114-1.195-.93zm6.056 4.062c-.437-.227-.589-.778-.36-1.214.227-.437.778-.589 1.214-.361l.133.076 1.404.702c.437.209.627.74.418 1.196s-.74.626-1.196.418l-.095-.038-1.252-.57-.19-.114zm6.7 2.848a.89.89 0 0 1-.588-1.12.89.89 0 0 1 1.12-.589l.076.02 1.461.398.133.038c.475.133.76.607.646 1.082a.905.905 0 0 1-1.082.645l-.133-.038-.911-.228-.21-.057-.417-.151z"/><path d="M39.92 2.259v6.074c0 .607-.247 1.158-.626 1.556-.38.399-.93.665-1.519.703a2.2 2.2 0 0 1-.93-.152 2.2 2.2 0 0 1-.797-.513L33.011 6.89a2.28 2.28 0 0 1-.664-1.594c0-.57.227-1.158.664-1.595L36.048.664A2.23 2.23 0 0 1 37.642 0c.304 0 .589.057.874.17.284.115.531.286.759.494.398.399.645.93.645 1.595"/></g><g fill="#000" fill-rule="evenodd" clip-rule="evenodd" opacity=".4"><path d="M39.047 6.188a.891.891 0 1 1 0-1.784c10.705 0 20.405 4.346 27.428 11.37s11.37 16.722 11.37 27.428-4.347 20.405-11.37 27.428S49.752 82 39.047 82a.891.891 0 1 1 0-1.784c10.212 0 19.475-4.138 26.175-10.839 6.7-6.7 10.839-15.944 10.839-26.175s-4.138-19.475-10.839-26.176c-6.7-6.7-15.963-10.838-26.175-10.838M36.37 80.12a.906.906 0 0 1 .836.95c-.02.493-.456.854-.95.835l-.227-.02-.266-.037-1.139-.095-.17-.019a.88.88 0 0 1-.779-.987.88.88 0 0 1 .987-.778l.171.019 1.367.114zM17.865 10.687a.89.89 0 0 1 1.233.266.89.89 0 0 1-.265 1.234l-.038.019-1.253.835-.095.076a.89.89 0 0 1-1.253-.209.89.89 0 0 1 .209-1.252l.095-.076.341-.285.342-.228.665-.38zm-5.695 4.518c.36-.342.911-.342 1.253.019.341.36.341.911-.02 1.253L12.379 17.5l-.095.114-.038.038c-.342.36-.911.38-1.253.038s-.38-.912-.038-1.253l1.291-1.29zm-4.764 5.524a.903.903 0 0 1 1.253-.21.903.903 0 0 1 .208 1.254l-.019.019-.91 1.366a.89.89 0 0 1-1.235.266.89.89 0 0 1-.265-1.234l.531-.93.228-.342.095-.114zm-3.645 6.32a.88.88 0 0 1 1.177-.436.88.88 0 0 1 .437 1.177l-.057.114-.627 1.461v.02a.89.89 0 0 1-1.157.493.89.89 0 0 1-.494-1.158v-.02l.626-1.46zM1.37 33.92a.88.88 0 0 1 1.082-.646.91.91 0 0 1 .664 1.082v.038l-.437 1.747a.885.885 0 0 1-1.044.702.9.9 0 0 1-.702-1.044l.437-1.746zM.306 41.133a.892.892 0 1 1 1.784.076v1.727a.891.891 0 1 1-1.784 0zm.284 7.289c-.076-.494.266-.93.76-1.006.493-.076.93.265 1.006.759l.019.19.114.683.151.835a.898.898 0 0 1-1.765.323l-.038-.209L.61 48.63zm1.652 7.08a.907.907 0 0 1 .57-1.14.907.907 0 0 1 1.138.57l.02.038.53 1.462.058.17a.913.913 0 0 1-.513 1.159.913.913 0 0 1-1.158-.513l-.076-.17-.152-.419-.114-.246-.303-.835zm2.96 6.681a.886.886 0 0 1 .343-1.215.88.88 0 0 1 1.214.342l.095.17.797 1.33.038.056a.895.895 0 1 1-1.518.95l-.038-.057-.797-1.33zm4.139 5.98a.88.88 0 0 1 .114-1.254.88.88 0 0 1 1.252.114l.02.02.398.512.266.304.455.455c.342.36.323.93-.038 1.253a.876.876 0 0 1-1.252-.038l-.02-.019-1.214-1.367zm5.2 5.105a.9.9 0 0 1-.132-1.252.9.9 0 0 1 1.253-.133l.057.057 1.196.93.132.095c.399.284.475.854.19 1.252-.285.399-.854.475-1.253.19l-.152-.114-1.195-.93zm6.056 4.062c-.437-.227-.589-.778-.36-1.214.227-.437.778-.589 1.214-.361l.133.076 1.404.702c.437.209.627.74.418 1.196s-.74.626-1.196.418l-.095-.038-1.252-.57-.19-.114zm6.7 2.848a.89.89 0 0 1-.588-1.12.89.89 0 0 1 1.12-.589l.076.02 1.461.398.133.038c.475.133.76.607.646 1.082a.905.905 0 0 1-1.082.645l-.133-.038-.911-.228-.21-.057-.417-.151z"/><path d="M39.92 2.259v6.074c0 .607-.247 1.158-.626 1.556-.38.399-.93.665-1.519.703a2.2 2.2 0 0 1-.93-.152 2.2 2.2 0 0 1-.797-.513L33.011 6.89a2.28 2.28 0 0 1-.664-1.594c0-.57.227-1.158.664-1.595L36.048.664A2.23 2.23 0 0 1 37.642 0c.304 0 .589.057.874.17.284.115.531.286.759.494.398.399.645.93.645 1.595"/></g><path fill="#282b39" fill-rule="evenodd" d="M28.36 23.783h21.374v4.575c0 4.726-3.114 8.75-7.365 10.155-1.253.417-1.747 1.348-1.709 2.467-.038 1.101.456 2.05 1.709 2.468 4.27 1.405 7.365 5.429 7.365 10.155v4.575H28.36v-4.575c0-4.574 2.905-8.485 6.967-10.003 1.48-.55 2.24-1.31 2.163-2.6.076-1.31-.702-2.05-2.163-2.601-4.062-1.519-6.967-5.448-6.967-10.003z" clip-rule="evenodd"/><path fill="#315efd" fill-rule="evenodd" d="M28.36 23.783h21.374v4.575c0 4.726-3.114 8.75-7.365 10.155-1.253.417-1.747 1.348-1.709 2.467-.038 1.101.456 2.05 1.709 2.468 4.27 1.405 7.365 5.429 7.365 10.155v4.575H28.36v-4.575c0-4.574 2.905-8.485 6.967-10.003 1.48-.55 2.24-1.31 2.163-2.6.076-1.31-.702-2.05-2.163-2.601-4.062-1.519-6.967-5.448-6.967-10.003z" clip-rule="evenodd" opacity=".5"/><path fill="#fff" fill-rule="evenodd" d="M28.36 23.783h21.374v4.575c0 4.726-3.114 8.75-7.365 10.155-1.253.417-1.747 1.348-1.709 2.467-.038 1.101.456 2.05 1.709 2.468 4.27 1.405 7.365 5.429 7.365 10.155v4.575H28.36v-4.575c0-4.574 2.905-8.485 6.967-10.003 1.48-.55 2.24-1.31 2.163-2.6.076-1.31-.702-2.05-2.163-2.601-4.062-1.519-6.967-5.448-6.967-10.003z" clip-rule="evenodd" opacity=".9"/><path fill="url(#a)" fill-rule="evenodd" d="M28.36 23.783h21.374v4.575c0 4.726-3.114 8.75-7.365 10.155-1.253.417-1.747 1.348-1.709 2.467-.038 1.101.456 2.05 1.709 2.468 4.27 1.405 7.365 5.429 7.365 10.155v4.575H28.36v-4.575c0-4.574 2.905-8.485 6.967-10.003 1.48-.55 2.24-1.31 2.163-2.6.076-1.31-.702-2.05-2.163-2.601-4.062-1.519-6.967-5.448-6.967-10.003z" clip-rule="evenodd"/><path fill="#989898" fill-rule="evenodd" d="M26.956 23.784h24.182a3.066 3.066 0 0 0 3.056-3.056 3.066 3.066 0 0 0-3.056-3.056H26.956a3.066 3.066 0 0 0-3.056 3.056c-.02 1.69 1.366 3.056 3.056 3.056M26.956 64.31h24.182a3.066 3.066 0 0 0 3.056-3.057 3.066 3.066 0 0 0-3.056-3.056H26.956a3.066 3.066 0 0 0-3.056 3.056c-.02 1.69 1.366 3.056 3.056 3.056" clip-rule="evenodd"/><path fill="#315efd" fill-rule="evenodd" d="M26.956 23.784h24.182a3.066 3.066 0 0 0 3.056-3.056 3.066 3.066 0 0 0-3.056-3.056H26.956a3.066 3.066 0 0 0-3.056 3.056c-.02 1.69 1.366 3.056 3.056 3.056M26.956 64.31h24.182a3.066 3.066 0 0 0 3.056-3.057 3.066 3.066 0 0 0-3.056-3.056H26.956a3.066 3.066 0 0 0-3.056 3.056c-.02 1.69 1.366 3.056 3.056 3.056" clip-rule="evenodd" opacity=".5"/><path fill="#000" fill-opacity=".4" fill-rule="evenodd" d="M26.956 23.784h24.182a3.066 3.066 0 0 0 3.056-3.056 3.066 3.066 0 0 0-3.056-3.056H26.956a3.066 3.066 0 0 0-3.056 3.056c-.02 1.69 1.366 3.056 3.056 3.056M26.956 64.31h24.182a3.066 3.066 0 0 0 3.056-3.057 3.066 3.066 0 0 0-3.056-3.056H26.956a3.066 3.066 0 0 0-3.056 3.056c-.02 1.69 1.366 3.056 3.056 3.056" clip-rule="evenodd"/><path fill="url(#b)" fill-rule="evenodd" d="M26.956 23.784h24.182a3.066 3.066 0 0 0 3.056-3.056 3.066 3.066 0 0 0-3.056-3.056H26.956a3.066 3.066 0 0 0-3.056 3.056c-.02 1.69 1.366 3.056 3.056 3.056" clip-rule="evenodd"/><path fill="url(#c)" fill-rule="evenodd" d="M26.956 64.31h24.182a3.066 3.066 0 0 0 3.056-3.057 3.066 3.066 0 0 0-3.056-3.056H26.956a3.066 3.066 0 0 0-3.056 3.056c-.02 1.69 1.366 3.056 3.056 3.056" clip-rule="evenodd"/><path fill="url(#d)" fill-rule="evenodd" d="M26.956 23.784h24.182a3.066 3.066 0 0 0 3.056-3.056 3.066 3.066 0 0 0-3.056-3.056H26.956a3.066 3.066 0 0 0-3.056 3.056c-.02 1.69 1.366 3.056 3.056 3.056" clip-rule="evenodd"/><path fill="url(#e)" fill-rule="evenodd" d="M26.956 64.31h24.182a3.066 3.066 0 0 0 3.056-3.057 3.066 3.066 0 0 0-3.056-3.056H26.956a3.066 3.066 0 0 0-3.056 3.056c-.02 1.69 1.366 3.056 3.056 3.056" clip-rule="evenodd"/><path fill="#969696" fill-rule="evenodd" d="M28.985 31.985a10.8 10.8 0 0 0 6.321 6.397c1.48.55 2.24 1.31 2.164 2.6.02.228 0 .456-.038.665h3.246a4 4 0 0 1-.057-.664c-.038-1.101.456-2.05 1.708-2.468 2.734-.892 4.993-2.885 6.264-5.429-3.018-.455-6.833-1.233-10.781-2.524-3.834-1.253-6.758-.19-8.827 1.423M28.568 51.477a11 11 0 0 0-.209 2.126v4.575h21.374v-4.992c-3.227-.399-7.859-1.215-12.718-2.81-3.626-1.176-6.416-.322-8.447 1.101" clip-rule="evenodd"/><path fill="url(#f)" fill-rule="evenodd" d="M28.985 31.985a10.8 10.8 0 0 0 6.321 6.397c1.48.55 2.24 1.31 2.164 2.6.02.228 0 .456-.038.665h3.246a4 4 0 0 1-.057-.664c-.038-1.101.456-2.05 1.708-2.468 2.734-.892 4.993-2.885 6.264-5.429-3.018-.455-6.833-1.233-10.781-2.524-3.834-1.253-6.758-.19-8.827 1.423" clip-rule="evenodd"/><path fill="url(#g)" fill-rule="evenodd" d="M28.568 51.477a11 11 0 0 0-.209 2.126v4.575h21.374v-4.992c-3.227-.399-7.859-1.215-12.718-2.81-3.626-1.176-6.416-.322-8.447 1.101" clip-rule="evenodd"/><defs><linearGradient id="a" x1="28.57" x2="58.969" y1="24.275" y2="37.842" gradientUnits="userSpaceOnUse"><stop stop-color="#fff" stop-opacity="0"/><stop offset="1" stop-opacity=".15"/></linearGradient><linearGradient id="b" x1="24.196" x2="27.976" y1="17.759" y2="31.213" gradientUnits="userSpaceOnUse"><stop stop-opacity=".15"/><stop offset="1" stop-color="#fff" stop-opacity="0"/></linearGradient><linearGradient id="c" x1="24.196" x2="27.976" y1="58.285" y2="71.738" gradientUnits="userSpaceOnUse"><stop stop-opacity=".15"/><stop offset="1" stop-color="#fff" stop-opacity="0"/></linearGradient><linearGradient id="d" x1="24.196" x2="27.976" y1="17.759" y2="31.213" gradientUnits="userSpaceOnUse"><stop stop-color="#fff" stop-opacity="0"/><stop offset="1" stop-opacity=".15"/></linearGradient><linearGradient id="e" x1="24.196" x2="27.976" y1="58.285" y2="71.738" gradientUnits="userSpaceOnUse"><stop stop-opacity=".15"/><stop offset="1" stop-color="#fff" stop-opacity="0"/></linearGradient><linearGradient id="f" x1="39.295" x2="41.142" y1="29.916" y2="39.241" gradientUnits="userSpaceOnUse"><stop stop-opacity=".15"/><stop offset=".75" stop-opacity="0"/></linearGradient><linearGradient id="g" x1="39.597" x2="40.49" y1="49.753" y2="56.596" gradientUnits="userSpaceOnUse"><stop stop-opacity=".15"/><stop offset=".75" stop-opacity="0"/></linearGradient></defs></svg>