<svg width="20" height="20" fill="none" xmlns="http://www.w3.org/2000/svg"><path d="M5.429 11.086H2.224v5.313h3.205v-5.313ZM3.855 10.24c1.002 0 1.814-.81 1.814-1.81s-.812-1.811-1.814-1.811-1.814.81-1.814 1.81c0 1.001.812 1.812 1.814 1.812Z" fill="#000"/><path d="M11.498 1.286H0v17.41h11.498v-.004c2.512-.034 4.502-.657 5.914-1.856C19.129 15.376 20 13.074 20 9.99c0-1.473-.23-2.796-.68-3.929a7.162 7.162 0 0 0-1.899-2.74c-1.457-1.293-3.502-1.992-5.923-2.032v-.003Zm-.217 1.156c2.228 0 4.086.602 5.371 1.743 1.453 1.29 2.19 3.243 2.19 5.806 0 5.079-2.473 7.548-7.56 7.548H1.157V2.442H11.28Z" fill="#000"/><path d="M10.964 16.404H6.9V3.85h4.064-.164c3.39 0 7 1.336 7 6.294 0 5.241-3.61 6.261-7 6.261h.164Z" fill="#CC1B69"/><mask id="a" style="mask-type:alpha" maskUnits="userSpaceOnUse" x="6" y="3" width="12" height="14"><path d="M10.964 16.404H6.9V3.85h4.064-.164c3.39 0 7 1.336 7 6.294 0 5.241-3.61 6.261-7 6.261h.164Z" fill="#CC1B69"/></mask><g mask="url(#a)" fill="#fff"><path d="M6.199 7.09h1.116c.252 0 .444.02.576.058.177.052.329.145.456.278.126.134.223.297.289.49.065.192.099.43.099.714 0 .248-.032.463-.093.642-.076.22-.184.398-.324.534-.106.103-.25.184-.429.241a1.862 1.862 0 0 1-.54.064h-1.15v-3.02Zm.61.513v1.996h.457c.17 0 .295-.01.37-.029a.561.561 0 0 0 .247-.125.637.637 0 0 0 .16-.291c.042-.135.063-.319.063-.552 0-.233-.021-.412-.063-.537a.689.689 0 0 0-.173-.292.58.58 0 0 0-.284-.142 2.8 2.8 0 0 0-.502-.028h-.275Z"/><path d="M6.116 7.008v3.186h1.232c.233 0 .423-.023.565-.068.192-.061.347-.149.462-.26.149-.145.265-.335.344-.567a2.08 2.08 0 0 0 .098-.67c0-.29-.035-.54-.104-.74a1.418 1.418 0 0 0-.307-.52 1.098 1.098 0 0 0-.492-.3 2.237 2.237 0 0 0-.6-.061H6.117Zm1.199.165c.242 0 .429.018.552.054a.936.936 0 0 1 .42.256c.117.124.208.278.27.46.063.183.094.414.094.687 0 .238-.03.445-.088.616a1.258 1.258 0 0 1-.303.501c-.097.094-.23.168-.397.222-.126.04-.3.06-.515.06H6.28V7.173h1.034Z"/><path d="M6.726 7.52v2.162h.54c.18 0 .307-.01.39-.032a.653.653 0 0 0 .283-.144.71.71 0 0 0 .184-.328c.044-.144.065-.333.065-.576a1.85 1.85 0 0 0-.066-.563.77.77 0 0 0-.195-.326.664.664 0 0 0-.323-.163 2.796 2.796 0 0 0-.52-.03h-.358Zm.358.165c.302 0 .43.015.485.027a.51.51 0 0 1 .244.121c.064.06.115.147.152.258.038.116.058.288.058.511 0 .224-.02.402-.058.528a.562.562 0 0 1-.137.254.482.482 0 0 1-.212.106 1.595 1.595 0 0 1-.35.027h-.374V7.685h.192ZM9.425 10.111v-3.02h2.24v.512h-1.63v.668h1.515v.513h-1.515v.815h1.687v.512H9.425Z"/><path d="M9.342 7.008v3.186h2.463v-.677h-1.688v-.65h1.516v-.678h-1.515v-.504h1.63v-.677H9.341Zm2.24.165v.347h-1.63v.834h1.516v.347H9.952v.98h1.687v.348H9.507V7.172h2.075ZM15.14 10.111h-.666l-.264-.686h-1.208l-.251.686h-.648l1.176-3.02h.65l1.21 3.02Zm-1.126-1.197-.417-1.12-.408 1.12h.825Z"/><path d="m13.222 7.008-1.24 3.186h.827l.25-.686h1.095l.264.686h.843l-1.276-3.186h-.763Zm.651.165 1.144 2.856h-.486l-.264-.686h-1.323l-.25.686h-.47l1.111-2.856h.538Z"/><path d="M13.07 8.996h1.063l-.537-1.44-.526 1.44Zm.528-.962.297.797h-.588l.291-.797ZM15.65 10.111V7.115h.61V9.6h1.52v.512h-2.13Z"/><path d="M15.567 7.033v3.16h2.296v-.676h-1.521V7.033h-.775Zm.61.165v2.484h1.52v.347h-1.965V7.198h.445Z"/></g></svg>