<svg width="3000" height="1418" viewBox="0 0 3000 1418" fill="none" xmlns="http://www.w3.org/2000/svg"><path d="M2039.9 1114.38c50.49 18.98 135.07 16.45 227.22-43 124.96-80.958 218.38-77.164 272.65-63.25 44.19 11.38 73.22 29.09 88.37 63.25 30.29 69.57 1.26 112.57-16.41 166.96-6.31 17.71-10.1 41.75-12.63 58.19-5.05-37.95-1.26-73.37 3.79-92.34 11.36-45.54 16.41-78.42-8.84-116.37-17.67-26.56-49.23-36.68-94.67-44.27-75.74-11.39-174.2 34.15-177.99 36.68-128.75 70.83-204.49 69.57-244.88 54.39-15.15-3.79-27.78-11.38-36.61-20.24zm752.34 178.35c5.05 5.06 12.62 13.92 17.67 27.83 7.57 17.71 5.05 40.48-6.31 58.19-15.15 24.03-44.18 36.68-80.79 37.95-36.61 1.26-65.64-10.12-87.1-32.89 8.84 5.06 17.67 8.85 27.77 10.12 34.08 7.59 74.48-1.27 100.99-24.04 22.72-18.97 25.24-56.92 27.77-77.16zM2418.59 394.653c-1.26 16.444-13.89 44.272-13.89 67.04 0 27.828 6.31 54.391 15.15 70.835 22.72 40.477 58.07 64.51 95.94 65.775 35.34 1.265 73.21-12.649 92.15-46.801 26.5-48.067 22.72-77.16 10.09-120.167-6.31-21.503-15.14-68.304-12.62-88.543 2.53-39.212 32.82-104.987 94.68-136.61 17.67-8.854 37.86-13.914 59.32-12.649-31.55 5.06-64.37 20.239-85.83 60.716-34.09 60.715-41.66 91.073-20.2 175.822 7.57 29.092 0 74.629-25.25 111.311-15.14 22.769-49.23 60.716-103.51 61.981-8.83 0-138.85-1.265-138.85-139.14-1.26-39.212 32.82-69.57 32.82-69.57zM2380.73 382.002c-27.77 18.973-63.12 58.185-79.53 131.55-8.83 36.682-15.15 73.364-21.46 108.782-13.88 78.424-27.77 151.788-60.59 209.974-36.61 63.245-63.11 99.928-97.2 106.252 30.3-18.973 70.69-69.57 97.2-197.325 6.31-32.888 12.62-63.245 17.67-93.603 26.51-149.259 44.18-245.392 143.91-265.63zM2756.89 1177.63c-21.46-41.74-41.65-92.34-41.65-142.94 0-12.65 0-24.03-1.27-36.679-2.52-92.338 32.82-204.915 188.09-432.598 124.97-184.676 23.98-312.432 10.1-327.611 46.7 29.093 87.1 82.219 84.57 178.352-2.52 80.954-44.18 137.875-80.78 187.206-30.3 40.477-69.43 97.398-90.89 145.464-92.15 203.65-97.2 333.936-68.17 428.806z" fill="#81858B"/><path d="M2017.18 918.317l89.62 40.477 8.84 18.973 21.46 3.795 46.7 35.418-27.77 35.42-65.64 25.3-37.87-30.36v11.38h-21.46s-26.5-55.65-80.78-72.098c0 0-18.94 15.178-42.92 24.038-22.72 8.85-50.49-2.53-59.33-25.303-8.84-22.768 1.26-48.067 23.98-58.186-1.26 1.265 84.58-15.179 145.17-8.854z" fill="#459AD4"/><path d="M2734.17 91.073c0-11.384 10.1-21.503 21.46-21.503 11.36 0 21.46 10.12 21.46 21.503 0 11.384-10.1 21.504-21.46 21.504-12.62 0-21.46-10.12-21.46-21.504zM2576.38 130.283c0-13.914 11.36-26.563 26.51-26.563 13.89 0 25.25 11.384 25.25 26.563 0 15.179-11.36 25.298-25.25 25.298-15.15 0-26.51-11.384-26.51-25.298zM2431.22 240.327c0-15.179 13.88-27.828 30.29-27.828 16.41 0 30.3 12.649 30.3 27.828 0 15.178-13.89 27.827-30.3 27.827-17.67 0-30.29-12.649-30.29-27.827z" fill="#81858B"/><path d="M107.297 664.078c-11.36-5.06-22.721-7.589-32.82-7.589-15.148 0-22.721 6.324-22.721 16.443 0 11.385 7.573 16.444 25.246 25.299 26.508 12.649 41.656 21.503 41.656 50.596 0 31.622-21.46 51.861-59.329 51.861-13.885 0-27.77-2.53-41.656-7.589l2.525-30.358c13.885 6.324 25.246 10.119 37.87 10.119 15.147 0 23.983-7.589 23.983-18.974 0-13.914-10.098-17.708-31.558-29.092-21.46-11.385-35.345-20.239-35.345-45.537 0-30.358 21.46-50.596 58.067-50.596 11.36 0 22.722 2.53 35.345 5.059l-1.263 30.358zM215.857 704.551c-6.311-3.795-13.885-6.325-20.197-6.325-18.934 0-27.77 11.384-27.77 34.153 0 25.298 10.098 39.212 26.508 39.212 8.836 0 16.41-2.53 23.984-6.325l1.262 27.828c-11.36 3.795-23.984 6.325-35.344 6.325-34.083 0-55.542-25.298-55.542-65.775 0-40.477 22.721-63.246 58.066-63.246 10.099 0 20.197 1.265 30.296 6.325l-1.263 27.828zM265.084 617.274v68.305c7.574-10.119 17.672-16.444 31.558-16.444 22.721 0 35.344 13.914 35.344 41.742v86.014h-36.607v-75.894c0-12.65-3.787-18.974-13.885-18.974-10.099 0-16.41 8.854-16.41 25.298v69.57h-36.607V617.274h36.607zM403.937 670.398c-36.607 0-56.804 22.769-56.804 64.51 0 41.742 21.459 64.511 56.804 64.511 36.607 0 56.804-22.769 56.804-64.511 0-41.741-20.197-64.51-56.804-64.51zm0 26.563c11.361 0 18.935 12.649 18.935 37.947 0 25.299-7.574 37.948-18.935 37.948-11.361 0-18.935-12.649-18.935-37.948 0-25.298 7.574-37.947 18.935-37.947zM511.235 672.933v75.895c0 12.649 3.787 18.973 13.886 18.973 10.098 0 16.41-8.854 16.41-25.298v-70.834h36.607v97.397c0 8.855 0 17.709 1.262 26.563h-32.82c-1.262-6.324-1.262-12.649-1.262-18.973-6.312 13.914-18.935 21.503-34.083 21.503-22.721 0-35.344-13.914-35.344-41.742v-84.748h35.344v1.264zM626.107 672.927l17.673 92.339 17.672-92.339h40.394l17.672 92.339 18.935-92.339h34.083l-32.821 123.961h-39.131l-18.935-93.603-20.197 93.603h-40.394L589.5 672.927h36.607zM812.931 745.033h70.689v-7.589c0-43.007-20.197-65.775-53.017-65.775-31.558 0-53.017 26.563-53.017 65.775 0 40.477 22.722 63.245 61.853 63.245 12.623 0 25.247-2.53 39.132-8.854l-1.262-26.563c-11.361 6.324-21.46 10.119-32.82 10.119-18.935-1.265-29.034-11.384-31.558-30.358zm36.607-20.238h-36.607c1.262-20.239 7.574-29.093 20.197-29.093 11.361 0 17.672 8.854 17.672 24.033-1.262 0-1.262 1.265-1.262 5.06zM1002.28 796.889h-36.607v-75.894c0-12.65-3.787-18.974-13.886-18.974-10.098 0-16.41 8.854-16.41 25.298v69.57H898.77v-97.398c0-8.854 0-17.709-1.262-26.563h32.82c1.262 6.325 1.262 12.649 1.262 18.974 6.312-13.914 18.935-21.504 34.083-21.504 22.721 0 35.347 13.914 35.347 41.742v84.749h1.26zM1074.23 719.735h-58.07v27.828h58.07v-27.828zM1091.9 631.184v165.703h41.65c58.07 0 88.37-29.093 88.37-83.484 0-56.92-27.77-83.483-88.37-83.483h-41.65v1.264zm37.87 27.828h5.05c32.82 0 47.97 17.709 47.97 55.656 0 36.683-16.42 54.391-47.97 54.391h-5.05V659.012zM1276.2 672.933v75.895c0 12.649 3.78 18.973 13.88 18.973 10.1 0 16.41-8.854 16.41-25.298v-70.834h36.61v97.397c0 8.855 0 17.709 1.26 26.563h-32.82c-1.26-6.324-1.26-12.649-1.26-18.973-6.31 13.914-18.94 21.503-34.08 21.503-22.73 0-35.35-13.914-35.35-41.742v-84.748h35.35v1.264zM1399.9 796.891h-36.6V672.93h36.6v123.961zm1.27-145.464h-37.87v-31.623h36.6v31.623h1.27zM1447.87 672.927l21.46 91.074 23.99-91.074h35.34l-37.87 123.961h-44.18l-37.87-123.961h39.13zM1566.53 745.033h69.43v-7.589c0-43.007-20.2-65.775-53.02-65.775-31.56 0-53.02 26.563-53.02 65.775 0 40.477 22.72 63.245 61.86 63.245 12.62 0 25.24-2.53 39.13-8.854l-1.27-26.563c-10.09 6.324-21.45 10.119-32.82 10.119-18.93-1.265-27.77-11.384-30.29-30.358zm36.61-20.238h-36.61c1.26-20.239 7.57-29.093 20.2-29.093 11.36 0 17.67 8.854 17.67 24.033-1.26 0-1.26 1.265-1.26 5.06zM1687.71 617.274h-35.34v179.617h35.34V617.274zM1807.64 726.054c0-39.212-10.1-55.656-50.5-55.656-12.62 0-27.77 2.53-42.92 8.855l2.53 27.828c8.84-7.59 21.46-11.385 31.56-11.385 15.14 0 23.98 6.325 23.98 20.239v3.795h-12.62c-37.87 0-58.07 15.178-58.07 43.006 0 22.769 15.15 37.948 35.35 37.948 15.14 0 26.5-6.325 36.6-18.974l1.27 16.444h34.08c-1.26-8.855-1.26-16.444-1.26-25.298v-46.802zm-35.35 12.649v7.59c0 18.973-6.31 29.092-20.2 29.092-10.09 0-16.41-6.324-16.41-16.443 0-12.649 8.84-18.974 26.51-18.974 1.26-1.265 5.05-1.265 10.1-1.265zM1931.34 796.889h-36.6v-75.894c0-12.65-3.79-18.974-13.89-18.974-10.1 0-16.41 8.854-16.41 25.298v69.57h-36.61v-97.398c0-8.854 0-17.709-1.26-26.563h32.82c1.26 6.325 1.26 12.649 1.26 18.974 6.31-13.914 18.94-21.504 34.09-21.504 22.72 0 35.34 13.914 35.34 41.742v84.749h1.26zM2020.97 617.274v72.1c-7.58-13.914-17.68-20.239-31.56-20.239-27.77 0-44.18 21.504-44.18 64.511 0 43.007 16.41 64.51 42.92 64.51 15.14 0 25.24-7.59 32.82-21.504 0 7.59 0 13.914 1.26 18.974h34.08V617.274h-35.34zm0 112.577v11.384c0 21.503-7.58 31.623-18.94 31.623-12.62 0-18.93-12.649-18.93-36.683 0-24.033 6.31-36.682 18.93-36.682 11.36-1.265 18.94 8.854 18.94 30.358zM1197.94 418.687c-13.89-6.325-27.77-10.12-41.66-10.12-49.23 0-79.53 31.623-79.53 75.895 0 34.152 21.46 58.185 54.28 58.185 8.84 0 17.68-1.265 27.77-3.794l11.37-53.126h-36.61l3.79-18.974h59.32l-18.93 87.279c-15.15 5.059-30.3 7.589-46.71 7.589-21.46 0-37.87-3.795-51.75-13.914-17.67-13.914-27.77-35.417-27.77-60.715 0-27.828 11.36-54.391 32.82-72.1 16.41-15.179 41.65-24.033 71.95-24.033 16.41 0 32.82 2.529 49.23 8.854l-7.57 18.974zM1316.6 503.43c1.26-8.854 2.52-15.179 2.52-21.503 0-29.093-17.67-46.802-45.44-46.802-18.94 0-35.35 7.59-47.97 22.769-11.36 13.914-17.67 31.622-17.67 50.596 0 32.888 20.2 54.391 53.02 54.391 12.62 0 23.98-2.53 36.6-6.325l2.53-18.973c-11.36 5.059-21.46 7.589-32.82 7.589-22.72 0-36.61-12.649-36.61-34.152v-6.325h85.84v-1.265zm-17.67-15.179h-64.38c5.05-24.033 21.46-37.947 39.13-37.947 16.41 0 26.51 11.384 26.51 29.093-1.26 2.53-1.26 5.06-1.26 8.854zM1495.84 557.821h-22.72l15.15-70.834c1.26-3.795 1.26-7.59 1.26-11.385 0-13.914-7.57-21.503-18.93-21.503-17.68 0-30.3 15.179-36.61 44.272l-12.62 60.715h-22.73l15.15-70.835c1.26-5.059 1.26-10.119 1.26-13.913 0-12.65-7.57-20.239-18.93-20.239-17.67 0-31.56 13.914-36.61 41.742l-13.88 61.98h-20.2l25.25-120.166h20.19l-3.78 18.974c11.36-15.179 23.98-21.504 40.39-21.504s26.51 8.855 30.3 25.299c11.36-17.709 23.98-25.299 41.65-25.299 21.46 0 34.08 12.649 34.08 35.418 0 5.059 0 8.854-1.26 13.914l-16.41 73.364zM1634.7 503.43c1.26-8.854 2.52-15.179 2.52-21.503 0-29.093-17.67-46.802-45.44-46.802-18.93 0-35.34 7.59-47.97 22.769-11.36 13.914-17.67 31.622-17.67 50.596 0 32.888 20.2 54.391 53.02 54.391 12.62 0 23.98-2.53 36.6-6.325l2.53-18.973c-11.36 5.059-21.46 7.589-32.82 7.589-22.72 0-36.61-12.649-36.61-34.152v-6.325h85.84v-1.265zm-18.94-15.179h-64.37c5.05-24.033 21.46-37.947 39.13-37.947 16.41 0 26.51 11.384 26.51 29.093 0 2.53 0 5.06-1.27 8.854zM1753.36 503.43c1.26-8.854 2.52-15.179 2.52-21.503 0-29.093-17.67-46.802-45.44-46.802-18.94 0-36.61 7.59-47.97 22.769-11.36 13.914-17.67 31.622-17.67 50.596 0 32.888 20.19 54.391 53.01 54.391 12.63 0 23.99-2.53 36.61-6.325l1.26-18.973c-11.36 5.059-21.46 7.589-32.82 7.589-22.72 0-35.34-12.649-35.34-34.152v-6.325h85.84v-1.265zm-17.68-15.179h-64.37c5.04-24.033 21.45-37.947 39.13-37.947 16.41 0 26.51 11.384 26.51 29.093-1.27 2.53-1.27 5.06-1.27 8.854zM1868.23 557.821h-22.73l13.89-65.775c1.26-5.059 1.26-10.119 1.26-15.179 0-15.179-8.83-22.768-21.46-22.768-18.93 0-35.34 15.179-40.39 44.272l-12.63 59.45h-22.72l25.25-121.431h20.2l-5.05 21.504c11.36-15.179 26.51-22.769 41.65-22.769 22.73 0 37.87 15.179 37.87 39.212 0 6.325-1.26 13.914-2.52 22.769l-12.62 60.715zM1950.27 437.658h30.3l-3.79 17.708h-30.29l-12.63 59.451c-1.26 5.059-1.26 10.119-1.26 12.649 0 8.854 5.05 13.914 13.89 13.914 3.78 0 7.57-1.265 12.62-2.53l-3.79 17.709c-6.31 1.265-10.1 2.529-15.14 2.529-20.2 0-31.56-10.119-31.56-27.827 0-3.795 0-8.855 1.26-13.914l13.89-61.981h-23.99l3.79-17.708h23.98l6.31-29.093 23.99-7.59-7.58 36.683zM2084.08 503.43c2.53-8.854 2.53-15.179 2.53-21.503 0-29.093-17.68-46.802-45.45-46.802-18.93 0-36.6 7.59-47.96 22.769-11.36 13.914-17.68 31.622-17.68 50.596 0 32.888 20.2 54.391 53.02 54.391 12.62 0 23.98-2.53 36.61-6.325l1.26-18.973c-11.36 5.059-21.46 7.589-32.82 7.589-22.72 0-35.34-12.649-35.34-34.152v-6.325h85.83v-1.265zm-17.67-15.179h-64.38c5.05-24.033 21.46-37.947 39.13-37.947 16.41 0 26.51 11.384 26.51 29.093 0 2.53-1.26 5.06-1.26 8.854zM462.007 135.345C357.235 27.828 109.821 7.589 99.723 7.589 95.936 7.59 25.246 3.795 0 12.65l5.05-3.795C30.294 1.264 90.886 0 94.673 0c11.36 0 270.135 15.179 376.169 122.696 29.033 30.358 21.459 50.596 17.673 56.921-3.787 7.589-12.624 12.649-20.197 11.384-5.05-1.265-11.361-5.06-11.361-15.179-2.525-21.503 16.41-44.272 17.672-45.537 1.262-2.529 141.379-129.02 371.12-35.417 3.787 2.53 41.657 20.238 51.755 32.888l5.05 7.589c-10.099-12.649-46.706-31.623-51.755-32.888-231.004-93.603-364.809 35.418-366.071 36.683-3.787 5.059-15.148 21.503-13.886 34.152v2.53s2.525-1.265 3.787-3.795c2.525-3.795 8.836-15.179-12.623-36.682z" fill="#000"/><path d="M11.36 309.902h2067.67" stroke="#000" stroke-width=".5"/></svg>