<svg width="3000" height="1418" viewBox="0 0 3000 1418" fill="none" xmlns="http://www.w3.org/2000/svg">
    <path d="M2039.9 1114.38C2090.39 1133.36 2174.97 1130.83 2267.12 1071.38C2392.08 990.422 2485.5 994.216 2539.77 1008.13C2583.96 1019.51 2612.99 1037.22 2628.14 1071.38C2658.43 1140.95 2629.4 1183.95 2611.73 1238.34C2605.42 1256.05 2601.63 1280.09 2599.1 1296.53C2594.05 1258.58 2597.84 1223.16 2602.89 1204.19C2614.25 1158.65 2619.3 1125.77 2594.05 1087.82C2576.38 1061.26 2544.82 1051.14 2499.38 1043.55C2423.64 1032.16 2325.18 1077.7 2321.39 1080.23C2192.64 1151.06 2116.9 1149.8 2076.51 1134.62C2061.36 1130.83 2048.73 1123.24 2039.9 1114.38ZM2792.24 1292.73C2797.29 1297.79 2804.86 1306.65 2809.91 1320.56C2817.48 1338.27 2814.96 1361.04 2803.6 1378.75C2788.45 1402.78 2759.42 1415.43 2722.81 1416.7C2686.2 1417.96 2657.17 1406.58 2635.71 1383.81C2644.55 1388.87 2653.38 1392.66 2663.48 1393.93C2697.56 1401.52 2737.96 1392.66 2764.47 1369.89C2787.19 1350.92 2789.71 1312.97 2792.24 1292.73Z" fill="#81858B"/>
    <path d="M2418.59 394.653C2417.33 411.097 2404.7 438.925 2404.7 461.693C2404.7 489.521 2411.01 516.084 2419.85 532.528C2442.57 573.005 2477.92 597.038 2515.79 598.303C2551.13 599.568 2589 585.654 2607.94 551.502C2634.44 503.435 2630.66 474.342 2618.03 431.335C2611.72 409.832 2602.89 363.031 2605.41 342.792C2607.94 303.58 2638.23 237.805 2700.09 206.182C2717.76 197.328 2737.95 192.268 2759.41 193.533C2727.86 198.593 2695.04 213.772 2673.58 254.249C2639.49 314.964 2631.92 345.322 2653.38 430.071C2660.95 459.163 2653.38 504.7 2628.13 541.382C2612.99 564.151 2578.9 602.098 2524.62 603.363C2515.79 603.363 2385.77 602.098 2385.77 464.223C2384.51 425.011 2418.59 394.653 2418.59 394.653Z" fill="#81858B"/>
    <path d="M2380.73 382.002C2352.96 400.975 2317.61 440.187 2301.2 513.552C2292.37 550.234 2286.05 586.916 2279.74 622.334C2265.86 700.758 2251.97 774.122 2219.15 832.308C2182.54 895.553 2156.04 932.236 2121.95 938.56C2152.25 919.587 2192.64 868.99 2219.15 741.235C2225.46 708.347 2231.77 677.99 2236.82 647.632C2263.33 498.373 2281 402.24 2380.73 382.002Z" fill="#81858B"/>
    <path d="M2756.89 1177.63C2735.43 1135.89 2715.24 1085.29 2715.24 1034.69C2715.24 1022.04 2715.24 1010.66 2713.97 998.011C2711.45 905.673 2746.79 793.096 2902.06 565.413C3027.03 380.737 2926.04 252.981 2912.16 237.802C2958.86 266.895 2999.26 320.021 2996.73 416.154C2994.21 497.108 2952.55 554.029 2915.95 603.36C2885.65 643.837 2846.52 700.758 2825.06 748.824C2732.91 952.474 2727.86 1082.76 2756.89 1177.63Z" fill="#81858B"/>
    <path d="M2017.18 918.317L2106.8 958.794L2115.64 977.767L2137.1 981.562L2183.8 1016.98L2156.03 1052.4L2090.39 1077.7L2052.52 1047.34V1058.72H2031.06C2031.06 1058.72 2004.56 1003.07 1950.28 986.622C1950.28 986.622 1931.34 1001.8 1907.36 1010.66C1884.64 1019.51 1856.87 1008.13 1848.03 985.357C1839.19 962.589 1849.29 937.29 1872.01 927.171C1870.75 928.436 1956.59 911.992 2017.18 918.317Z" fill="#459AD4"/>
    <path d="M2734.17 91.0732C2734.17 79.6891 2744.27 69.5698 2755.63 69.5698C2766.99 69.5698 2777.09 79.6891 2777.09 91.0732C2777.09 102.457 2766.99 112.577 2755.63 112.577C2743.01 112.577 2734.17 102.457 2734.17 91.0732Z" fill="#81858B"/>
    <path d="M2576.38 130.283C2576.38 116.369 2587.74 103.72 2602.89 103.72C2616.78 103.72 2628.14 115.104 2628.14 130.283C2628.14 145.462 2616.78 155.581 2602.89 155.581C2587.74 155.581 2576.38 144.197 2576.38 130.283Z" fill="#81858B"/>
    <path d="M2431.22 240.327C2431.22 225.148 2445.1 212.499 2461.51 212.499C2477.92 212.499 2491.81 225.148 2491.81 240.327C2491.81 255.505 2477.92 268.154 2461.51 268.154C2443.84 268.154 2431.22 255.505 2431.22 240.327Z" fill="#81858B"/>
    <path d="M107.297 664.078C95.9366 659.018 84.5757 656.489 74.4772 656.489C59.3294 656.489 51.7556 662.813 51.7556 672.932C51.7556 684.317 59.3294 689.376 77.0018 698.231C103.51 710.88 118.658 719.734 118.658 748.827C118.658 780.449 97.1989 800.688 59.3294 800.688C45.444 800.688 31.5585 798.158 17.6731 793.099L20.1977 762.741C34.0832 769.065 45.444 772.86 58.0671 772.86C73.2149 772.86 82.0511 765.271 82.0511 753.886C82.0511 739.972 71.9526 736.178 50.4932 724.794C29.0339 713.409 15.1484 704.555 15.1484 679.257C15.1484 648.899 36.6078 628.661 73.2149 628.661C84.5757 628.661 95.9366 631.191 108.56 633.72L107.297 664.078Z" fill="black"/>
    <path d="M215.857 704.551C209.546 700.756 201.972 698.226 195.66 698.226C176.726 698.226 167.89 709.61 167.89 732.379C167.89 757.677 177.988 771.591 194.398 771.591C203.234 771.591 210.808 769.061 218.382 765.266L219.644 793.094C208.284 796.889 195.66 799.419 184.3 799.419C150.217 799.419 128.758 774.121 128.758 733.644C128.758 693.167 151.479 670.398 186.824 670.398C196.923 670.398 207.021 671.663 217.12 676.723L215.857 704.551Z" fill="black"/>
    <path d="M265.084 617.274V685.579C272.658 675.46 282.756 669.135 296.642 669.135C319.363 669.135 331.986 683.049 331.986 710.877V796.891H295.379V720.997C295.379 708.347 291.592 702.023 281.494 702.023C271.395 702.023 265.084 710.877 265.084 727.321V796.891H228.477V617.274H265.084Z" fill="black"/>
    <path d="M403.937 670.398C367.33 670.398 347.133 693.167 347.133 734.908C347.133 776.65 368.592 799.419 403.937 799.419C440.544 799.419 460.741 776.65 460.741 734.908C460.741 693.167 440.544 670.398 403.937 670.398ZM403.937 696.961C415.298 696.961 422.872 709.61 422.872 734.908C422.872 760.207 415.298 772.856 403.937 772.856C392.576 772.856 385.002 760.207 385.002 734.908C385.002 709.61 392.576 696.961 403.937 696.961Z" fill="black"/>
    <path d="M511.235 672.933V748.828C511.235 761.477 515.022 767.801 525.121 767.801C535.219 767.801 541.531 758.947 541.531 742.503V671.669H578.138V769.066C578.138 777.921 578.138 786.775 579.4 795.629H546.58C545.318 789.305 545.318 782.98 545.318 776.656C539.006 790.57 526.383 798.159 511.235 798.159C488.514 798.159 475.891 784.245 475.891 756.417V671.669H511.235V672.933Z" fill="black"/>
    <path d="M626.107 672.927L643.78 765.266L661.452 672.927H701.846L719.518 765.266L738.453 672.927H772.536L739.715 796.888H700.584L681.649 703.285L661.452 796.888H621.058L589.5 672.927H626.107Z" fill="black"/>
    <path d="M812.931 745.033H883.62C883.62 742.503 883.62 739.974 883.62 737.444C883.62 694.437 863.423 671.669 830.603 671.669C799.045 671.669 777.586 698.232 777.586 737.444C777.586 777.921 800.308 800.689 839.439 800.689C852.062 800.689 864.686 798.159 878.571 791.835L877.309 765.272C865.948 771.596 855.849 775.391 844.489 775.391C825.554 774.126 815.455 764.007 812.931 745.033ZM849.538 724.795H812.931C814.193 704.556 820.505 695.702 833.128 695.702C844.489 695.702 850.8 704.556 850.8 719.735C849.538 719.735 849.538 721 849.538 724.795Z" fill="black"/>
    <path d="M1002.28 796.889H965.673V720.995C965.673 708.345 961.886 702.021 951.787 702.021C941.689 702.021 935.377 710.875 935.377 727.319V796.889H898.77V699.491C898.77 690.637 898.77 681.782 897.508 672.928H930.328C931.59 679.253 931.59 685.577 931.59 691.902C937.902 677.988 950.525 670.398 965.673 670.398C988.394 670.398 1001.02 684.312 1001.02 712.14V796.889H1002.28Z" fill="black"/>
    <path d="M1074.23 719.735H1016.16V747.563H1074.23V719.735Z" fill="black"/>
    <path d="M1091.9 631.184V796.887H1133.55C1191.62 796.887 1221.92 767.794 1221.92 713.403C1221.92 656.483 1194.15 629.92 1133.55 629.92H1091.9V631.184ZM1129.77 659.012H1134.82C1167.64 659.012 1182.79 676.721 1182.79 714.668C1182.79 751.351 1166.37 769.059 1134.82 769.059H1129.77V659.012Z" fill="black"/>
    <path d="M1276.2 672.933V748.828C1276.2 761.477 1279.98 767.801 1290.08 767.801C1300.18 767.801 1306.49 758.947 1306.49 742.503V671.669H1343.1V769.066C1343.1 777.921 1343.1 786.775 1344.36 795.629H1311.54C1310.28 789.305 1310.28 782.98 1310.28 776.656C1303.97 790.57 1291.34 798.159 1276.2 798.159C1253.47 798.159 1240.85 784.245 1240.85 756.417V671.669H1276.2V672.933Z" fill="black"/>
    <path d="M1399.9 796.891H1363.3V672.93H1399.9V796.891ZM1401.17 651.427H1363.3V619.804H1399.9V651.427H1401.17Z" fill="black"/>
    <path d="M1447.87 672.927L1469.33 764.001L1493.32 672.927H1528.66L1490.79 796.888H1446.61L1408.74 672.927H1447.87Z" fill="black"/>
    <path d="M1566.53 745.033H1635.96C1635.96 742.503 1635.96 739.974 1635.96 737.444C1635.96 694.437 1615.76 671.669 1582.94 671.669C1551.38 671.669 1529.92 698.232 1529.92 737.444C1529.92 777.921 1552.64 800.689 1591.78 800.689C1604.4 800.689 1617.02 798.159 1630.91 791.835L1629.64 765.272C1619.55 771.596 1608.19 775.391 1596.82 775.391C1577.89 774.126 1569.05 764.007 1566.53 745.033ZM1603.14 724.795H1566.53C1567.79 704.556 1574.1 695.702 1586.73 695.702C1598.09 695.702 1604.4 704.556 1604.4 719.735C1603.14 719.735 1603.14 721 1603.14 724.795Z" fill="black"/>
    <path d="M1687.71 617.274H1652.37V796.891H1687.71V617.274Z" fill="black"/>
    <path d="M1807.64 726.054C1807.64 686.842 1797.54 670.398 1757.14 670.398C1744.52 670.398 1729.37 672.928 1714.22 679.253L1716.75 707.081C1725.59 699.491 1738.21 695.696 1748.31 695.696C1763.45 695.696 1772.29 702.021 1772.29 715.935V719.73H1759.67C1721.8 719.73 1701.6 734.908 1701.6 762.736C1701.6 785.505 1716.75 800.684 1736.95 800.684C1752.09 800.684 1763.45 794.359 1773.55 781.71L1774.82 798.154H1808.9C1807.64 789.299 1807.64 781.71 1807.64 772.856V726.054ZM1772.29 738.703V746.293C1772.29 765.266 1765.98 775.385 1752.09 775.385C1742 775.385 1735.68 769.061 1735.68 758.942C1735.68 746.293 1744.52 739.968 1762.19 739.968C1763.45 738.703 1767.24 738.703 1772.29 738.703Z" fill="black"/>
    <path d="M1931.34 796.889H1894.74V720.995C1894.74 708.345 1890.95 702.021 1880.85 702.021C1870.75 702.021 1864.44 710.875 1864.44 727.319V796.889H1827.83V699.491C1827.83 690.637 1827.83 681.782 1826.57 672.928H1859.39C1860.65 679.253 1860.65 685.577 1860.65 691.902C1866.96 677.988 1879.59 670.398 1894.74 670.398C1917.46 670.398 1930.08 684.312 1930.08 712.14V796.889H1931.34Z" fill="black"/>
    <path d="M2020.97 617.274V689.374C2013.39 675.46 2003.29 669.135 1989.41 669.135C1961.64 669.135 1945.23 690.639 1945.23 733.646C1945.23 776.653 1961.64 798.156 1988.15 798.156C2003.29 798.156 2013.39 790.566 2020.97 776.652C2020.97 784.242 2020.97 790.566 2022.23 795.626H2056.31V617.274H2020.97ZM2020.97 729.851V741.235C2020.97 762.738 2013.39 772.858 2002.03 772.858C1989.41 772.858 1983.1 760.209 1983.1 736.175C1983.1 712.142 1989.41 699.493 2002.03 699.493C2013.39 698.228 2020.97 708.347 2020.97 729.851Z" fill="black"/>
    <path d="M1197.94 418.687C1184.05 412.362 1170.17 408.567 1156.28 408.567C1107.05 408.567 1076.75 440.19 1076.75 484.462C1076.75 518.614 1098.21 542.647 1131.03 542.647C1139.87 542.647 1148.71 541.382 1158.8 538.853L1170.17 485.727H1133.56L1137.35 466.753H1196.67L1177.74 554.032C1162.59 559.091 1147.44 561.621 1131.03 561.621C1109.57 561.621 1093.16 557.826 1079.28 547.707C1061.61 533.793 1051.51 512.29 1051.51 486.992C1051.51 459.164 1062.87 432.601 1084.33 414.892C1100.74 399.713 1125.98 390.859 1156.28 390.859C1172.69 390.859 1189.1 393.388 1205.51 399.713L1197.94 418.687Z" fill="black"/>
    <path d="M1316.6 503.43C1317.86 494.576 1319.12 488.251 1319.12 481.927C1319.12 452.834 1301.45 435.125 1273.68 435.125C1254.74 435.125 1238.33 442.715 1225.71 457.894C1214.35 471.808 1208.04 489.516 1208.04 508.49C1208.04 541.378 1228.24 562.881 1261.06 562.881C1273.68 562.881 1285.04 560.351 1297.66 556.556L1300.19 537.583C1288.83 542.642 1278.73 545.172 1267.37 545.172C1244.65 545.172 1230.76 532.523 1230.76 511.02C1230.76 509.755 1230.76 508.49 1230.76 504.695H1316.6V503.43ZM1298.93 488.251H1234.55C1239.6 464.218 1256.01 450.304 1273.68 450.304C1290.09 450.304 1300.19 461.688 1300.19 479.397C1298.93 481.927 1298.93 484.457 1298.93 488.251Z" fill="black"/>
    <path d="M1495.84 557.821H1473.12L1488.27 486.987C1489.53 483.192 1489.53 479.397 1489.53 475.602C1489.53 461.688 1481.96 454.099 1470.6 454.099C1452.92 454.099 1440.3 469.278 1433.99 498.371L1421.37 559.086H1398.64L1413.79 488.251C1415.05 483.192 1415.05 478.132 1415.05 474.338C1415.05 461.688 1407.48 454.099 1396.12 454.099C1378.45 454.099 1364.56 468.013 1359.51 495.841L1345.63 557.821H1325.43L1350.68 437.655H1370.87L1367.09 456.629C1378.45 441.45 1391.07 435.125 1407.48 435.125C1423.89 435.125 1433.99 443.98 1437.78 460.424C1449.14 442.715 1461.76 435.125 1479.43 435.125C1500.89 435.125 1513.51 447.774 1513.51 470.543C1513.51 475.602 1513.51 479.397 1512.25 484.457L1495.84 557.821Z" fill="black"/>
    <path d="M1634.7 503.43C1635.96 494.576 1637.22 488.251 1637.22 481.927C1637.22 452.834 1619.55 435.125 1591.78 435.125C1572.85 435.125 1556.44 442.715 1543.81 457.894C1532.45 471.808 1526.14 489.516 1526.14 508.49C1526.14 541.378 1546.34 562.881 1579.16 562.881C1591.78 562.881 1603.14 560.351 1615.76 556.556L1618.29 537.583C1606.93 542.642 1596.83 545.172 1585.47 545.172C1562.75 545.172 1548.86 532.523 1548.86 511.02C1548.86 509.755 1548.86 508.49 1548.86 504.695H1634.7V503.43ZM1615.76 488.251H1551.39C1556.44 464.218 1572.85 450.304 1590.52 450.304C1606.93 450.304 1617.03 461.688 1617.03 479.397C1617.03 481.927 1617.03 484.457 1615.76 488.251Z" fill="black"/>
    <path d="M1753.36 503.43C1754.62 494.576 1755.88 488.251 1755.88 481.927C1755.88 452.834 1738.21 435.125 1710.44 435.125C1691.5 435.125 1673.83 442.715 1662.47 457.894C1651.11 471.808 1644.8 489.516 1644.8 508.49C1644.8 541.378 1664.99 562.881 1697.81 562.881C1710.44 562.881 1721.8 560.351 1734.42 556.556L1735.68 537.583C1724.32 542.642 1714.22 545.172 1702.86 545.172C1680.14 545.172 1667.52 532.523 1667.52 511.02C1667.52 509.755 1667.52 508.49 1667.52 504.695H1753.36V503.43ZM1735.68 488.251H1671.31C1676.35 464.218 1692.76 450.304 1710.44 450.304C1726.85 450.304 1736.95 461.688 1736.95 479.397C1735.68 481.927 1735.68 484.457 1735.68 488.251Z" fill="black"/>
    <path d="M1868.23 557.821H1845.5L1859.39 492.046C1860.65 486.987 1860.65 481.927 1860.65 476.867C1860.65 461.688 1851.82 454.099 1839.19 454.099C1820.26 454.099 1803.85 469.278 1798.8 498.371L1786.17 557.821H1763.45L1788.7 436.39H1808.9L1803.85 457.894C1815.21 442.715 1830.36 435.125 1845.5 435.125C1868.23 435.125 1883.37 450.304 1883.37 474.337C1883.37 480.662 1882.11 488.251 1880.85 497.106L1868.23 557.821Z" fill="black"/>
    <path d="M1950.27 437.658H1980.57L1976.78 455.366H1946.49L1933.86 514.817C1932.6 519.876 1932.6 524.936 1932.6 527.466C1932.6 536.32 1937.65 541.38 1946.49 541.38C1950.27 541.38 1954.06 540.115 1959.11 538.85L1955.32 556.559C1949.01 557.824 1945.22 559.088 1940.18 559.088C1919.98 559.088 1908.62 548.969 1908.62 531.261C1908.62 527.466 1908.62 522.406 1909.88 517.347L1923.77 455.366H1899.78L1903.57 437.658H1927.55L1933.86 408.565L1957.85 400.975L1950.27 437.658Z" fill="black"/>
    <path d="M2084.08 503.43C2086.61 494.576 2086.61 488.251 2086.61 481.927C2086.61 452.834 2068.93 435.125 2041.16 435.125C2022.23 435.125 2004.56 442.715 1993.2 457.894C1981.84 471.808 1975.52 489.516 1975.52 508.49C1975.52 541.378 1995.72 562.881 2028.54 562.881C2041.16 562.881 2052.52 560.351 2065.15 556.556L2066.41 537.583C2055.05 542.642 2044.95 545.172 2033.59 545.172C2010.87 545.172 1998.25 532.523 1998.25 511.02C1998.25 509.755 1998.25 508.49 1998.25 504.695H2084.08V503.43ZM2066.41 488.251H2002.03C2007.08 464.218 2023.49 450.304 2041.16 450.304C2057.57 450.304 2067.67 461.688 2067.67 479.397C2067.67 481.927 2066.41 484.457 2066.41 488.251Z" fill="black"/>
    <path d="M462.007 135.345C357.235 27.8279 109.821 7.58944 99.7228 7.58944C95.9359 7.58944 25.2463 3.79472 0 12.6491L5.04926 8.85434C30.2955 1.26491 90.8866 0 94.6736 0C106.034 0 364.809 15.1789 470.843 122.696C499.876 153.054 492.302 173.292 488.516 179.617C484.729 187.206 475.892 192.266 468.319 191.001C463.269 189.736 456.958 185.941 456.958 175.822C454.433 154.319 473.368 131.55 474.63 130.285C475.892 127.756 616.009 1.26491 845.75 94.868C849.537 97.3978 887.407 115.106 897.505 127.756L902.555 135.345C892.456 122.696 855.849 103.722 850.8 102.457C619.796 8.85434 485.991 137.875 484.729 139.14C480.942 144.199 469.581 160.643 470.843 173.292C470.843 174.557 470.843 174.557 470.843 175.822C470.843 175.822 473.368 174.557 474.63 172.027C477.155 168.232 483.466 156.848 462.007 135.345Z" fill="black"/>
    <path d="M11.3594 309.902H2079.03" stroke="black" stroke-width="0.5"/>
</svg>
