<svg xmlns="http://www.w3.org/2000/svg" width="157" height="62" fill="none" viewBox="0 0 157 62"><path fill="url(#a)" d="M21.534 30.818v14.188h7.387V30.818c0-2.027-1.65-3.664-3.694-3.664s-3.693 1.637-3.693 3.664m95.59-12.16c-3.903 0-7.073 3.143-7.073 7.015v12.291c.026 3.872 3.17 6.99 7.073 6.99h14.356V38.38h-13.884a.47.47 0 0 1-.472-.468v-2.313h7.938c1.886 0 3.641-1.533 3.694-3.404.052-1.974-1.546-3.612-3.537-3.612h-8.095v-2.468c0-.26.21-.468.472-.468h10.898a3.514 3.514 0 0 0 3.536-3.612c-.052-1.87-1.807-3.404-3.694-3.404h-11.212zm32.589-.13c-5.763 0-10.505 4.417-10.977 10.003-.026.182-.052.364-.052.546v15.85h7.178V29.416c.026-2.079 1.729-3.768 3.851-3.768h3.248a3.59 3.59 0 0 0 3.589-3.534v-.13c-.052-1.897-1.834-3.456-3.746-3.456zm-112.304-.416v25.802c0 5.951-4.873 10.784-10.872 10.784h-.052c-1.991 0-3.694 1.507-3.799 3.482-.105 2.079 1.598 3.82 3.668 3.82h.602c9.824 0 17.761-7.9 17.761-17.618V18.137h-7.309zm-15.902 3.56c0 2.078 1.703 3.793 3.825 3.793s3.825-1.689 3.825-3.794c0-2.078-1.703-3.793-3.825-3.793s-3.825 1.715-3.825 3.793m41.653-3.768c-.34 0-.681.026-1.022.052-5.71.52-10.007 5.456-10.007 11.147V44.98h7.152V28.973c0-1.819 1.205-3.482 2.986-3.846 2.489-.52 4.69 1.352 4.69 3.716v12.889a3.563 3.563 0 0 0 3.588 3.56 3.563 3.563 0 0 0 3.589-3.56V28.843c.026-6.054-4.899-10.94-10.976-10.94M88.36 34.3v-5.457c0-2.157 1.73-3.872 3.904-3.872 2.07 0 3.798 1.715 3.798 3.872V34.3c0 2.157-1.729 3.872-3.798 3.872-2.174-.026-3.903-1.715-3.903-3.872m7.676-22.321v6.6c-1.598-.572-3.431-.805-5.291-.572-5.502.676-9.536 5.587-9.536 11.148v5.12c0 6.261 5.397 11.38 11.71 10.939 5.842-.338 10.321-5.457 10.321-11.278V11.953h-7.204zM23.63 0C13.544 0 5.37 8.081 5.318 18.086H0v7.171h5.318v19.749h7.335V25.439h.052c2.044 0 3.825-1.559 3.93-3.612.104-2.182-1.65-3.975-3.825-3.975h-.157c.236-5.847 5.056-10.55 11.002-10.576 2.017-.026 3.668-1.585 3.668-3.612C27.375 1.637 25.699 0 23.629 0"/><defs><linearGradient id="a" x1=".016" x2="156.538" y1="30.982" y2="30.982" gradientUnits="userSpaceOnUse"><stop stop-color="#ea5156"/><stop offset=".154" stop-color="#ea5656"/><stop offset=".339" stop-color="#ec6454"/><stop offset=".539" stop-color="#ef7a4e"/><stop offset=".75" stop-color="#f4953f"/><stop offset=".968" stop-color="#fab519"/><stop offset="1" stop-color="#fbba09"/></linearGradient></defs></svg>