<svg width="396" height="260" fill="none" xmlns="http://www.w3.org/2000/svg"><rect x="135.816" width="260.182" height="260" rx="130" fill="#26318B"/><path d="M9.76 100.779c6.833-.062 13.664-.025 20.5-.021 3.678.012 7.618.389 10.694 2.604 2.917 2.102 4.516 5.597 5.036 9.076.99 6.422-.479 13.331-4.553 18.47-4.058 5.142-10.44 8.131-16.896 8.732-4.39.539-8.8-.107-13.177-.499-1.26 7.788-2.413 15.588-3.673 23.375-2.565-.008-5.126 0-7.687-.008 3.207-20.583 6.623-41.138 9.757-61.729Zm6.546 6.512c-.163 2.432-.679 4.816-1.06 7.219-.924 6.055-1.906 12.101-2.859 18.147 4.038.487 8.116.581 12.175.344 2.978-.299 5.878-1.476 8.124-3.463 4.525-3.904 6.447-10.359 5.286-16.16-.332-1.701-1.195-3.381-2.692-4.337-2.189-1.423-4.88-1.811-7.446-1.799-3.841.024-7.686-.049-11.528.049ZM54.192 128.565c3.755-5.273 9.585-9.406 16.192-9.84 5.498-.531 10.783 1.345 16.06 2.572-2.184 13.74-4.356 27.48-6.573 41.216-2.328-.005-4.66 0-6.988-.005.77-4.533 1.82-9.018 2.643-13.543-4.083 5.4-8.914 10.616-15.21 13.4-2.74 1.01-6.091 2.151-8.77.385-3.004-2.106-3.634-6.047-3.94-9.436-.434-8.638 1.513-17.627 6.586-24.749Zm12.326-3.143c-3.257 1.839-5.51 5.024-7.147 8.307-2.475 5.069-3.845 10.669-4.079 16.303-.016 2.187-.192 4.66 1.236 6.487 1.03 1.039 2.602.372 3.71-.184 3.433-1.888 6.194-4.738 8.939-7.489 3.097-3.115 5.682-6.831 6.991-11.054 1.313-4.006 1.78-8.209 2.438-12.354-3.927-.899-8.267-1.75-12.088-.016ZM98.15 124.228c2.61-3.299 6.963-4.751 11.066-4.742 4.144-.029 8.338 1.062 11.86 3.274-.814 1.917-1.829 3.741-2.778 5.593-2.696-1.758-5.805-3.079-9.069-3.042-2.16-.045-4.414.85-5.699 2.637-1.158 1.57-.953 3.92.36 5.343 3.805 4.378 9.311 6.999 12.784 11.704 1.812 2.42 1.555 5.592 1.272 8.425-.576 2.968-2.331 5.724-4.896 7.367-3.277 2.138-7.348 2.621-11.177 2.437-3.673-.176-7.053-1.705-10.432-2.997 1.15-1.979 2.201-4.01 3.388-5.968 2.491 1.561 5.265 2.878 8.255 2.992 2.107.106 4.394-.192 6.079-1.566 1.608-1.361 1.886-3.736 1.362-5.67-.609-1.905-2.102-3.364-3.616-4.603-2.667-2.089-5.355-4.166-7.83-6.484-1.546-1.557-2.962-3.458-3.207-5.703-.372-3.131.209-6.52 2.278-8.997ZM330.742 128.148c2.233-1.942 5.469-2.294 8.275-1.635 1.461.323 2.778 1.238 3.564 2.518 1.211 1.921 1.354 4.256 1.648 6.451-5.731.024-11.462.016-17.194.004.52-2.715 1.506-5.523 3.707-7.338Z" fill="#26318B"/><path d="M235.83 96.351c1.849-.911 4.217-.642 5.792.7 3.105 2.513 3.666 7.366 1.649 10.722-1.1 1.934-3.281 3.348-5.559 3.103-2.43-.217-4.398-2.126-5.249-4.325-1.506-3.581-.221-8.397 3.367-10.2ZM259.063 96.233c1.878-.802 4.197-.43 5.707.956 3.494 3.03 3.534 9.096.139 12.211-1.542 1.464-3.968 1.95-5.911 1.03-5.454-2.55-5.417-11.704.065-14.197ZM145.77 100.766c4.107-.041 8.218 0 12.325-.025 5.38 15.49 10.641 31.016 15.963 46.527 2.643-6.827 5.122-13.712 7.716-20.555-3.277-8.667-6.705-17.276-9.982-25.943 3.506-.049 7.012-.008 10.518-.024 1.57 4.12 3.15 8.241 4.684 12.374 1.427-4.108 2.773-8.25 4.156-12.374 3.338.016 6.676-.017 10.015.02-3.2 8.225-6.325 16.479-9.487 24.72 3.015 7.024 5.94 14.088 8.914 21.132 4.978-15.273 9.814-30.591 14.756-45.877 3.702.021 7.404-.008 11.102.017-7.416 20.988-14.968 41.927-22.32 62.935-2.761.107-5.522.033-8.284.058-3.121-8.851-6.287-17.685-9.368-26.552-3.211 8.838-6.328 17.705-9.515 26.552-2.52-.005-5.036-.005-7.556-.005-7.883-20.992-15.709-42.004-23.637-62.98ZM332.457 118.3c4.958-1.051 10.444-.483 14.711 2.404 3.927 2.571 6.537 6.831 7.556 11.36.875 3.401.544 6.938.609 10.408h-28.836c.135 2.339.257 4.808 1.472 6.885 1.694 2.984 4.975 4.799 8.317 5.245 2.802.339 5.621-.274 8.251-1.215 2.418-.838 4.46-2.428 6.767-3.495a473.613 473.613 0 0 0 4.062 8.397c-3.219 1.66-6.476 3.332-10.006 4.227-6.12 1.615-12.883 1.881-18.757-.76-4.75-2.097-8.399-6.341-9.99-11.251-2.393-7.309-1.616-15.669 2.328-22.3 2.912-4.951 7.879-8.679 13.516-9.905Zm-1.718 9.848c-2.201 1.815-3.187 4.623-3.707 7.338 5.732.012 11.463.02 17.195-.004-.295-2.195-.438-4.53-1.649-6.451-.786-1.28-2.103-2.195-3.563-2.518-2.807-.659-6.043-.307-8.276 1.635ZM378.181 120.814c1.24-1.284 2.852-2.392 4.705-2.428 2.36-.074 4.827 1.067 6.132 3.057-.749 3.647-2.319 7.077-3.277 10.674-1.403-.629-2.929-1.504-4.508-.981-2.913.834-4.905 3.422-6.222 6.006-1.33 2.726-1.268 5.837-1.232 8.797.005 5.523 0 11.042 0 16.565-3.694-.004-7.388.004-11.082-.004 0-14.476-.004-28.956 0-43.432 3.224.013 6.447-.016 9.675.017.094 3.168.192 6.34.483 9.496 1.616-2.686 3.125-5.494 5.326-7.767ZM232.598 119.076c3.71-.012 7.421-.004 11.131-.008-.004 14.48 0 28.96-.004 43.436-3.706-.004-7.417 0-11.123 0-.004-14.476.004-28.952-.004-43.428ZM255.629 119.076c3.694.025 7.393-.077 11.087.037.208 15.747.008 31.515.098 47.266.135 1.832-.863 3.426-1.514 5.057-2.09 5.012-5.277 9.448-8.488 13.785-2.831-1.819-5.523-3.847-8.289-5.76 1.62-2.142 3.388-4.223 4.423-6.729 2.299-4.763 2.81-10.122 2.683-15.342a61165.11 61165.11 0 0 1 0-38.314ZM275.196 119.097c11.806-.041 23.608-.049 35.41.004-.053 2.138.066 4.28-.032 6.419.004.433-.303.772-.528 1.116-7.302 9.03-14.6 18.065-21.911 27.095 7.491.037 14.981-.045 22.471.041-.012 2.903-.008 5.809-.004 8.712-11.802.032-23.6.032-35.402 0 0-2.698.016-5.392-.009-8.087 7.053-8.895 14.171-17.742 21.253-26.617-7.082-.045-14.163.017-21.244-.032.004-2.883.008-5.769-.004-8.651Z" fill="#AFBC21"/></svg>