<svg width="585" height="270" fill="none" xmlns="http://www.w3.org/2000/svg"><g filter="url(#a)"><path fill="#FBFBFB" d="M0 0h584.5v270H0z"/><g clip-path="url(#b)" fill-rule="evenodd" clip-rule="evenodd"><path d="M251.25 105.387h82v59.221h-82v-59.221Z" fill="#315EFD"/><path opacity=".4" d="M251.25 105.387h82v59.221h-82v-59.221Z" fill="#000" fill-opacity=".4"/><path opacity=".4" d="M251.25 105.387h82v59.221h-82v-59.221Z" fill="url(#c)"/><path d="m251.25 164.607 29.611-29.611 11.389 11.389 25.055-25.055 15.945 15.944v27.333h-82Z" fill="#282B39"/><path opacity=".5" d="m251.25 164.607 29.611-29.611 11.389 11.389 25.055-25.055 15.945 15.944v27.333h-82Z" fill="#315EFD"/><path opacity=".94" d="m251.25 164.607 29.611-29.611 11.389 11.389 25.055-25.055 15.945 15.944v27.333h-82Z" fill="#fff"/><path d="m251.25 164.607 29.611-29.611 11.389 11.389 25.055-25.055 15.945 15.944v27.333h-82Z" fill="url(#d)"/><path d="M293.389 119.052a5.697 5.697 0 0 1 5.261 3.515 5.7 5.7 0 0 1-1.235 6.206 5.698 5.698 0 0 1-6.205 1.234 5.697 5.697 0 0 1-3.516-5.261 5.693 5.693 0 0 1 5.695-5.694Z" fill="#fff"/><path opacity=".2" d="M293.389 119.052a5.697 5.697 0 0 1 5.261 3.515 5.7 5.7 0 0 1-1.235 6.206 5.698 5.698 0 0 1-6.205 1.234 5.697 5.697 0 0 1-3.516-5.261 5.693 5.693 0 0 1 5.695-5.694Z" fill="url(#e)"/><path d="M333.25 105h-82v60.221h82V105Zm-1 1.017h-80v58.186h80v-58.186Z" fill="#315EFD"/><path opacity=".4" d="M333.25 105h-82v60.221h82V105Zm-1 1.017h-80v58.186h80v-58.186Z" fill="#000" fill-opacity=".4"/><path opacity=".8" d="M333.25 105h-82v60.221h82V105Zm-1 1.017h-80v58.186h80v-58.186Z" fill="#fff"/><path opacity=".4" d="M333.25 105h-82v60.221h82V105Zm-1 1.017h-80v58.186h80v-58.186Z" fill="url(#f)"/></g></g><defs><linearGradient id="c" x1="292.25" y1="105.387" x2="292.25" y2="164.608" gradientUnits="userSpaceOnUse"><stop stop-color="#fff" stop-opacity=".35"/><stop offset=".611" stop-color="#fff" stop-opacity="0"/></linearGradient><linearGradient id="d" x1="292.25" y1="121.33" x2="292.25" y2="164.607" gradientUnits="userSpaceOnUse"><stop stop-color="#fff" stop-opacity=".35"/><stop offset=".611" stop-color="#fff" stop-opacity="0"/></linearGradient><linearGradient id="e" x1="287.694" y1="119.052" x2="287.694" y2="130.441" gradientUnits="userSpaceOnUse"><stop stop-color="#BEBEBE" stop-opacity=".01"/><stop offset="1" stop-color="#D2D2D2" stop-opacity=".4"/></linearGradient><linearGradient id="f" x1="292.25" y1="105" x2="292.25" y2="165.221" gradientUnits="userSpaceOnUse"><stop stop-color="#fff" stop-opacity=".35"/><stop offset=".611" stop-color="#fff" stop-opacity="0"/></linearGradient><clipPath id="b"><path fill="#fff" d="M192.25 35h200v200h-200z"/></clipPath><filter id="a" x="0" y="0" width="584.5" height="270" filterUnits="userSpaceOnUse" color-interpolation-filters="sRGB"><feFlood flood-opacity="0" result="BackgroundImageFix"/><feBlend in="SourceGraphic" in2="BackgroundImageFix" result="shape"/><feColorMatrix in="SourceAlpha" values="0 0 0 0 0 0 0 0 0 0 0 0 0 0 0 0 0 0 127 0" result="hardAlpha"/><feOffset dx="-1"/><feComposite in2="hardAlpha" operator="arithmetic" k2="-1" k3="1"/><feColorMatrix values="0 0 0 0 0.898039 0 0 0 0 0.898039 0 0 0 0 0.898039 0 0 0 1 0"/><feBlend in2="shape" result="effect1_innerShadow_174_62002"/></filter></defs></svg>