<svg xmlns="http://www.w3.org/2000/svg" width="24" height="25" fill="none"><rect width="24" height="24" y=".5" fill="#F7F9FC" rx="3"/><g fill-rule="evenodd" clip-path="url(#a)" clip-rule="evenodd"><path fill="#646F79" d="M14.344 15.354c.26 0 .47-.21.47-.47v-1.41a.47.47 0 0 0-.47-.47H5.41a.47.47 0 0 0-.47.47v1.41c0 .26.21.47.47.47h8.933Zm-1.881 4.232c.26 0 .47-.21.47-.47v-1.411a.47.47 0 0 0-.47-.47H5.41a.47.47 0 0 0-.47.47v1.41c0 .26.21.47.47.47h7.052Z"/><path fill="#134478" d="M4 10.184c0 .52.422.942.94.942h9.404V5.955H4.94c-.52 0-.941.423-.941.942v3.287ZM15.296 11.13h3.763c.52 0 .941-.423.941-.943v-3.29a.942.942 0 0 0-.94-.942h-3.764v5.175Z"/><path fill="#fff" d="M5.176 8.775c0 .131.104.238.236.238h4.71c.13 0 .235-.105.235-.238V8.31a.235.235 0 0 0-.236-.237H5.412a.235.235 0 0 0-.236.237v.466ZM17.2 8.846a.235.235 0 0 0-.334.002l-.33.33a.236.236 0 0 0-.001.333l.775.775a.47.47 0 0 0 .665 0l.775-.775a.235.235 0 0 0-.002-.334l-.33-.33a.237.237 0 0 0-.334 0l-.442.441-.442-.442Zm0-.608a.235.235 0 0 1-.334-.002l-.33-.33a.236.236 0 0 1-.001-.333l.775-.775a.47.47 0 0 1 .665 0l.775.775a.235.235 0 0 1-.002.334l-.33.33a.236.236 0 0 1-.334.001l-.442-.442-.442.442Z"/></g><defs><clipPath id="a"><path fill="#fff" d="M4 4.5h16v16H4z"/></clipPath></defs></svg>