<svg width="73" height="72" fill="none" xmlns="http://www.w3.org/2000/svg"><rect x=".5" width="72" height="72" rx="36" fill="#EAF0F6"/><g clip-path="url(#a)" fill-rule="evenodd" clip-rule="evenodd"><path d="M41.394 41.352a.882.882 0 0 0 .881-.882v-2.644a.882.882 0 0 0-.881-.882h-16.75a.881.881 0 0 0-.881.882v2.644c0 .487.394.882.881.882h16.75Zm-3.527 7.934a.882.882 0 0 0 .882-.882V45.76a.882.882 0 0 0-.882-.882H24.644a.882.882 0 0 0-.881.882v2.644c0 .487.394.882.881.882h13.223ZM22 31.657c0 .976.79 1.768 1.764 1.768h17.63v-9.697h-17.63c-.974 0-1.764.793-1.764 1.767v6.162ZM43.18 33.432h7.057c.974 0 1.764-.794 1.764-1.769v-6.167c0-.977-.791-1.768-1.764-1.768H43.18v9.704Z" fill="#134478"/><path d="M24.205 29.016c0 .246.194.445.443.445h8.83a.442.442 0 0 0 .442-.445v-.874a.441.441 0 0 0-.443-.445h-8.83a.441.441 0 0 0-.442.445v.874Z" fill="#134478"/><path d="M46.75 29.15a.44.44 0 0 0-.626.002l-.618.618a.442.442 0 0 0-.004.627l1.453 1.453a.882.882 0 0 0 1.248 0l1.453-1.453a.44.44 0 0 0-.003-.627l-.618-.618a.443.443 0 0 0-.627-.003l-.829.83-.829-.83Zm0-1.141a.44.44 0 0 1-.626-.003l-.618-.618a.442.442 0 0 1-.004-.627l1.453-1.453a.882.882 0 0 1 1.248 0l1.453 1.453a.44.44 0 0 1-.003.627l-.618.618a.443.443 0 0 1-.627.003l-.829-.83-.829.83Z" fill="#fff"/></g><defs><clipPath id="a"><path fill="#fff" d="M22 21h30v30H22z"/></clipPath></defs></svg>