<svg width="56" height="56" fill="none" xmlns="http://www.w3.org/2000/svg"><rect width="56" height="56" rx="7" fill="#F4F5F7"/><g clip-path="url(#a)"><path d="M43.361 26.702a4.669 4.669 0 0 1-3.112-4.387c.037-.319-.113-.581-.356-.806a1.073 1.073 0 0 0-.788-.207 5.46 5.46 0 0 1-4.218-1.143 5.607 5.607 0 0 1-2.082-3.92c-.019-.28-.187-.543-.431-.712a.913.913 0 0 0-.825-.075c-2.55.919-4.95-.694-5.906-2.887a.947.947 0 0 0-1.069-.544c-3.6.806-6.838 3.066-9.05 5.916-5.119 6.582-4.594 15.638 1.144 21.394 6.244 6.225 16.312 6.225 22.537 0C42.093 36.444 44 32.327 44 27.94c-.038-.619-.056-1.031-.638-1.238Z" fill="#315EFD" class="fill-primary"/><path d="M43.999 27.94c0 4.387-1.906 8.504-4.794 11.391-6.225 6.225-16.294 6.225-22.537 0L34.886 20.16a5.46 5.46 0 0 0 4.22 1.143c.262-.037.58.038.787.207.243.225.393.487.356.806a4.67 4.67 0 0 0 3.112 4.387c.582.207.6.62.638 1.238Z" fill="#000" fill-opacity=".25"/><path d="M24.093 31.531a2.706 2.706 0 0 0-1.782-.656 2.809 2.809 0 0 0-2.812 2.813c0 .73.281 1.387.731 1.874a2.75 2.75 0 0 0 2.081.938 2.809 2.809 0 0 0 2.813-2.813c0-.88-.394-1.65-1.031-2.156ZM31.686 30.875a2.816 2.816 0 0 1-2.812-2.813 2.816 2.816 0 0 1 2.812-2.812 2.816 2.816 0 0 1 2.813 2.813 2.816 2.816 0 0 1-2.813 2.812ZM30.749 38.375a1.877 1.877 0 0 1-1.875-1.875c0-1.034.841-1.875 1.875-1.875 1.033 0 1.875.841 1.875 1.875a1.877 1.877 0 0 1-1.875 1.875ZM37.264 32.82a.938.938 0 1 0 0-1.874.938.938 0 0 0 0 1.875Z" fill="#fff"/><path d="M25.124 33.688a2.809 2.809 0 0 1-2.813 2.812 2.751 2.751 0 0 1-2.08-.937l3.862-4.032a2.722 2.722 0 0 1 1.031 2.157ZM23.249 25.25a1.877 1.877 0 0 1-1.875-1.875c0-1.034.841-1.875 1.875-1.875s1.875.841 1.875 1.875a1.877 1.877 0 0 1-1.875 1.875ZM18.514 29.07a.938.938 0 1 0 0-1.874.938.938 0 0 0 0 1.875Z" fill="#fff"/></g><defs><clipPath id="a"><path fill="#fff" d="M12 12h32v32H12z"/></clipPath></defs></svg>