<svg xmlns="http://www.w3.org/2000/svg" width="48" height="48" fill="none" viewBox="0 0 48 48"><g clip-path="url(#a)"><path fill="#ffda17" d="M5.355 5.202C1.135 9.513-.338 19.894.064 27.719c.223 4.38 1.228 12.273 5.425 15.718C9.196 46.517 16.654 48 24 48s14.804-1.529 18.51-4.563c4.198-3.445 5.203-11.407 5.426-15.718.402-7.826-1.071-18.251-5.291-22.517-6.788-6.936-30.502-6.936-37.29 0"/><path fill="#000" fill-rule="evenodd" d="M29.42 11.138a7.8 7.8 0 0 0-5.91-2.285l-8.209.394a6.347 6.347 0 0 0-6.057 6.033L8.85 23.5a7.88 7.88 0 0 0 2.282 5.918l7.436 7.447c3.053 3.057 8.011 3.057 11.08 0l7.208-7.217c3.07-3.041 3.07-8.006 0-11.063zM13.166 16.11a2.95 2.95 0 0 1 2.945-2.952 2.95 2.95 0 0 1 2.944 2.952 2.95 2.95 0 0 1-2.944 2.952 2.95 2.95 0 0 1-2.944-2.952" clip-rule="evenodd"/><path fill="#fff" d="m30.205 24.123-1.28 1.28a.226.226 0 0 0 0 .32l1.28 1.28a.226.226 0 0 0 .32 0l1.28-1.28a.226.226 0 0 0 0-.32l-1.28-1.28a.226.226 0 0 0-.32 0M27.324 24.443l-.96.96a.226.226 0 0 0 0 .32l.96.96a.226.226 0 0 0 .32 0l.96-.96a.226.226 0 0 0 0-.32l-.96-.96a.226.226 0 0 0-.32 0M33.085 24.443l-.96.96a.226.226 0 0 0 0 .32l.96.96a.226.226 0 0 0 .32 0l.96-.96a.226.226 0 0 0 0-.32l-.96-.96a.226.226 0 0 0-.32 0M30.203 21.563l-.64.64a.226.226 0 0 0 0 .32l.64.64a.226.226 0 0 0 .32 0l.64-.64a.226.226 0 0 0 0-.32l-.64-.64a.226.226 0 0 0-.32 0M30.204 27.963l-.64.64a.226.226 0 0 0 0 .32l.64.64a.226.226 0 0 0 .32 0l.64-.64a.226.226 0 0 0 0-.32l-.64-.64a.226.226 0 0 0-.32 0M24.924 17.242l-2.88 2.88a.905.905 0 0 0 0 1.28l2.88 2.88a.905.905 0 0 0 1.28 0l2.88-2.88a.905.905 0 0 0 0-1.28l-2.88-2.88a.905.905 0 0 0-1.28 0m2.08 3.36a.226.226 0 0 1 0 .32l-1.28 1.28a.226.226 0 0 1-.32 0l-1.28-1.28a.226.226 0 0 1 0-.32l1.28-1.28a.226.226 0 0 1 .32 0zM20.123 22.043l-2.88 2.88a.906.906 0 0 0 0 1.28l2.88 2.88a.905.905 0 0 0 1.28 0l2.88-2.88a.905.905 0 0 0 0-1.28l-2.88-2.88a.905.905 0 0 0-1.28 0m2.08 3.36a.226.226 0 0 1 0 .32l-1.28 1.28a.226.226 0 0 1-.32 0l-1.28-1.28a.226.226 0 0 1 0-.32l1.28-1.28a.226.226 0 0 1 .32 0zM24.924 26.843l-2.88 2.88a.905.905 0 0 0 0 1.28l2.88 2.881a.905.905 0 0 0 1.28 0l2.88-2.88a.905.905 0 0 0 0-1.28l-2.88-2.88a.906.906 0 0 0-1.28 0m2.08 3.36a.226.226 0 0 1 0 .32l-1.28 1.281a.226.226 0 0 1-.32 0l-1.28-1.28a.226.226 0 0 1 0-.32l1.28-1.28a.226.226 0 0 1 .32 0z"/></g><defs><clipPath id="a"><rect width="48" height="48" fill="#fff" rx="20"/></clipPath></defs></svg>