<svg width="142" height="42" viewBox="0 0 142 42" fill="none" xmlns="http://www.w3.org/2000/svg">
    <rect width="142" height="42" fill="black"/>
    <path d="M71.1919 22.9311C68.7344 22.9311 66.7315 24.8085 66.7315 27.3967C66.7315 29.9682 68.7344 31.8624 71.1919 31.8624C73.6494 31.8624 75.6524 29.9682 75.6524 27.3967C75.6524 24.8085 73.6494 22.9311 71.1919 22.9311ZM71.1919 30.1036C69.8451 30.1036 68.6832 28.9875 68.6832 27.3967C68.6832 25.7892 69.8451 24.6898 71.1919 24.6898C72.5387 24.6898 73.6996 25.7892 73.6996 27.3967C73.6996 28.9864 72.5387 30.1036 71.1919 30.1036ZM61.4602 22.9311C59.0027 22.9311 56.9998 24.8085 56.9998 27.3967C56.9998 29.9682 59.0027 31.8624 61.4602 31.8624C63.9177 31.8624 65.9207 29.9682 65.9207 27.3967C65.9217 24.8085 63.9177 22.9311 61.4602 22.9311ZM61.4602 30.1036C60.1134 30.1036 58.9526 28.9875 58.9526 27.3967C58.9526 25.7892 60.1144 24.6898 61.4602 24.6898C62.807 24.6898 63.9678 25.7892 63.9678 27.3967C63.9689 28.9864 62.807 30.1036 61.4602 30.1036ZM49.8854 24.3013V26.1955H54.397C54.2623 27.2613 53.9091 28.0393 53.3699 28.5811C52.7138 29.2405 51.6867 29.9682 49.8854 29.9682C47.1082 29.9682 44.937 27.718 44.937 24.9271C44.937 22.1362 47.1082 19.8861 49.8854 19.8861C51.3837 19.8861 52.4777 20.4783 53.2853 21.2395L54.6154 19.9029C53.488 18.8203 51.9897 17.9908 49.8854 17.9908C46.0811 17.9908 42.8828 21.103 42.8828 24.9261C42.8828 28.7491 46.0811 31.8613 49.8854 31.8613C51.9385 31.8613 53.488 31.1851 54.7 29.9157C55.9455 28.6641 56.3331 26.9043 56.3331 25.4836C56.3331 25.0437 56.2997 24.6373 56.2318 24.2992H49.8854V24.3013ZM97.2253 25.7724C96.8555 24.7738 95.727 22.93 93.4211 22.93C91.1318 22.93 89.2302 24.7402 89.2302 27.3957C89.2302 29.8989 91.1151 31.8613 93.6405 31.8613C95.6769 31.8613 96.8555 30.6097 97.3434 29.8821L95.8284 28.8667C95.3237 29.6112 94.6331 30.1015 93.6405 30.1015C92.6468 30.1015 91.9405 29.6448 91.486 28.7481L97.4281 26.2785L97.2253 25.7724ZM91.1652 27.2613C91.1151 25.5361 92.4953 24.6562 93.4879 24.6562C94.2622 24.6562 94.9183 25.0447 95.1377 25.6033L91.1652 27.2613ZM86.3339 31.5915H88.2867V18.4654H86.3339V31.5915ZM83.1356 23.9286H83.0687C82.6309 23.4046 81.7898 22.93 80.7293 22.93C78.5069 22.93 76.4705 24.8925 76.4705 27.4125C76.4705 29.9157 78.5069 31.8613 80.7293 31.8613C81.7898 31.8613 82.6309 31.3878 83.0687 30.846H83.1356V31.4886C83.1356 33.1969 82.2266 34.1104 80.7617 34.1104C79.5664 34.1104 78.8256 33.2473 78.5226 32.5207L76.8226 33.2316C77.3106 34.416 78.6072 35.8702 80.7617 35.8702C83.0509 35.8702 84.987 34.5168 84.987 31.2187V23.2009H83.1356V23.9286ZM80.8975 30.1036C79.5507 30.1036 78.4233 28.9707 78.4233 27.4135C78.4233 25.8406 79.5507 24.6898 80.8975 24.6898C82.2276 24.6898 83.2704 25.8396 83.2704 27.4135C83.2704 28.9696 82.2276 30.1036 80.8975 30.1036ZM106.372 18.4654H101.7V31.5915H103.649V26.6187H106.371C108.532 26.6187 110.656 25.0468 110.656 22.5426C110.656 20.0383 108.533 18.4654 106.372 18.4654ZM106.422 24.7917H103.649V20.2924H106.422C107.88 20.2924 108.707 21.5052 108.707 22.5426C108.707 23.559 107.88 24.7917 106.422 24.7917ZM118.471 22.9069C117.06 22.9069 115.598 23.5317 114.993 24.9166L116.724 25.6432C117.094 24.9166 117.783 24.6804 118.506 24.6804C119.514 24.6804 120.539 25.2883 120.556 26.3688V26.5042C120.203 26.3016 119.446 25.9971 118.522 25.9971C116.657 25.9971 114.758 27.0271 114.758 28.9528C114.758 30.7095 116.288 31.8403 118.001 31.8403C119.312 31.8403 120.034 31.2492 120.488 30.5572H120.555V31.5705H122.436V26.5378C122.436 24.2068 120.706 22.9069 118.471 22.9069ZM118.235 30.1005C117.597 30.1005 116.705 29.7792 116.705 28.9864C116.705 27.9732 117.815 27.5847 118.772 27.5847C119.629 27.5847 120.032 27.7705 120.554 28.0236C120.403 29.2395 119.361 30.1005 118.235 30.1005ZM129.293 23.1936L127.058 28.8846H126.991L124.672 23.1936H122.572L126.051 31.1473L124.067 35.572H126.101L131.462 23.1936H129.293ZM111.732 31.5915H113.682V18.4654H111.732V31.5915Z" fill="white"/>
    <path fill-rule="evenodd" clip-rule="evenodd" d="M46.0981 13.4409C46.9282 13.4409 47.7243 13.1123 48.311 12.5275H48.3009C49.4863 11.2799 49.4863 9.32734 48.3009 8.07976C47.7159 7.49557 46.9215 7.16724 46.0931 7.16724C45.2646 7.16724 44.4702 7.49557 43.8852 8.07976C42.7049 9.32933 42.7049 11.2779 43.8852 12.5275C44.472 13.1123 45.268 13.4409 46.0981 13.4409ZM46.0975 12.7095C45.4813 12.7095 44.8908 12.4636 44.4579 12.0267C43.5581 11.0529 43.5581 9.55462 44.4579 8.58077C44.8908 8.14395 45.4813 7.89806 46.0975 7.89806C46.7137 7.89806 47.3042 8.14395 47.737 8.58077C48.6227 9.56008 48.6227 11.0474 47.737 12.0267C47.3042 12.4636 46.7137 12.7095 46.0975 12.7095Z" fill="white"/>
    <path d="M48.311 12.5275L48.3937 12.6105L48.5946 12.4103H48.311V12.5275ZM48.3009 12.5275L48.216 12.4468L48.0279 12.6447H48.3009V12.5275ZM48.3009 8.07976L48.3859 7.99902L48.3837 7.99684L48.3009 8.07976ZM43.8852 8.07976L43.8024 7.99681L43.8 7.99929L43.8852 8.07976ZM43.8852 12.5275L43.8 12.608L43.8025 12.6105L43.8852 12.5275ZM44.4579 12.0267L44.3718 12.1063L44.3747 12.1092L44.4579 12.0267ZM44.4579 8.58077L44.3746 8.49823L44.3719 8.50124L44.4579 8.58077ZM47.737 8.58077L47.824 8.50208L47.8203 8.49829L47.737 8.58077ZM47.737 12.0267L47.8204 12.1093L47.8239 12.1054L47.737 12.0267ZM48.311 12.5275L48.2283 12.4445C47.6636 13.0073 46.8973 13.3237 46.0981 13.3237V13.4409V13.5581C46.9591 13.5581 47.785 13.2172 48.3937 12.6105L48.311 12.5275ZM48.3009 12.5275V12.6447H48.311V12.5275V12.4103H48.3009V12.5275ZM48.3009 8.07976L48.216 8.16048C49.3583 9.36283 49.3583 11.2444 48.216 12.4468L48.3009 12.5275L48.3859 12.6082C49.6142 11.3154 49.6142 9.29186 48.3859 7.99904L48.3009 8.07976ZM46.0931 7.16724V7.28442C46.8905 7.28442 47.6551 7.60048 48.2181 8.16268L48.3009 8.07976L48.3837 7.99684C47.7767 7.39065 46.9525 7.05005 46.0931 7.05005V7.16724ZM43.8852 8.07976L43.968 8.16268C44.531 7.60048 45.2956 7.28442 46.0931 7.28442V7.16724V7.05005C45.2337 7.05005 44.4095 7.39065 43.8024 7.99684L43.8852 8.07976ZM43.8852 12.5275L43.9704 12.447C42.8328 11.2426 42.8328 9.36464 43.9704 8.16023L43.8852 8.07976L43.8 7.99929C42.5771 9.29403 42.5771 11.3132 43.8 12.608L43.8852 12.5275ZM46.0981 13.4409V13.3237C45.299 13.3237 44.5327 13.0073 43.968 12.4445L43.8852 12.5275L43.8025 12.6105C44.4112 13.2172 45.2371 13.5581 46.0981 13.5581V13.4409ZM44.4579 12.0267L44.3747 12.1092C44.8296 12.5683 45.4501 12.8266 46.0975 12.8266V12.7095V12.5923C45.5125 12.5923 44.9519 12.3588 44.5412 11.9443L44.4579 12.0267ZM44.4579 8.58077L44.3719 8.50124C43.4305 9.51999 43.4305 11.0875 44.3719 12.1063L44.4579 12.0267L44.544 11.9472C43.6856 11.0183 43.6856 9.58925 44.544 8.6603L44.4579 8.58077ZM46.0975 7.89806V7.78087C45.4501 7.78087 44.8296 8.03921 44.3747 8.49829L44.4579 8.58077L44.5412 8.66325C44.9519 8.2487 45.5125 8.01525 46.0975 8.01525V7.89806ZM47.737 8.58077L47.8203 8.49829C47.3654 8.03921 46.7449 7.78087 46.0975 7.78087V7.89806V8.01525C46.6825 8.01525 47.243 8.2487 47.6538 8.66325L47.737 8.58077ZM47.737 12.0267L47.8239 12.1054C48.75 11.0814 48.75 9.52611 47.8239 8.50216L47.737 8.58077L47.6501 8.65937C48.4955 9.59406 48.4955 11.0135 47.6501 11.9481L47.737 12.0267ZM46.0975 12.7095V12.8266C46.7449 12.8266 47.3654 12.5683 47.8203 12.1092L47.737 12.0267L47.6538 11.9443C47.243 12.3588 46.6825 12.5923 46.0975 12.5923V12.7095Z" fill="white"/>
    <path d="M50.2812 13.3086V7.29816H51.2268L54.1236 11.9763V10.8143V7.29816H54.8981V13.3086H54.1236L51.106 8.41009V9.56209V13.3086H50.2812Z" fill="white" stroke="white" stroke-width="0.234375"/>
    <path d="M58.3784 13.3085H57.6039V8.03938H55.9141V7.2981H60.0582V8.03938H58.3784V13.3085Z" fill="white" stroke="white" stroke-width="0.234375"/>
    <path fill-rule="evenodd" clip-rule="evenodd" d="M61.0469 7.29798V13.3084H62.8876C63.7115 13.3455 64.5148 13.045 65.1105 12.477C65.6787 11.8986 65.981 11.1116 65.9454 10.3032C65.981 9.4948 65.6787 8.70782 65.1105 8.12943C64.5148 7.56138 63.7115 7.26094 62.8876 7.29798H61.0469ZM62.8875 12.5669H61.8213V8.03907H62.9177C63.5352 7.98663 64.1445 8.20826 64.5828 8.64471C65.021 9.08117 65.2435 9.68799 65.1909 10.303C65.2152 10.9249 64.9826 11.5295 64.5471 11.9759C64.0939 12.3833 63.4973 12.5957 62.8875 12.5669Z" fill="white"/>
    <path d="M61.0469 13.3084H60.9297V13.4256H61.0469V13.3084ZM61.0469 7.29798V7.1808H60.9297V7.29798H61.0469ZM62.8876 13.3084L62.8929 13.1912H62.8876V13.3084ZM65.1105 12.477L65.1914 12.5618L65.1941 12.5591L65.1105 12.477ZM65.9454 10.3032L65.8278 10.298L65.8283 10.3084L65.9454 10.3032ZM65.1105 8.12943L65.1942 8.04726L65.1914 8.04461L65.1105 8.12943ZM62.8876 7.29798V7.41529L62.8928 7.41505L62.8876 7.29798ZM61.8213 12.5669H61.7041V12.6841H61.8213V12.5669ZM62.8875 12.5669L62.893 12.4497H62.8875V12.5669ZM61.8213 8.03907V7.92188H61.7041V8.03907H61.8213ZM62.9177 8.03907V8.15668L62.9276 8.15584L62.9177 8.03907ZM64.5828 8.64471L64.5001 8.72775L64.5828 8.64471ZM65.1909 10.303L65.0741 10.293L65.0735 10.3003L65.0738 10.3076L65.1909 10.303ZM64.5471 11.9759L64.6257 12.0632L64.631 12.0577L64.5471 11.9759ZM61.0469 13.3084H61.1641V7.29798H61.0469H60.9297V13.3084H61.0469ZM62.8876 13.3084V13.1912H61.0469V13.3084V13.4256H62.8876V13.3084ZM65.1105 12.477L65.0297 12.3922C64.4571 12.9381 63.6849 13.227 62.8928 13.1913L62.8876 13.3084L62.8823 13.4255C63.7381 13.464 64.5725 13.1519 65.1914 12.5618L65.1105 12.477ZM65.9454 10.3032L65.8283 10.3084C65.8625 11.0842 65.5724 11.8396 65.0269 12.3948L65.1105 12.477L65.1941 12.5591C65.7851 11.9576 66.0995 11.139 66.0625 10.298L65.9454 10.3032ZM65.1105 8.12943L65.0269 8.21155C65.5724 8.76681 65.8625 9.52219 65.8283 10.298L65.9454 10.3032L66.0625 10.3084C66.0995 9.4674 65.7851 8.64884 65.1941 8.0473L65.1105 8.12943ZM62.8876 7.29798L62.8928 7.41505C63.6849 7.37944 64.4571 7.66828 65.0297 8.21424L65.1105 8.12943L65.1914 8.04461C64.5725 7.45447 63.7381 7.14244 62.8823 7.18091L62.8876 7.29798ZM61.0469 7.29798V7.41517H62.8876V7.29798V7.1808H61.0469V7.29798ZM61.8213 12.5669V12.6841H62.8875V12.5669V12.4497H61.8213V12.5669ZM61.8213 8.03907H61.7041V12.5669H61.8213H61.9385V8.03907H61.8213ZM62.9177 8.03907V7.92188H61.8213V8.03907V8.15626H62.9177V8.03907ZM64.5828 8.64471L64.6655 8.56168C64.2027 8.10085 63.5595 7.86696 62.9078 7.9223L62.9177 8.03907L62.9276 8.15584C63.5109 8.10631 64.0863 8.31566 64.5001 8.72775L64.5828 8.64471ZM65.1909 10.303L65.3077 10.313C65.3633 9.66338 65.1282 9.02253 64.6655 8.56168L64.5828 8.64471L64.5001 8.72775C64.9138 9.13981 65.1238 9.71259 65.0741 10.293L65.1909 10.303ZM64.5471 11.9759L64.631 12.0577C65.0889 11.5883 65.3336 10.9525 65.308 10.2984L65.1909 10.303L65.0738 10.3076C65.0969 10.8972 64.8763 11.4706 64.4633 11.8941L64.5471 11.9759ZM62.8875 12.5669L62.882 12.684C63.5226 12.7143 64.1493 12.4911 64.6255 12.0631L64.5471 11.9759L64.4688 11.8887C64.0386 12.2755 63.4721 12.4772 62.893 12.4499L62.8875 12.5669Z" fill="white"/>
    <path d="M70.5618 8.03944H67.8058V9.94275H70.2902V10.664H67.8058V12.5673H70.5618V13.3086H67.0312V7.29816H70.5618V8.03944Z" fill="white" stroke="white" stroke-width="0.234375"/>
    <path d="M76.2547 7.29816L74.0116 9.88264L76.3955 13.3086H75.3896L73.3779 10.5037L72.4425 11.5756V13.3086H71.668V7.29816H72.4425V10.3935L75.2488 7.29816H76.2547Z" fill="white" stroke="white" stroke-width="0.234375"/>
    <path d="M79.2031 13.3085V7.2981H79.9877V9.87256H83.0053V7.2981H83.7798V13.3085H83.0053V10.5938H79.9877V13.3085H79.2031Z" fill="white" stroke="white" stroke-width="0.234375"/>
    <path d="M88.6767 8.0395H85.9308V9.94281H88.4152V10.6641H85.9308V12.5674H88.6767V13.3086H85.1562V7.29822H88.6767V8.0395Z" fill="white" stroke="white" stroke-width="0.234375"/>
    <path d="M91.9565 13.3085H91.172V8.03938H89.4922V7.2981H93.6363V8.03938H91.9565V13.3085Z" fill="white" stroke="white" stroke-width="0.234375"/>
    <path fill-rule="evenodd" clip-rule="evenodd" d="M99.2775 13.4409C100.108 13.4409 100.904 13.1123 101.49 12.5275H101.48C102.666 11.2799 102.666 9.32734 101.48 8.07976C100.895 7.49557 100.101 7.16724 99.2725 7.16724C98.444 7.16724 97.6496 7.49557 97.0646 8.07976C95.8691 9.32328 95.8691 11.284 97.0646 12.5275C97.6514 13.1123 98.4474 13.4409 99.2775 13.4409ZM99.2773 12.7093C98.6611 12.7093 98.0706 12.4635 97.6378 12.0266C96.7379 11.0528 96.7379 9.55451 97.6378 8.58066C98.0706 8.14384 98.6611 7.89795 99.2773 7.89795C99.8935 7.89795 100.484 8.14384 100.917 8.58066C101.803 9.55997 101.803 11.0473 100.917 12.0266C100.484 12.4635 99.8935 12.7093 99.2773 12.7093Z" fill="white"/>
    <path d="M101.49 12.5275L101.573 12.6105L101.774 12.4103H101.49V12.5275ZM101.48 12.5275L101.395 12.4468L101.207 12.6447H101.48V12.5275ZM101.48 8.07976L101.565 7.99902L101.563 7.99684L101.48 8.07976ZM97.0646 8.07976L96.9818 7.99682L96.9802 7.99854L97.0646 8.07976ZM97.0646 12.5275L96.9801 12.6087L96.9819 12.6105L97.0646 12.5275ZM97.6378 12.0266L97.5517 12.1062L97.5546 12.1091L97.6378 12.0266ZM97.6378 8.58066L97.5545 8.49812L97.5517 8.50113L97.6378 8.58066ZM100.917 8.58066L101.004 8.50197L101 8.49817L100.917 8.58066ZM100.917 12.0266L101 12.1092L101.004 12.1052L100.917 12.0266ZM101.49 12.5275L101.408 12.4445C100.843 13.0073 100.077 13.3237 99.2775 13.3237V13.4409V13.5581C100.139 13.5581 100.964 13.2172 101.573 12.6105L101.49 12.5275ZM101.48 12.5275V12.6447H101.49V12.5275V12.4103H101.48V12.5275ZM101.48 8.07976L101.395 8.16048C102.538 9.36283 102.538 11.2444 101.395 12.4468L101.48 12.5275L101.565 12.6082C102.794 11.3154 102.794 9.29186 101.565 7.99904L101.48 8.07976ZM99.2725 7.16724V7.28442C100.07 7.28442 100.835 7.60048 101.398 8.16268L101.48 8.07976L101.563 7.99684C100.956 7.39065 100.132 7.05005 99.2725 7.05005V7.16724ZM97.0646 8.07976L97.1474 8.16268C97.7104 7.60048 98.475 7.28442 99.2725 7.28442V7.16724V7.05005C98.413 7.05005 97.5889 7.39065 96.9818 7.99684L97.0646 8.07976ZM97.0646 12.5275L97.1491 12.4463C95.9972 11.2481 95.9972 9.35913 97.1491 8.16098L97.0646 8.07976L96.9802 7.99854C95.741 9.28742 95.741 11.3198 96.9802 12.6087L97.0646 12.5275ZM99.2775 13.4409V13.3237C98.4784 13.3237 97.7121 13.0073 97.1474 12.4445L97.0646 12.5275L96.9819 12.6105C97.5906 13.2172 98.4165 13.5581 99.2775 13.5581V13.4409ZM97.6378 12.0266L97.5546 12.1091C98.0094 12.5682 98.6299 12.8265 99.2773 12.8265V12.7093V12.5922C98.6923 12.5922 98.1318 12.3587 97.721 11.9442L97.6378 12.0266ZM97.6378 8.58066L97.5517 8.50113C96.6104 9.51988 96.6104 11.0874 97.5517 12.1062L97.6378 12.0266L97.7239 11.9471C96.8655 11.0182 96.8655 9.58913 97.7239 8.66019L97.6378 8.58066ZM99.2773 7.89795V7.78076C98.6299 7.78076 98.0094 8.0391 97.5546 8.49817L97.6378 8.58066L97.721 8.66314C98.1318 8.24858 98.6923 8.01514 99.2773 8.01514V7.89795ZM100.917 8.58066L101 8.49817C100.545 8.0391 99.9247 7.78076 99.2773 7.78076V7.89795V8.01514C99.8624 8.01514 100.423 8.24858 100.834 8.66314L100.917 8.58066ZM100.917 12.0266L101.004 12.1052C101.93 11.0813 101.93 9.526 101.004 8.50205L100.917 8.58066L100.83 8.65926C101.675 9.59395 101.675 11.0133 100.83 11.948L100.917 12.0266ZM99.2773 12.7093V12.8265C99.9247 12.8265 100.545 12.5682 101 12.1091L100.917 12.0266L100.834 11.9442C100.423 12.3587 99.8624 12.5922 99.2773 12.5922V12.7093Z" fill="white"/>
    <path fill-rule="evenodd" clip-rule="evenodd" d="M103.461 13.3088H104.235L104.185 10.8746H105.473C105.965 10.883 106.441 10.6997 106.8 10.3637C107.154 10.0324 107.355 9.57017 107.355 9.08648C107.355 8.60278 107.154 8.14058 106.8 7.80926C106.441 7.47325 105.965 7.28995 105.473 7.29837H103.461V13.3088ZM105.533 10.1328H104.235V8.03914H105.533C105.829 8.02561 106.116 8.14291 106.317 8.3597C106.517 8.54882 106.631 8.81137 106.631 9.08596C106.631 9.36054 106.517 9.62309 106.317 9.81222C106.116 10.029 105.829 10.1463 105.533 10.1328Z" fill="white"/>
    <path d="M104.235 13.3088V13.426H104.355L104.353 13.3064L104.235 13.3088ZM103.461 13.3088H103.344V13.426H103.461V13.3088ZM104.185 10.8746V10.7574H104.066L104.068 10.877L104.185 10.8746ZM105.473 10.8746L105.475 10.7574H105.473V10.8746ZM106.8 10.3637L106.88 10.4492L106.88 10.4492L106.8 10.3637ZM106.8 7.80926L106.88 7.72372L106.88 7.72372L106.8 7.80926ZM105.473 7.29837V7.41558L105.475 7.41554L105.473 7.29837ZM103.461 7.29837V7.18119H103.344V7.29837H103.461ZM104.235 10.1328H104.118V10.25H104.235V10.1328ZM105.533 10.1328L105.538 10.0156H105.533V10.1328ZM104.235 8.03914V7.92195H104.118V8.03914H104.235ZM105.533 8.03914V8.15645L105.538 8.1562L105.533 8.03914ZM106.317 8.3597L106.231 8.4396L106.237 8.44482L106.317 8.3597ZM106.317 9.81222L106.237 9.72691L106.232 9.73248L106.317 9.81222ZM104.235 13.3088V13.1916H103.461V13.3088V13.426H104.235V13.3088ZM104.185 10.8746L104.068 10.877L104.118 13.3112L104.235 13.3088L104.353 13.3064L104.302 10.8722L104.185 10.8746ZM105.473 10.8746V10.7574H104.185V10.8746V10.9918H105.473V10.8746ZM106.8 10.3637L106.72 10.2781C106.384 10.5933 105.937 10.7653 105.475 10.7574L105.473 10.8746L105.471 10.9917C105.993 11.0007 106.499 10.8061 106.88 10.4492L106.8 10.3637ZM107.355 9.08648H107.238C107.238 9.53767 107.051 9.96893 106.72 10.2781L106.8 10.3637L106.88 10.4492C107.258 10.0958 107.472 9.60267 107.472 9.08648H107.355ZM106.8 7.80926L106.72 7.8948C107.051 8.20402 107.238 8.63528 107.238 9.08648H107.355H107.472C107.472 8.57028 107.258 8.07714 106.88 7.72372L106.8 7.80926ZM105.473 7.29837L105.475 7.41554C105.937 7.40764 106.384 7.57964 106.72 7.8948L106.8 7.80926L106.88 7.72372C106.499 7.36686 105.993 7.17226 105.471 7.1812L105.473 7.29837ZM103.461 7.29837V7.41556H105.473V7.29837V7.18119H103.461V7.29837ZM103.461 13.3088H103.578V7.29837H103.461H103.344V13.3088H103.461ZM104.235 10.1328V10.25H105.533V10.1328V10.0156H104.235V10.1328ZM104.235 8.03914H104.118V10.1328H104.235H104.353V8.03914H104.235ZM105.533 8.03914V7.92195H104.235V8.03914V8.15633H105.533V8.03914ZM106.317 8.3597L106.403 8.27996C106.179 8.03786 105.858 7.90698 105.528 7.92207L105.533 8.03914L105.538 8.1562C105.8 8.14424 106.054 8.24796 106.232 8.43944L106.317 8.3597ZM106.631 9.08596H106.748C106.748 8.77908 106.621 8.48577 106.398 8.27457L106.317 8.3597L106.237 8.44482C106.413 8.61186 106.513 8.84365 106.513 9.08596H106.631ZM106.317 9.81222L106.398 9.89734C106.621 9.68614 106.748 9.39283 106.748 9.08596H106.631H106.513C106.513 9.32826 106.413 9.56005 106.237 9.72709L106.317 9.81222ZM105.533 10.1328L105.528 10.2498C105.858 10.2649 106.179 10.1341 106.403 9.89196L106.317 9.81222L106.232 9.73248C106.054 9.92395 105.8 10.0277 105.538 10.0157L105.533 10.1328Z" fill="white"/>
    <path d="M10.9017 7.91485C10.5977 8.23825 10.418 8.74015 10.418 9.3901V32.6119C10.418 33.2629 10.5977 33.7637 10.9017 34.0871L10.9791 34.1627L23.9237 21.1543V21.001V20.8477L10.9791 7.8382L10.9017 7.91485Z" fill="url(#paint0_linear_30_14993)"/>
    <path d="M28.24 25.4931L23.9258 21.1556V21.0023V20.849L28.241 16.5125L28.3382 16.5681L33.4506 19.4871C34.9113 20.3208 34.9113 21.6848 33.4506 22.5195L28.3382 25.4385L28.24 25.4931Z" fill="url(#paint1_linear_30_14993)"/>
    <path d="M28.3377 25.4359L23.9253 21.0007L10.9023 34.0869C11.384 34.5993 12.1781 34.6623 13.0735 34.1509L28.3377 25.4359Z" fill="url(#paint2_linear_30_14993)"/>
    <path d="M28.3367 16.5657L13.0735 7.85073C12.1781 7.33938 11.384 7.40343 10.9023 7.91478L23.9243 21.0009L28.3367 16.5657Z" fill="url(#paint3_linear_30_14993)"/>
    <path opacity="0.2" d="M28.2405 25.3386L13.0746 33.998C12.2262 34.482 11.4676 34.4505 10.9807 34.0095L10.9023 34.0883L10.9797 34.1639C11.4666 34.6049 12.2251 34.6374 13.0735 34.1523L28.3367 25.4373L28.2405 25.3386Z" fill="black"/>
    <path opacity="0.12" d="M10.9007 33.9339C10.5973 33.6105 10.418 33.1086 10.418 32.4586V32.6119C10.418 33.2619 10.5973 33.7638 10.9007 34.0872L10.9789 34.0084L10.9007 33.9339Z" fill="black"/>
    <path opacity="0.12" d="M33.4479 22.3636L28.2383 25.3382L28.3355 25.4359L33.4479 22.5169C34.1782 22.1 34.5429 21.5509 34.5429 21.0017C34.4812 21.4984 34.1093 21.9856 33.4479 22.3636Z" fill="black"/>
    <path opacity="0.25" d="M13.0729 8.00412L33.4485 19.6381C34.1109 20.0161 34.4818 20.5033 34.5435 21.001C34.5435 20.4519 34.1788 19.9017 33.4485 19.4848L13.0729 7.85082C11.6122 7.01712 10.418 7.70907 10.418 9.39012V9.54447C10.418 7.86342 11.6133 7.17042 13.0729 8.00412Z" fill="white"/>
    <defs>
        <linearGradient id="paint0_linear_30_14993" x1="22.776" y1="9.14524" x2="5.1547" y2="26.6801" gradientUnits="userSpaceOnUse">
            <stop stop-color="#00A0FF"/>
            <stop offset="0.0066" stop-color="#00A1FF"/>
            <stop offset="0.2601" stop-color="#00BEFF"/>
            <stop offset="0.5122" stop-color="#00D2FF"/>
            <stop offset="0.7604" stop-color="#00DFFF"/>
            <stop offset="1" stop-color="#00E3FF"/>
        </linearGradient>
        <linearGradient id="paint1_linear_30_14993" x1="35.3515" y1="21.0017" x2="10.0694" y2="21.0017" gradientUnits="userSpaceOnUse">
            <stop stop-color="#FFE000"/>
            <stop offset="0.4087" stop-color="#FFBD00"/>
            <stop offset="0.7754" stop-color="#FFA500"/>
            <stop offset="1" stop-color="#FF9C00"/>
        </linearGradient>
        <linearGradient id="paint2_linear_30_14993" x1="25.9397" y1="23.4107" x2="2.04375" y2="47.1893" gradientUnits="userSpaceOnUse">
            <stop stop-color="#FF3A44"/>
            <stop offset="1" stop-color="#C31162"/>
        </linearGradient>
        <linearGradient id="paint3_linear_30_14993" x1="7.62278" y1="0.184995" x2="18.2934" y2="10.8031" gradientUnits="userSpaceOnUse">
            <stop stop-color="#32A071"/>
            <stop offset="0.0685" stop-color="#2DA771"/>
            <stop offset="0.4762" stop-color="#15CF74"/>
            <stop offset="0.8009" stop-color="#06E775"/>
            <stop offset="1" stop-color="#00F076"/>
        </linearGradient>
    </defs>
</svg>
