<svg width="142" height="42" viewBox="0 0 142 42" fill="none" xmlns="http://www.w3.org/2000/svg"><path fill="#000" d="M0 0h142v42H0z"/><path d="M71.192 22.931c-2.458 0-4.46 1.877-4.46 4.466 0 2.571 2.002 4.465 4.46 4.465 2.457 0 4.46-1.894 4.46-4.465 0-2.588-2.003-4.466-4.46-4.466zm0 7.173c-1.347 0-2.509-1.116-2.509-2.707 0-1.608 1.162-2.707 2.509-2.707s2.508 1.1 2.508 2.707c0 1.59-1.161 2.707-2.508 2.707zM61.46 22.93c-2.457 0-4.46 1.877-4.46 4.466 0 2.571 2.003 4.465 4.46 4.465 2.458 0 4.46-1.894 4.46-4.465.002-2.588-2.002-4.466-4.46-4.466zm0 7.173c-1.347 0-2.507-1.116-2.507-2.707 0-1.608 1.161-2.707 2.507-2.707 1.347 0 2.508 1.1 2.508 2.707 0 1.59-1.161 2.707-2.508 2.707zM49.885 24.3v1.895h4.512c-.135 1.065-.488 1.843-1.027 2.385-.656.66-1.683 1.387-3.485 1.387-2.777 0-4.948-2.25-4.948-5.04 0-2.792 2.171-5.042 4.948-5.042 1.499 0 2.593.592 3.4 1.354l1.33-1.337c-1.127-1.083-2.625-1.912-4.73-1.912-3.804 0-7.002 3.112-7.002 6.935 0 3.823 3.198 6.935 7.002 6.935 2.053 0 3.603-.676 4.815-1.945 1.245-1.252 1.633-3.012 1.633-4.432 0-.44-.033-.847-.101-1.185h-6.347v.002zm47.34 1.471c-.37-.998-1.498-2.842-3.804-2.842-2.29 0-4.19 1.81-4.19 4.466 0 2.503 1.884 4.465 4.41 4.465 2.036 0 3.215-1.251 3.702-1.979l-1.515-1.015c-.504.744-1.195 1.235-2.188 1.235-.993 0-1.7-.457-2.154-1.354l5.942-2.47-.203-.506zm-6.06 1.49c-.05-1.726 1.33-2.606 2.323-2.606.774 0 1.43.389 1.65.947l-3.973 1.658zm-4.831 4.33h1.953V18.465h-1.953v13.127zm-3.198-7.663h-.067c-.438-.524-1.28-.999-2.34-.999-2.222 0-4.258 1.962-4.258 4.483 0 2.503 2.036 4.448 4.258 4.448 1.06 0 1.902-.473 2.34-1.015h.067v.643c0 1.708-.91 2.621-2.374 2.621-1.196 0-1.936-.863-2.24-1.59l-1.7.712c.489 1.184 1.785 2.638 3.94 2.638 2.289 0 4.225-1.353 4.225-4.651V23.2h-1.851v.728zm-2.239 6.175c-1.346 0-2.474-1.133-2.474-2.69 0-1.573 1.128-2.724 2.474-2.724 1.33 0 2.373 1.15 2.373 2.723 0 1.557-1.042 2.69-2.373 2.69zm25.475-11.639H101.7v13.127h1.949v-4.973h2.722c2.161 0 4.285-1.572 4.285-4.076 0-2.505-2.123-4.078-4.284-4.078zm.05 6.327h-2.773v-4.5h2.773c1.458 0 2.285 1.213 2.285 2.25 0 1.017-.827 2.25-2.285 2.25zm12.049-1.885c-1.411 0-2.873.625-3.478 2.01l1.731.726c.37-.726 1.059-.963 1.782-.963 1.008 0 2.033.608 2.05 1.689v.135c-.353-.202-1.11-.507-2.034-.507-1.865 0-3.764 1.03-3.764 2.956 0 1.756 1.53 2.887 3.243 2.887 1.311 0 2.033-.59 2.487-1.283h.067v1.014h1.881v-5.033c0-2.331-1.73-3.631-3.965-3.631zm-.236 7.194c-.638 0-1.53-.322-1.53-1.115 0-1.013 1.11-1.401 2.067-1.401.857 0 1.26.185 1.782.439-.151 1.215-1.193 2.076-2.319 2.076zm11.058-6.907l-2.235 5.69h-.067l-2.319-5.69h-2.1l3.479 7.953-1.984 4.425h2.034l5.361-12.378h-2.169zm-17.561 8.398h1.95V18.465h-1.95v13.127z" fill="#fff"/><path fill-rule="evenodd" clip-rule="evenodd" d="M46.098 13.44c.83 0 1.626-.328 2.213-.912h-.01a3.226 3.226 0 000-4.448 3.125 3.125 0 00-4.416 0 3.236 3.236 0 000 4.447 3.135 3.135 0 002.213.914zm0-.73a2.308 2.308 0 01-1.64-.683c-.9-.974-.9-2.472 0-3.446a2.308 2.308 0 013.279 0c.886.98.886 2.466 0 3.446a2.308 2.308 0 01-1.64.683z" fill="#fff"/><path d="M48.311 12.527l.083.084.2-.2h-.283v.117zm-.01 0l-.085-.08-.188.198h.273v-.117zm0-4.447l.085-.081-.002-.002-.083.083zm-4.416 0l-.083-.083-.002.002.085.08zm0 4.447l-.085.081.003.002.082-.082zm.573-.5l-.086.08.003.002.083-.082zm0-3.446l-.083-.083-.003.003.086.08zm3.279 0l.087-.079-.004-.004-.083.083zm0 3.446l.083.082.004-.004-.087-.078zm.574.5l-.083-.082a3.018 3.018 0 01-2.13.879v.234c.861 0 1.687-.34 2.296-.947l-.083-.084zm-.01 0v.118h.01v-.235h-.01v.117zm0-4.447l-.085.08a3.109 3.109 0 010 4.287l.085.08.085.081a3.343 3.343 0 000-4.609l-.085.08zm-2.208-.913v.117c.797 0 1.562.316 2.125.879l.083-.083.083-.083a3.242 3.242 0 00-2.29-.947v.117zm-2.208.913l.083.083a3.008 3.008 0 012.125-.879V7.05c-.86 0-1.684.34-2.29.947l.082.083zm0 4.447l.085-.08a3.119 3.119 0 010-4.287l-.085-.08L43.8 8a3.353 3.353 0 000 4.608l.085-.08zm2.213.914v-.117c-.799 0-1.565-.317-2.13-.88l-.083.083-.082.084a3.252 3.252 0 002.295.947v-.117zm-1.64-1.414l-.083.082c.455.46 1.075.718 1.722.718v-.235a2.191 2.191 0 01-1.556-.648l-.083.083zm0-3.446l-.086-.08a2.654 2.654 0 000 3.605l.086-.08.086-.079a2.42 2.42 0 010-3.287l-.086-.08zm1.64-.683v-.117c-.648 0-1.268.258-1.723.717l.083.083.083.082a2.19 2.19 0 011.556-.648v-.117zm1.639.683l.083-.083a2.425 2.425 0 00-1.723-.717v.234c.585 0 1.146.234 1.557.648l.083-.082zm0 3.446l.087.078a2.684 2.684 0 000-3.603l-.087.079-.087.078a2.45 2.45 0 010 3.29l.087.078zm-1.64.683v.117c.648 0 1.268-.259 1.723-.718l-.083-.082-.083-.083c-.411.415-.972.648-1.557.648v.117z" fill="#fff"/><path d="M50.281 13.309v-6.01h.946l2.897 4.677V7.298h.774v6.01h-.774L51.106 8.41v4.899h-.825zM58.378 13.309h-.774v-5.27h-1.69V7.3h4.144v.74h-1.68v5.27z" fill="#fff" stroke="#fff" stroke-width=".234"/><path fill-rule="evenodd" clip-rule="evenodd" d="M61.047 7.298v6.01h1.84a3.024 3.024 0 002.224-.831c.568-.578.87-1.365.834-2.174a2.919 2.919 0 00-.834-2.174 3.025 3.025 0 00-2.223-.831h-1.841zm1.84 5.269h-1.066V8.039h1.097a2.107 2.107 0 011.665.606 2.09 2.09 0 01.608 1.658 2.268 2.268 0 01-.644 1.673 2.32 2.32 0 01-1.66.59z" fill="#fff"/><path d="M61.047 13.308h-.117v.118h.117v-.118zm0-6.01v-.117h-.117v.117h.117zm1.84 6.01l.006-.117h-.005v.117zm2.224-.831l.08.085.003-.003-.084-.082zm.834-2.174l-.117-.005v.01l.117-.005zm-.834-2.174l.083-.082-.003-.002-.08.084zm-2.223-.831v.117h.005l-.005-.117zm-1.067 5.269h-.117v.117h.117v-.117zm1.067 0l.005-.117h-.005v.117zM61.82 8.039v-.117h-.117v.117h.117zm1.097 0v.118l.01-.001-.01-.117zm1.665.606l-.083.083.083-.083zm.608 1.658l-.117-.01v.015l.117-.005zm-.644 1.673l.079.087.005-.005-.084-.082zm-3.5 1.332h.117v-6.01h-.234v6.01h.117zm1.84 0v-.117h-1.84v.235h1.84v-.118zm2.224-.831l-.081-.085a2.908 2.908 0 01-2.137.8l-.005.116-.006.117a3.142 3.142 0 002.31-.863l-.081-.085zm.834-2.174l-.117.005a2.8 2.8 0 01-.801 2.087l.084.082.083.082c.591-.601.906-1.42.868-2.261l-.117.005zm-.834-2.174l-.084.083c.545.555.835 1.31.801 2.086l.117.005.118.005a3.036 3.036 0 00-.869-2.26l-.084.081zm-2.223-.831l.005.117a2.908 2.908 0 012.137.8l.08-.086.081-.084a3.142 3.142 0 00-2.309-.864l.006.117zm-1.841 0v.117h1.84v-.234h-1.84v.117zm.774 5.269v.117h1.067v-.234H61.82v.117zm0-4.528h-.117v4.528h.234V8.039h-.117zm1.097 0v-.117H61.82v.234h1.097V8.04zm1.665.606l.082-.083a2.225 2.225 0 00-1.757-.64l.01.117.01.117a1.99 1.99 0 011.572.572l.083-.083zm.608 1.658l.117.01c.055-.65-.18-1.29-.643-1.751l-.082.083-.083.083c.414.412.624.985.574 1.565l.117.01zm-.644 1.673l.084.082c.458-.47.703-1.105.677-1.76l-.117.005-.117.005a2.152 2.152 0 01-.61 1.586l.083.082zm-1.66.59l-.005.118c.64.03 1.267-.193 1.744-.62l-.079-.088-.078-.087c-.43.386-.997.588-1.576.56l-.005.118z" fill="#fff"/><path d="M70.562 8.04h-2.756v1.903h2.484v.721h-2.484v1.903h2.756v.742h-3.53v-6.01h3.53v.74zM76.255 7.298l-2.243 2.585 2.383 3.426H75.39l-2.012-2.805-.936 1.072v1.733h-.774v-6.01h.774v3.094l2.807-3.095h1.006zM79.203 13.309v-6.01h.785v2.574h3.017V7.298h.775v6.01h-.775v-2.714h-3.017v2.715h-.785zM88.677 8.04H85.93v1.903h2.484v.721h-2.484v1.903h2.746v.742h-3.52v-6.01h3.52v.74zM91.957 13.309h-.785v-5.27h-1.68V7.3h4.144v.74h-1.68v5.27z" fill="#fff" stroke="#fff" stroke-width=".234"/><path fill-rule="evenodd" clip-rule="evenodd" d="M99.278 13.44c.83 0 1.626-.328 2.212-.912h-.01a3.225 3.225 0 000-4.448 3.124 3.124 0 00-4.415 0 3.206 3.206 0 000 4.447 3.135 3.135 0 002.213.914zm0-.73a2.308 2.308 0 01-1.64-.683c-.9-.974-.9-2.472 0-3.446a2.308 2.308 0 013.279 0c.886.979.886 2.466 0 3.446a2.308 2.308 0 01-1.64.682z" fill="#fff"/><path d="M101.49 12.527l.083.084.201-.2h-.284v.117zm-.01 0l-.085-.08-.188.198h.273v-.117zm0-4.447l.085-.081-.002-.002-.083.083zm-4.415 0l-.083-.083-.002.002.085.08zm0 4.447l-.085.082.002.002.083-.084zm.573-.5l-.086.08.003.002.083-.082zm0-3.446l-.084-.083-.002.003.086.08zm3.279 0l.087-.079-.004-.004-.083.083zm0 3.446l.083.082.004-.004-.087-.078zm.573.5l-.082-.082a3.019 3.019 0 01-2.13.879v.234c.861 0 1.686-.34 2.295-.947l-.083-.084zm-.01 0v.118h.01v-.235h-.01v.117zm0-4.447l-.085.08a3.108 3.108 0 010 4.287l.085.08.085.081a3.342 3.342 0 000-4.609l-.085.08zm-2.208-.913v.117c.798 0 1.563.316 2.126.879l.082-.083.083-.083a3.241 3.241 0 00-2.29-.947v.117zm-2.207.913l.082.083a3.008 3.008 0 012.125-.879V7.05c-.859 0-1.683.34-2.29.947l.083.083zm0 4.447l.084-.08a3.089 3.089 0 010-4.286l-.084-.081-.085-.081a3.323 3.323 0 000 4.61l.085-.082zm2.213.914v-.117c-.8 0-1.566-.317-2.13-.88l-.083.083-.083.084a3.252 3.252 0 002.296.947v-.117zm-1.64-1.414l-.083.082c.454.46 1.075.717 1.722.717v-.234a2.191 2.191 0 01-1.556-.648l-.083.083zm0-3.446l-.086-.08a2.654 2.654 0 000 3.605l.086-.08.086-.079a2.42 2.42 0 010-3.287l-.086-.08zm1.64-.683V7.78c-.648 0-1.269.258-1.723.717l.083.083.083.082c.41-.414.971-.648 1.556-.648v-.117zm1.639.683l.083-.083a2.425 2.425 0 00-1.723-.717v.234c.585 0 1.146.234 1.557.648l.083-.082zm0 3.446l.087.078a2.684 2.684 0 000-3.603l-.087.079-.087.078a2.45 2.45 0 010 3.289l.087.079zm-1.64.682v.117c.648 0 1.268-.258 1.723-.717l-.083-.082-.083-.083a2.192 2.192 0 01-1.557.648v.117z" fill="#fff"/><path fill-rule="evenodd" clip-rule="evenodd" d="M103.461 13.309h.774l-.05-2.434h1.288c.492.008.968-.175 1.327-.511a1.75 1.75 0 000-2.555 1.895 1.895 0 00-1.327-.51h-2.012v6.01zm2.072-3.176h-1.298V8.039h1.298c.296-.013.583.104.784.32a1 1 0 010 1.453 1.007 1.007 0 01-.784.32z" fill="#fff"/><path d="M104.235 13.309v.117h.12l-.002-.12-.118.003zm-.774 0h-.117v.117h.117v-.117zm.724-2.434v-.118h-.119l.002.12.117-.002zm1.288 0l.002-.118h-.002v.118zm1.327-.511l.08.085-.08-.085zm0-2.555l.08-.085-.08.085zm-1.327-.51v.117h.002l-.002-.118zm-2.012 0V7.18h-.117v.117h.117zm.774 2.834h-.117v.117h.117v-.117zm1.298 0l.005-.117h-.005v.117zm-1.298-2.094v-.117h-.117v.117h.117zm1.298 0v.117h.005l-.005-.117zm.784.32l-.086.08.006.006.08-.085zm0 1.453l-.08-.085-.005.005.085.08zm-2.082 3.497v-.117h-.774v.234h.774v-.117zm-.05-2.434l-.117.002.05 2.434.117-.002.118-.003-.051-2.434-.117.003zm1.288 0v-.118h-1.288v.235h1.288v-.117zm1.327-.511l-.08-.086a1.776 1.776 0 01-1.245.48l-.002.117-.002.117a2.011 2.011 0 001.409-.543l-.08-.085zm.555-1.278h-.117c0 .452-.187.883-.518 1.192l.08.086.08.085c.378-.353.592-.846.592-1.363h-.117zM106.8 7.81l-.08.086c.331.309.518.74.518 1.191h.234c0-.516-.214-1.009-.592-1.362l-.08.085zm-1.327-.51l.002.117c.462-.008.909.164 1.245.479l.08-.086.08-.085a2.012 2.012 0 00-1.409-.543l.002.117zm-2.012 0v.117h2.012V7.18h-2.012v.117zm0 6.01h.117v-6.01h-.234v6.01h.117zm.774-3.176v.117h1.298v-.234h-1.298v.117zm0-2.094h-.117v2.094h.235V8.039h-.118zm1.298 0v-.117h-1.298v.234h1.298V8.04zm.784.32l.086-.079a1.123 1.123 0 00-.875-.358l.005.117.005.117a.892.892 0 01.694.283l.085-.08zm.314.727h.117c0-.307-.127-.6-.35-.811l-.081.085-.08.085a.884.884 0 01.276.641h.118zm-.314.726l.081.085c.223-.21.35-.504.35-.811h-.235c0 .242-.1.474-.276.641l.08.085zm-.784.32l-.005.118c.33.015.651-.116.875-.358l-.086-.08-.085-.08a.892.892 0 01-.694.284l-.005.117z" fill="#fff"/><path d="M10.902 7.915c-.304.323-.484.825-.484 1.475v23.222c0 .65.18 1.152.484 1.475l.077.076 12.945-13.009v-.306L10.979 7.838l-.077.077z" fill="url(#prefix__paint0_linear_30_14993)"/><path d="M28.24 25.493l-4.314-4.337v-.307l4.315-4.337.097.056 5.113 2.92c1.46.833 1.46 2.197 0 3.032l-5.113 2.919-.098.054z" fill="url(#prefix__paint1_linear_30_14993)"/><path d="M28.338 25.436L23.925 21 10.902 34.087c.482.512 1.276.575 2.171.064l15.265-8.715z" fill="url(#prefix__paint2_linear_30_14993)"/><path d="M28.337 16.566L13.073 7.85c-.895-.512-1.689-.448-2.17.064L23.923 21l4.413-4.435z" fill="url(#prefix__paint3_linear_30_14993)"/><path opacity=".2" d="M28.24 25.339l-15.165 8.659c-.849.484-1.607.453-2.094.012l-.079.078.078.076c.487.44 1.245.473 2.093-.012l15.264-8.715-.096-.098z" fill="#000"/><path opacity=".12" d="M10.9 33.934c-.303-.323-.482-.825-.482-1.475v.153c0 .65.18 1.152.483 1.475l.078-.079-.078-.074zM33.448 22.364l-5.21 2.974.098.098 5.112-2.92c.73-.416 1.095-.965 1.095-1.514-.062.496-.434.984-1.095 1.362z" fill="#000"/><path opacity=".25" d="M13.073 8.004l20.376 11.634c.662.378 1.033.865 1.095 1.363 0-.55-.365-1.1-1.095-1.516L13.073 7.85c-1.46-.834-2.655-.142-2.655 1.54v.153c0-1.68 1.195-2.374 2.655-1.54z" fill="#fff"/><defs><linearGradient id="prefix__paint0_linear_30_14993" x1="22.776" y1="9.145" x2="5.155" y2="26.68" gradientUnits="userSpaceOnUse"><stop stop-color="#00A0FF"/><stop offset=".007" stop-color="#00A1FF"/><stop offset=".26" stop-color="#00BEFF"/><stop offset=".512" stop-color="#00D2FF"/><stop offset=".76" stop-color="#00DFFF"/><stop offset="1" stop-color="#00E3FF"/></linearGradient><linearGradient id="prefix__paint1_linear_30_14993" x1="35.352" y1="21.002" x2="10.069" y2="21.002" gradientUnits="userSpaceOnUse"><stop stop-color="#FFE000"/><stop offset=".409" stop-color="#FFBD00"/><stop offset=".775" stop-color="orange"/><stop offset="1" stop-color="#FF9C00"/></linearGradient><linearGradient id="prefix__paint2_linear_30_14993" x1="25.94" y1="23.411" x2="2.044" y2="47.189" gradientUnits="userSpaceOnUse"><stop stop-color="#FF3A44"/><stop offset="1" stop-color="#C31162"/></linearGradient><linearGradient id="prefix__paint3_linear_30_14993" x1="7.623" y1=".185" x2="18.293" y2="10.803" gradientUnits="userSpaceOnUse"><stop stop-color="#32A071"/><stop offset=".069" stop-color="#2DA771"/><stop offset=".476" stop-color="#15CF74"/><stop offset=".801" stop-color="#06E775"/><stop offset="1" stop-color="#00F076"/></linearGradient></defs></svg>