<svg width="218" height="260" fill="none" xmlns="http://www.w3.org/2000/svg"><g clip-path="url(#a)"><path d="m28.961 260-16.355-9.372c32.98-57.034 72.931-47.128 105.11-39.36 26.279 6.426 47.195 11.514 66.766-10.979l14.211 12.317c-27.081 31.061-57.92 23.563-85.27 16.871-15.55-3.75-30.57-7.499-44.244-4.553C53.63 228.135 40.757 239.383 28.96 260Z" fill="#84BD00"/><path d="m27.351 211.268-14.48-11.783c30.03-36.953 70.254-30.792 105.38-25.439 27.35 4.016 50.68 7.765 67.84-6.426l12.066 14.46c-23.596 19.278-53.63 14.994-82.586 10.444-33.25-5.088-64.89-9.641-88.22 18.744Z" fill="#84BD00"/><path d="M206.469 144.593h-9.115l-1.61 4.553h-5.63l8.58-22.493h6.166l8.58 22.493h-5.63l-1.341-4.553Zm-1.878-4.819-2.681-7.499-2.681 7.499h5.362Zm-14.747-8.034h-6.97v17.406h-5.364V131.74h-6.705v-5.087h19.039v5.087Zm-19.305 12.587v5.087h-16.356v-22.493h5.364v17.406h10.992Zm-21.989 0v5.087h-17.161v-22.493h16.894v5.088H136.75v3.749h10.995v4.819H136.75v4.016h11.8v-.266Zm-22.525-6.161c.269 6.158-4.559 10.98-10.725 11.245h-10.19v-22.493h9.116c6.166-.534 11.261 4.016 11.799 10.176v1.072Zm-5.63 0c.269-3.214-2.145-5.891-5.364-6.157h-4.56v12.587h3.755a6.057 6.057 0 0 0 6.166-6.158l.003-.272Zm-39.954 8.569 2.414-4.284a13.99 13.99 0 0 0 7.775 2.41c1.876 0 3.22-.803 3.22-2.142 0-1.338-1.341-1.607-3.755-2.142-6.705-1.607-9.116-2.676-9.116-6.695 0-6.157 5.364-7.498 9.654-7.498 2.95 0 5.9.803 8.311 2.411l-2.414 4.284c-1.876-1.339-4.021-1.873-6.435-1.873-2.415 0-3.486.803-3.486 2.142 0 1.338 1.074 1.607 4.021 2.142 2.95.534 8.85 1.873 8.85 6.961 0 4.552-4.021 7.229-9.385 7.229-3.486 0-6.705-1.069-9.654-2.945Zm-5.362 2.679h-5.364v-15.529l-4.56 13.121h-5.899l-4.56-13.121v15.529h-5.363v-22.493h7.775l4.826 14.729 4.825-14.729h7.776v22.493h.544Zm-31.104-5.087v5.087H26.813v-22.493h16.894v5.088h-11.53v3.749h10.995v4.819H32.178v4.016h11.8v-.266h-.004Zm-23.06 0v5.087H3.753v-22.493h16.894v5.088H9.115v3.749H20.11v4.819H9.115v4.016h11.8v-.266Zm152.571-25.439v2.411h-10.995v-14.994h10.725v2.411h-8.044v3.749h7.775v2.411h-7.775v3.749l8.314.263Zm-14.746-10.175h-4.826v12.586h-2.681v-12.586h-4.825v-2.411h12.334l-.002 2.411Zm-16.09-2.411v14.994h-2.414l-7.509-10.175v10.175h-2.681v-14.994h2.414l7.51 10.175v-10.175h2.68Zm-17.16 12.586v2.411h-10.995v-14.994h10.725v2.411h-8.044v3.749h7.775v2.411h-7.775v3.749l8.314.263Zm-15.551 0v2.411H98.944v-14.994h10.725v2.411h-8.044v3.749h7.775v2.411h-7.775v3.749l8.314.263Zm-16.09 2.411h-2.68v-11.514l-4.021 9.907h-2.95l-4.02-9.907v11.514h-2.681v-14.994h4.02l4.29 10.444 4.29-10.444h4.022l-.27 14.994Zm-20.915-2.411v2.411H61.94v-14.994h10.725v2.411H64.62v3.749h7.776v2.411H64.62v3.749l8.314.263Zm-22.794 2.677c-4.02.269-7.509-2.946-7.775-7.23v-.535c0-4.284 3.219-7.764 7.51-7.764h.268c2.415-.269 4.56.803 5.9 2.677l-2.145 1.873c-1.074-1.073-2.414-1.873-4.02-1.873-2.681 0-5.096 2.142-5.096 4.818v.269c-.269 2.677 1.876 5.088 4.56 5.357h.535c2.145 0 4.29-1.607 4.56-3.749h-4.29v-2.411h7.24v1.072c.535 3.749-2.146 6.961-5.9 7.499l-1.347-.003Z" fill="#E03C31"/><path d="M177.24 89.7c-26.545-28.384-49.339-20.886-75.615-12.049-25.205 8.3-53.63 17.94-82.05-10.71L32.98 53.82c20.11 20.351 38.88 14.19 62.745 6.157 26.815-9.103 60.331-20.082 95.19 17.137L177.24 89.7Z" fill="#004680"/><path d="M204.86 53.285c-25.74-23.831-52.824-18.209-84.195-11.514C83.125 49.536 40.756 58.641 0 12.318L14.21 0c33.52 38.022 67.036 30.792 102.7 23.297 33.519-6.961 68.109-14.46 101.09 16.332l-13.14 13.656Z" fill="#004680"/></g><defs><clipPath id="a"><path fill="#fff" d="M0 0h218v260H0z"/></clipPath></defs></svg>