<svg width="451" height="260" fill="none" xmlns="http://www.w3.org/2000/svg"><path d="M56.59 19.874A1119.33 1119.33 0 0 0 37.956.507L18.876 19.899 0 .507v43.439h75.746V.506S62.929 13.495 56.59 19.875ZM86.485.507h3.867c5.97 5.58 11.548 11.566 17.405 17.274 5.87-5.708 11.435-11.745 17.482-17.274h2.485c6.034 5.63 11.688 11.668 17.583 17.451 5.92-5.77 11.549-11.833 17.596-17.451h3.549c1.217 11.402.241 22.88.621 34.32-.279 2.866.698 6.303-1.28 8.725-7.885.952-15.859.153-23.782.394-5.819-.19-11.739.621-17.482-.584-2.117-1.902-.608-5.91 2.358-5.377 11.371-.229 22.743.025 34.114-.064v-27.09c-5.286 5.047-10.002 10.755-15.998 15.016-6.39-5.745-12.247-12.036-18.395-18.048-4.703 4.63-9.292 9.373-13.957 14.04-1.686 1.37-3.334 3.767-5.832 3.032-4.957-3.628-8.747-8.574-13.26-12.696-3.093-3.386-8.303-6.342-7.074-11.668ZM0 183.775c4.183 0 8.367 0 12.55-.013.495 12.163 3.677 24.351 10.56 34.51 11.346 17.541 31.807 28.499 52.66 28.486-.037 4.313-.024 8.637-.05 12.962-19.332-.177-38.576-7.635-52.508-21.142C9.723 225.895 1.432 208.05 0 189.622v-5.847Z" fill="#22398E"/><path d="M24.871 183.788c4.31-.026 8.62-.013 12.943-.038.254 11.668 5.718 23.26 15.226 30.185 6.49 5.01 14.616 7.394 22.73 7.775-.038 4.312-.026 8.611-.064 12.924-13.336-.368-26.672-5.429-36.04-15.106-9.47-9.347-14.529-22.525-14.795-35.74Z" fill="#22398E"/><path d="M50.14 183.8c4.196-.038 8.38-.025 12.563-.05.95 3.335 1.737 7.039 4.525 9.385 2.308 2.207 5.553 2.79 8.52 3.653 0 4.185.012 8.383-.038 12.581-13.717.266-25.912-11.795-25.57-25.569Z" fill="#22398E"/><rect y="52.934" width="12.509" height="12.503" rx="6.251" fill="#22398E"/><rect x="21.016" y="52.934" width="12.509" height="12.503" rx="6.251" fill="#22398E"/><rect x="42.031" y="52.934" width="12.509" height="12.503" rx="6.251" fill="#22398E"/><rect x="63.047" y="52.934" width="12.509" height="12.503" rx="6.251" fill="#22398E"/><rect y="73.939" width="12.509" height="12.503" rx="6.251" fill="#22398E"/><rect x="21.016" y="73.939" width="12.509" height="12.503" rx="6.251" fill="#22398E"/><rect x="42.031" y="73.939" width="12.509" height="12.503" rx="6.251" fill="#22398E"/><rect x="63.047" y="73.939" width="12.509" height="12.503" rx="6.251" fill="#22398E"/><path fill-rule="evenodd" clip-rule="evenodd" d="M0 183.47c0 41.923 33.95 75.92 75.87 76.023h.192v-12.67c-35.006 0-63.385-28.364-63.385-63.353H0Zm25.354 0c0 27.991 22.703 50.682 50.709 50.682v-12.67c-21.005 0-38.032-17.019-38.032-38.012H25.354Zm25.354 0c0 13.996 11.352 25.341 25.355 25.341v-12.67c-7.002 0-12.678-5.673-12.678-12.671H50.708ZM167.338 183.725a3.803 3.803 0 0 0-7.606 0v.252c0 37.788-30.668 68.421-68.456 68.421h-.256a3.801 3.801 0 0 0 0 7.602h.456c41.829-.108 75.755-33.997 75.862-75.825v-.45Z" fill="#22398E"/><path fill="#22398E" d="M0 97.31h25.354v25.341H0zM25.355 122.651h25.354v25.341H25.355zM0 147.992h25.354v25.341H0z"/><path fill="#22398E" d="M50.707 97.31h25.354v25.341H50.707zM50.707 147.992h25.354v25.341H50.707z"/><path fill-rule="evenodd" clip-rule="evenodd" d="M166.831 3.296a3.296 3.296 0 0 0-5.845-2.09l-16.07 15.274-15.938-15.148A3.275 3.275 0 0 0 126.54.246a3.28 3.28 0 0 0-2.483 1.088L108.121 16.48 91.978 1.137c-1.25-1.188-3.276-1.188-4.525 0a2.936 2.936 0 0 0 0 4.3l18.208 17.306a3.28 3.28 0 0 0 2.482 1.087 3.277 3.277 0 0 0 2.437-1.086l15.938-15.148 15.938 15.147a3.278 3.278 0 0 0 2.482 1.086 3.278 3.278 0 0 0 2.436-1.085l12.865-12.227v27.495H123.22a3.041 3.041 0 0 0 0 6.082h40.57a3.041 3.041 0 0 0 3.041-3.041l-.001-.058-.002-.064.003-.133V3.295Z" fill="#22398E"/><path d="M340.697 56.007c2.104-.012 4.221-.012 6.326-.012 0 3.487.012 6.975.012 10.463h7.924c0 1.585-.013 3.17 0 4.756h-7.924c.178 6.824-.38 13.672.241 20.47.875 4.135 5.971 2.79 9.014 2.816.317 1.738.646 3.475.963 5.213-5.4.672-13.095 1.357-15.555-4.858-2.028-7.711-.57-15.866-1.001-23.755-1.699-.19-3.385-.393-5.084-.583.013-1.015.013-3.032.013-4.046 1.686-.013 3.385-.013 5.071-.026V56.007ZM122.653 66.154c4.741-1.852 9.545.393 13.513 2.917.051-.647.127-1.966.178-2.613 1.775 0 3.549 0 5.324.013-.076 11.82.14 23.654-.076 35.487.051 4.109-2.345 8.256-6.389 9.525-4.539 1.167-9.292.494-13.92.634l-.836-5.403c4.056-.051 8.164.38 12.17-.33 3.689-1.661 2.446-6.405 2.915-9.588-4.969 2.84-11.688 4.02-16.442.127-5.058-4.35-4.411-11.757-4.31-17.782-.025-5.289 2.231-11.503 7.873-12.987Zm1.901 5.504c-4.006 2.194-3.385 7.483-3.562 11.364.089 3.704-.076 8.853 4.069 10.489 3.651 1.649 7.201-.875 10.294-2.575-.038-5.517-.038-11.034-.013-16.55-3.169-1.941-6.985-4.858-10.788-2.728ZM152.508 70.555c5.02-6.95 16.949-6.671 21.589.583 2.839 3.805 2.421 8.802 2.396 13.28-6.947.19-13.894.088-20.841.126.507 3.475.71 7.914 4.437 9.563 4.449 1.535 9.178 0 13.602-.926.431 1.7.849 3.412 1.281 5.112-6.808 1.851-15.517 3.754-21.184-1.713-3.499-3.082-4.095-7.99-3.942-12.378.025-4.617-.368-9.779 2.662-13.647Zm3.042 9.182c5.008.051 10.015.064 15.023-.012 0-4.566-3.157-9.753-8.367-8.751-4.564.304-5.971 5.022-6.656 8.763ZM189.892 69.07c5.324-4.273 13.45-5.034 18.28.457 3.575-2.422 7.733-4.857 12.233-3.792 4.843.457 8.291 4.997 8.278 9.715.33 7.953.178 15.943-.038 23.908-2.053.038-4.107.063-6.161.088-.088-7.622.14-15.245-.05-22.867.076-2.207-.976-4.693-3.309-5.263-3.524-1.497-6.732 1.319-9.647 2.93.621 8.383.228 16.792.329 25.188h-6.338c-.279-8.371.57-16.818-.406-25.138-2.206-5.77-9.191-2.816-12.576.14-.025 8.332-.012 16.665-.012 24.998h-6.022V66.458h5.147c.076.647.216 1.953.292 2.613ZM241.435 68.36c5.692-4.553 15.048-3.589 19.333 2.448 3.004 3.843 2.599 8.967 2.599 13.558-6.985.292-13.983.064-20.968.267.697 3.525.938 8.32 5.02 9.677 4.373 1.154 8.874-.178 13.159-1.154.405 1.724.811 3.45 1.229 5.174-6.731 1.75-15.212 3.691-20.93-1.51-5.083-4.438-4.183-11.782-4.132-17.831-.038-3.995 1.546-8.092 4.69-10.629Zm.964 11.352c5.007.088 10.002.088 15.009 0 .102-4.82-3.575-10.109-8.924-8.625-4.31.584-5.287 5.111-6.085 8.625ZM272.776 70.415c4.969-6.633 16.201-6.468 21.094.165 3.182 3.868 2.84 9.119 2.726 13.824-6.922.229-13.856.076-20.791.153.622 3.5.748 8.218 4.691 9.664 4.437 1.332 9.051-.114 13.412-1.078.406 1.712.824 3.424 1.255 5.136-5.907 1.586-12.499 3.095-18.331.444-4.348-2.207-6.833-7.102-6.795-11.884-.012-5.504-.862-11.77 2.739-16.424Zm2.979 9.322c5.058.05 10.103.05 15.162 0-.584-3.906-2.219-8.738-6.985-8.827-5.211-.685-7.772 4.439-8.177 8.827ZM309.996 69.21c4.006-2.537 8.811-4.921 13.628-3.107 4.31 1.04 6.681 5.39 6.82 9.575.228 7.914.254 15.867-.152 23.78l-6.072-.037c-.051-7.242.076-14.484 0-21.714.05-2.536-.583-5.872-3.537-6.455-3.575-1.268-6.808 1.382-9.787 2.968.026 8.409 0 16.805.013 25.213h-6.339V66.47c1.75-.012 3.499-.012 5.261-.012.038.685.127 2.067.165 2.752ZM364.203 70.58c5.007-6.975 17-6.684 21.614.584 2.802 3.83 2.434 8.776 2.384 13.253-6.947.19-13.882.09-20.829.127.444 3.488.659 7.889 4.387 9.55 4.449 1.56 9.203.013 13.64-.913.418 1.687.849 3.374 1.268 5.06-6.542 1.865-14.718 3.653-20.499-1.052-3.512-2.752-4.792-7.343-4.589-11.643.051-5.035-.659-10.704 2.624-14.966Zm3.055 9.157c5.008.051 10.028.064 15.035-.012-.076-4.528-3.08-9.677-8.278-8.764-4.614.228-6.136 4.997-6.757 8.776ZM172.412 116.543c2.637.013 5.286.013 7.923.013v23.78h23.77v-23.78h7.606c-.038 18.517.063 37.034-.051 55.551-2.523.114-5.033.216-7.53.38-.051-8.497-.013-16.995-.025-25.492-7.924 0-15.847.012-23.757-.013-.026 8.46-.013 16.919-.013 25.379h-7.923c0-18.606-.013-37.212 0-55.818ZM226.2 136.785c5.895-8.98 21.019-8.954 27.015-.102 3.575 4.744 3.22 10.958 3.271 16.564-8.646.825-17.33.229-26.001.419.482 4.02.431 9.043 4.386 11.414 5.604 3.235 12.272.673 18.078-.596.507 2.106 1.014 4.211 1.534 6.316-7.201 2.03-15.276 4.11-22.388.698-5.628-2.587-8.861-8.726-8.899-14.788-.076-6.659-1.002-14.116 3.004-19.925Zm6.821 2.993c-1.927 2.258-1.94 5.403-2.587 8.155 6.225.025 12.449.038 18.674-.013-.469-2.27-.621-4.654-1.598-6.785-2.56-5.314-10.914-5.885-14.489-1.357ZM316.967 134.768c6.25-5.796 17.089-6.684 22.705.444 4.158-2.968 8.912-5.872 14.261-5.023 5.997.089 11.181 5.251 11.334 11.237.367 10.21.076 20.445.101 30.655-2.51.127-5.033.254-7.53.419-.089-9.183.051-18.365-.026-27.548-.05-2.676-.481-5.961-3.131-7.331-4.399-2.105-10.319 0-12.956 3.843-.253 10.286.026 20.597-.076 30.896h-7.606c-.051-9.119.076-18.238-.025-27.344.012-3.171-.875-7.204-4.501-7.978-4.462-1.294-8.392 1.509-11.688 4.122.101 10.4.025 20.8.038 31.2h-7.594v-41.232c2.105.013 4.222.025 6.326.051.089.9.279 2.688.368 3.589ZM378.475 136.772c5.908-8.916 20.829-8.941 26.914-.19 3.866 4.794 3.245 11.25 2.953 16.995-8.455.152-16.911.026-25.366.089.139 4.249.418 9.626 4.766 11.821 5.603 2.612 11.891.215 17.545-1.015.469 2.105.951 4.211 1.445 6.316-6.972 2.067-14.705 3.919-21.728 1.053-6.022-2.397-9.622-8.878-9.432-15.22.127-6.633-1.153-14.053 2.903-19.849Zm7.366 2.309c-2.371 2.295-2.384 5.808-2.992 8.827 6.11.063 12.233.051 18.356.025-.431-2.638-.342-5.567-2.041-7.8-2.89-4.236-9.723-4.464-13.323-1.052ZM425.408 134.705c5.375-4.059 12.804-6.291 19.155-3.12 5.008 2.359 6.491 8.307 6.428 13.393-.013 9.03.088 18.073-.127 27.103-2.498.153-4.982.267-7.467.394-.089-9.145.114-18.289-.063-27.434-.191-2.841-.647-6.481-3.677-7.673-4.83-1.978-9.66 1.002-13.425 3.843.089 10.387.013 20.762.038 31.149h-7.606v-41.219h6.377c.088.888.279 2.676.367 3.564ZM266.096 131.28a366.97 366.97 0 0 1 7.416-.177c.025 8.485-.064 16.957 0 25.442.203 3.221.038 7.47 3.334 9.246 4.881 2.422 9.964-.698 13.831-3.577-.115-10.362-.013-20.711-.051-31.073h7.606c0 13.773.013 27.547-.013 41.333-2.079-.076-4.158-.076-6.224-.329-.178-.863-.52-2.588-.697-3.463-4.906 3.653-11.321 6.088-17.355 3.78-5.236-1.56-7.911-7.103-7.911-12.252a523.521 523.521 0 0 1 .064-28.93Z" fill="#22398E"/></svg>