<svg width="76" height="76" viewBox="0 0 200 200" fill="none" xmlns="http://www.w3.org/2000/svg"><path fill="#F4F4F4" d="M0 0h200v200H0z"/><g clip-path="url(#prefix__clip0_24_913)"><path d="M139.1 95.4H65.5a11.388 11.388 0 01-6.9-2.359V136.8a9.21 9.21 0 009.2 9.2h71.3a2.3 2.3 0 002.3-2.3v-16.1h-16.1a2.3 2.3 0 01-2.3-2.3v-13.8a2.298 2.298 0 012.297-2.3H141.4V97.7a2.3 2.3 0 00-2.297-2.3h-.003z" fill="#1B8761"/><path d="M127.6 113.8h13.801v9.199H127.6V113.8z" fill="#960145"/><path d="M65.5 90.8h66.7V79.3a2.3 2.3 0 00-2.3-2.3h-23v2.3a6.9 6.9 0 11-13.8 0V77H65.5a6.9 6.9 0 100 13.8z" fill="#1B8761"/><path d="M89.939 67.297l7.762-6.213V79.3a2.3 2.3 0 104.601 0V61.084l7.762 6.211a2.3 2.3 0 102.875-3.593l-11.5-9.2a2.31 2.31 0 00-2.875 0l-11.5 9.2a2.301 2.301 0 102.875 3.593v.002z" fill="#960145"/></g><defs><clipPath id="prefix__clip0_24_913"><path fill="#fff" transform="translate(54 54)" d="M0 0h92v92H0z"/></clipPath></defs></svg>